<svg xmlns="http://www.w3.org/2000/svg" width="12.7" height="18" viewBox="0 0 12.7 18"><defs><style>.cls-1{fill:red;}</style></defs><title>download</title><g id="Calque_2" data-name="Calque 2"><g id="Calque_2-2" data-name="Calque 2"><path class="cls-1" d="M5.7,12.9a.9.9,0,0,0,1.3,0l4.3-4.2A1.1,1.1,0,0,0,9.8,7.2L7.9,9c-.3.3-.5.2-.5-.2V1.1A1.1,1.1,0,0,0,6.3,0a1,1,0,0,0-1,1.1V8.8c0,.4-.3.5-.6.2L2.9,7.2A1.1,1.1,0,0,0,1.4,8.7Zm5.9,3H1.1a1.1,1.1,0,0,0-1.1,1A1.1,1.1,0,0,0,1.1,18H11.6a1.1,1.1,0,0,0,1.1-1.1A1.1,1.1,0,0,0,11.6,15.9Z"/></g></g></svg>