<?xml version="1.0" encoding="utf-8"?>
<!-- Generator: Adobe Illustrator 21.1.0, SVG Export Plug-In . SVG Version: 6.00 Build 0)  -->
<svg version="1.1" id="Calque_1" xmlns="http://www.w3.org/2000/svg" xmlns:xlink="http://www.w3.org/1999/xlink" x="0px" y="0px"
	 viewBox="0 0 244 120" style="enable-background:new 0 0 244 120;" xml:space="preserve">
<g>
	<path style="fill:#B8D6E4;" d="M107.7,76c0,0-0.5,10.8,0.8,15c0,0,0.9,3.1,0,6.2c0,0-0.5,4.4,2.6,4.7c0,0,3.7,0.9,8-1.4
		c0,0,2.6-1.4,4.4-1.4c0,0,0.7-1.2-1.7-1.9c0,0-1.5-2.4-3-2.4c0,0-0.9-3.2,0.9-4.5c0,0,3.1-3,2-8.2C121.6,82.1,110.6,74.1,107.7,76z
		"/>
	<path style="fill:#B8D6E4;" d="M152.7,78.7c0,0,1.3,2.8,0,10.9c0,0-0.8,5.1-0.8,7.1c0,0-1.7,5.3,3,6.4c0,0,6.2,0.3,8.5-1
		c0,0,4.9-2.9,0-5.2c0,0-1,0-1.5-2.7c0,0,2-1.5,3.7-4.7c0,0,2.2-5.6,0-9.7C165.5,79.7,155.4,76.3,152.7,78.7z"/>
	<g>
		<path class="gillsMove" style="fill:#F67379;" d="M176.4,53.3c0,0,3,3.3,5.2,3.3c0,0,3.1,0.4,5.2,0c0,0,1-5.7,1.6-11.1c0,0,0.7-9.5,0.6-12.7
			c0,0-0.8-5.7-2.8-8c0,0-2.7-4.7-1.5,3.4c0,0,0.8,6.2-0.5,9c0,0-4.8,11.1-5.1,11.4L176.4,53.3z"/>
		<path class="gillsMove" style="fill:#F67379;" d="M187.9,56.8c0,0,3.3,1.1,6.1,0.4c0,0,1.9-8.6,1.7-12.3c0,0,0-7.1-0.6-9.1c0,0-0.8-3.5-2.3,5
			c0,0-1.9,7.6-3.7,10.6l-3,4.5C186,55.9,186.8,56.6,187.9,56.8z"/>
		<path class="gillsMove" style="fill:#F67379;" d="M195.7,56.8c0,0,5.4-0.3,6.6-1.2c0,0,0.4-9.1,0-12.8c0,0-1.1-5.2-2.9-6.2c0,0-3.2-2.8-0.3,7.3
			c0,0,0.3,2.7-2.3,9.1C196.7,53.1,194.6,56.9,195.7,56.8z"/>
		<path class="gillsMove" style="fill:#F67379;" d="M204.3,54.8c0,0,4.3-0.6,5.3-1.6c0,0,0.3-6.2-0.8-8.6c0,0-2-5-3.2,1.3
			C205.6,45.8,203.2,55.6,204.3,54.8z"/>
	</g>
	<path style="fill:#B8D6E4;" d="M151.6,82.9c0,0,22.8,0.8,28.6-3.9c0,0,17.3-9.7,23.6-8.9c0,0,3.4-1.4,8.1,0c0,0,9.5,1.6,12.9-1.8
		c0,0,4.9-1.3,7.1-1.4c0,0,2.7-1.9,1-2.9c0,0,3.4-1.1,2.9-2.9c0,0-2.3-5.1-6.1-5.7c0,0-8.4-1.5-10-2.7c0,0-7.5-1.9-11.7,0
		c0,0-9.7,3.6-17.9,3.8c0,0-10.5-1.2-18.3-7.6c0,0-21.8-21.6-48.9-20.6c0,0-24.7-0.6-41.7,12.1c0,0-8.2,8.4-14.4,8
		c0,0-12.9-0.4-27.3-6.8c0,0-22.2-4.7-30,1.8c0,0-4.3,4.9-1.4,6.8c0,0,5.5-4.9,9.9-4.3c0,0,17.5-1,25.1,4.7c0,0,17.7,6.2,28,13.6
		c0,0,9.7,9,15,9.7c0,0,3.7,4.3,3.7,7c0,0-1.8,13.8-0.2,18.7c0,0-1.8,4.9-1.2,5.5c0,0,5.5,2.1,9.9,1.6c0,0,5.3-1.6,5.8-3.9
		c0,0-0.2-2.3-2.1-2.7c0,0-0.6-3.1,0.6-7c0,0,2.3-11.7,1-14c0,0,15.4,8.2,30.6,5.1c0,0-1.2,4.5-1.4,9.2c0,0-1.4,8,0,12.1
		c0,0-0.4,4.1,8,2.9c0,0,5.3-1.4,7.2-1.4c0,0,1.6-2.2-1.3-3.3c0,0-3.2-2.5-3.4-4.2c0,0-0.3-11.7,3.8-13.2
		C147.1,86.5,151.3,84.2,151.6,82.9z"/>
	<path style="fill:#82886F;" d="M8.3,50.3c-3.1,0.7,1.4-6.8,1.4-6.8c7.8-6.6,30-1.8,30-1.8C54.1,48,67,48.4,67,48.4
		c6.2,0.4,14.4-8,14.4-8c17.1-12.7,41.7-12.1,41.7-12.1c27.1-1,48.9,20.6,48.9,20.6c7.8,6.4,18.3,7.6,18.3,7.6
		c8.2-0.2,17.9-3.8,17.9-3.8c4.1-1.9,11.7,0,11.7,0c1.6,1.2,10,2.7,10,2.7c3.7,0.6,6.1,5.7,6.1,5.7s-2.5,2.3-8.1,0.1
		c0,0-15.3-2.5-19.9-1.7c0,0-15.5,1.8-20.2,4.8c0,0-24.1,6-39.7,1.4c0,0-22-5.2-33.6-6.2c0,0-10.9-1.6-17.9,0c0,0-13,2.7-26.7-3.3
		c0,0-22.7-7.7-32.2-10.9c0,0-19.3-1.8-22.1-0.6C15.6,44.7,9.9,49.9,8.3,50.3z"/>
	<path style="fill:#FFFFFF;" d="M92.3,105.2c0,0,0.7-1.5-0.6-1.5c0,0-1.9-0.2-2.8,0.2c0,0-1.3,3.1-1.1,3.3
		C87.8,107.1,92.2,106.3,92.3,105.2z"/>
	<path style="fill:#FFFFFF;" d="M93.7,104.5c0,0,1.8-1.1,2.8-0.9c0,0,1.1,2.5,0.2,4.1C96.6,107.7,94.2,108.3,93.7,104.5z"/>
	<path style="fill:#FFFFFF;" d="M97.7,104.1c0,0,1.2-1.3,2.6-0.7c0,0,1.7,1.9,1.6,3.8C102,107.1,99.2,107.6,97.7,104.1z"/>
	<path style="fill:#FFFFFF;" d="M101.5,102.4c0,0,3.1-0.9,3.7,0.5c0,0,0.3,2.6-0.5,3.6C104.7,106.5,101.7,104.1,101.5,102.4z"/>
	<path style="fill:#FFFFFF;" d="M113.1,99.7c0,0-1,0.3-1,1.3c0,0,0.6,2.3,2.6,2.3C114.7,103.4,116.2,99.5,113.1,99.7z"/>
	<path style="fill:#FFFFFF;" d="M115.7,99.7c0,0,0.2-0.5,2,0c0,0,1.7,0.4,1.9,1.8c0,0-0.7,0.3-3.6-0.7
		C116,100.8,115.4,100.5,115.7,99.7z"/>
	<path style="fill:#FFFFFF;" d="M118.9,99.1c0,0,0.5-0.3,1.5-0.3c0,0,1.8,1,2,1.8C122.3,100.6,121.2,100.8,118.9,99.1z"/>
	<path style="fill:#FFFFFF;" d="M121.2,98.4c0,0,0.5-1.4,1.1-1.4c0,0,2,0.4,1.8,2.8C124.1,99.7,121.6,99.2,121.2,98.4z"/>
	<path style="fill:#FFFFFF;" d="M139,108.4c0,0-1.1-2.7,0.8-2.1c0,0,3,1.1,3.8,2.1C143.6,108.4,140.1,108.9,139,108.4z"/>
	<path style="fill:#FFFFFF;" d="M141.9,106.2c0,0,0.5-1.5,1.8-1c0,0,2.9,1.4,3.3,3C147,108.2,142.7,107.7,141.9,106.2z"/>
	<path style="fill:#FFFFFF;" d="M145.6,105.3c0,0-0.5-0.9,1.1-0.9c0,0,3,1.1,2.4,3.1C149,107.4,146,106.5,145.6,105.3z"/>
	<path style="fill:#FFFFFF;" d="M157.6,101.5c0,0-0.7,0.8,0.4,2.4c0,0,0.8,0.6,1.5,0.6c0,0,0.7-2.7,0-3.4
		C159.4,101.1,157.8,100.9,157.6,101.5z"/>
	<path style="fill:#FFFFFF;" d="M160.4,100.6c0,0-0.5-0.4,1.1-0.4c0,0,2.4,0.1,3.4,1.7c0,0,0.3,0.7,0.2,1.5c0,0-4.6-0.7-4.8-1.9
		L160.4,100.6z"/>
	<path style="fill:#FFFFFF;" d="M163.2,99.7c0,0,0.1-0.9,1.9-0.5c0,0,2.1,0.5,2.1,1.9c0,0-0.1,1.4-0.2,1.7c0,0-2.5-2-2.5-2.4
		C164.5,100.4,163.4,100.4,163.2,99.7z"/>
	<g>
		<path class="gillsMove" style="fill:#F67379;" d="M147.5,44.3c0,0,1,11.3,8.6,18.4c0,0,6.3,6.7,8.9,7.5c0,0,6.8-0.4,7-6.2c0,0-1.3-3-4.5-4.2
			c0,0-7.3-4.2-9.6-7.1c0,0-6.1-6.3-6.9-8.5c0,0-1.6-5.7-2.7-5.7C148.4,38.6,147,38.2,147.5,44.3z"/>
		<path class="gillsMove" style="fill:#F67379;" d="M175.4,67.9c0,0,2.1,3.2,3.4,3.2c0,0,4.7,0.1,6.5-3.6c0,0,1.2-1.4-2.4-4.8c0,0-5.9-5-7-5.9
			c0,0-2.2-2.3-3.7-4.3c-0.6-0.8-1.1-1.6-1.5-2.4c-0.4-0.8-1.2-1.8-1.5,0.4c-0.2,1.4,0,2.8,0.4,4.1c0.8,2.4,2.3,6.5,3.4,8.5
			L175.4,67.9z"/>
		<path class="gillsMove" style="fill:#F67379;" d="M185.6,58.7c0,0,2.3,5.2,5.8,7.6c0,0,2.2,1.9,4.3,0c0,0,1.8-1.9,1.3-3.4c0,0-0.5-1.4-5.2-2.8
			c0,0-3.3-0.7-4.6-1.4C187.2,58.7,184.7,57,185.6,58.7z"/>
		<path class="gillsMove" style="fill:#F67379;" d="M196.6,58.7c0,0,2.1,4.2,4.3,4.4c0,0,2.5-0.1,3.2-1.9c0,0,0.9-1.9-1.9-2.5c0,0-2.3-0.3-4.2-0.8
			C198,57.9,195.6,57.1,196.6,58.7z"/>
	</g>
	<g>
		<path style="fill:#F3BABD;" d="M78.7,56.5c0,0,1.9,1.3,4,1.2c0,0,0.9-0.9,0.9-2c0,0-1-1.8-3.4-0.8C80.2,54.8,78.5,55.4,78.7,56.5z
			"/>
		<path style="fill:#F3BABD;" d="M85.9,57.7c0,0,0.5-2.6,2.3-2.5c0,0,3.2,0.6,3.2,2.5c0,0-0.2,1.5-3.5,1.2
			C87.9,58.8,85.9,58.8,85.9,57.7z"/>
		<path style="fill:#F3BABD;" d="M93.4,56.5c0,0,0.8-3.4,2.4-3.4c0,0,3.5,0.2,4,2.5c0,0,0.5,1.7-1.5,1.8
			C98.3,57.4,93.3,58.6,93.4,56.5z"/>
		<path style="fill:#F3BABD;" d="M102.4,54.5c0,0,0.5-2.8,2.7-1.7c0,0,2.2,1.6,2.2,3.3c0,0-0.6,1.6-3.7,1.6
			C103.6,57.7,101.9,57,102.4,54.5z"/>
		<path style="fill:#F3BABD;" d="M110,57c0,0-0.1-3.1,3.5-2.6c0,0,2.8,1.3,3,3c0,0,0.2,0.7-4.1,0.7C112.4,58.1,110.5,58.2,110,57z"
			/>
		<path style="fill:#F3BABD;" d="M120.7,58.1c0,0,1.7-1.9,3.4-1.9c0,0,2.8,0.7,3,2.7l-0.4,1.1c0,0-1.8,0.4-5.6-0.8
			C121.1,59.2,120.1,58.7,120.7,58.1z"/>
		<path style="fill:#F3BABD;" d="M130.7,60.1c0,0,1.1-2.9,3-1.5c0,0,2.3,1.3,2.4,2.8c0,0-0.3,0.6-1.9,0.4
			C134.1,61.9,131,61.3,130.7,60.1z"/>
		<path style="fill:#F3BABD;" d="M138.8,62.5c0,0-0.1-2.1,2-2.4c0,0,3.8,0.7,4.2,1.8c0,0,0.6,1.9,0,2C145,64,139.5,63.6,138.8,62.5z
			"/>
		<path style="fill:#F3BABD;" d="M148.6,64.6c0,0,0.2-2.7,2.1-2.7c0,0,2.6,0.8,4.2,3c0,0,1.1,1.1-1.1,1.1
			C153.8,66,149,66,148.6,64.6z"/>
		<path style="fill:#F3BABD;" d="M72.4,54.8c0,0,1.3-1,2.8-0.4c0,0,1.4,0.8,1,1.9c0,0-1.7,0.9-3.8,0C72.4,56.2,71.3,55.3,72.4,54.8z
			"/>
		<path style="fill:#F3BABD;" d="M65.8,52.8c0,0,3.2-0.1,3.5,0.5c0,0,0.6,1.2-0.3,1.3c0,0-3.1,0-3.3-0.5
			C65.8,54,64.9,52.8,65.8,52.8z"/>
		<path style="fill:#F3BABD;" d="M59.1,50.7c0,0,0.9,1.2,2.1,1.2c0,0,0.7-0.6,0.2-1.2C61.4,50.7,58.1,49.4,59.1,50.7z"/>
		<path style="fill:#F3BABD;" d="M52.6,49c0,0,0.6-1.1,2.1-0.6c0,0,1.3,0.8,1.3,1.4c0,0-1,0.9-2.6,0C53.3,49.8,52.5,49.6,52.6,49z"
			/>
		<path style="fill:#F3BABD;" d="M46.9,47.1c0,0,1.4-0.6,2.3,0c0,0,1,1.6,0.7,1.9c0,0-3-0.4-3-1.2C46.9,47.9,46.4,47.1,46.9,47.1z"
			/>
		<path style="fill:#F3BABD;" d="M39.6,45.1c0,0,1-1.1,1.8-0.6c0.9,0.6,1.4,1.1,1.4,1.4C42.8,46,42.2,46.7,39.6,45.1z"/>
		<path style="fill:#F3BABD;" d="M33.4,44c0,0-0.6-0.9,0.6-1c0,0,2.4-0.1,2.9,0.5c0,0,0.3,1-1,1C35.9,44.5,34.3,44.5,33.4,44z"/>
		<path style="fill:#F3BABD;" d="M27.6,43.5c0,0,0.6-0.9,1.9-0.9c0,0,1.3,0.3,1.4,0.9C30.9,43.5,29.2,44.4,27.6,43.5z"/>
		<path style="fill:#F3BABD;" d="M22.8,42.7c0,0,3.2-0.1,3-0.8c0,0-0.1-0.8-2.1-0.6C23.7,41.3,22.1,41.8,22.8,42.7z"/>
		<path style="fill:#F3BABD;" d="M18.7,42.3c0,0,1.9-0.2,1.8-1c0,0-1.1-1.2-2-0.3C18.5,41,17.4,42.3,18.7,42.3z"/>
		<path style="fill:#F3BABD;" d="M14.6,43.9c0,0,1.1-0.4,1-1.2c0,0-0.7-1.1-1.5,0c0,0-0.8,1.1-0.5,1.4
			C13.6,44.1,14.1,44.5,14.6,43.9z"/>
		<path style="fill:#F3BABD;" d="M60.7,48.3c0,0,1.2-0.4,2,0c0,0,0.8,1.1,0.5,1.2c0,0-2.5,0.1-2.5-0.6C60.7,49,60.2,48.2,60.7,48.3z
			"/>
		<path style="fill:#F3BABD;" d="M66.3,50.1c0,0,0.8-1.1,1.5-0.9c0,0,1.3,0.5,1.3,1.3c0,0-0.9,0.6-1.9,0.3
			C67.3,50.7,66.6,50.4,66.3,50.1z"/>
		<path style="fill:#F3BABD;" d="M73,50.7c0,0,0.7-1.2,1.9-0.7c0,0,1.2,0.4,1.2,1.3c0,0-0.1,1-1.6,0.7C74.6,51.9,72.8,51.6,73,50.7z
			"/>
		<path style="fill:#F3BABD;" d="M79.8,50.9c0,0,0.6-1.2,1.6-1.2c0,0,1.8,0.3,2.2,0.9c0,0-0.2,1.2-1.2,1.2c0,0-1.7,0.2-2.2,0.2
			C79.6,52,79.5,51.4,79.8,50.9z"/>
		<path style="fill:#F3BABD;" d="M86.7,50.7c0,0-0.5-1.2,0.9-1.9c0,0,1.7-0.3,2.6,0.3c0,0,0.3,1.5,0,1.8
			C90.2,50.8,87.5,51.2,86.7,50.7z"/>
		<path style="fill:#F3BABD;" d="M95.7,48.5c0,0,0.3-1.9,2-1.9c0,0,2.2-0.1,2.7,1c0,0,0.2,1.9-1.1,2c0,0-3.1,0.3-3.6,0
			C95.7,49.5,95.4,49.2,95.7,48.5z"/>
		<path style="fill:#F3BABD;" d="M104.2,47.4c0,0,1-1.6,3-1c0,0,2,1.2,2,1.9c0,0-0.7,1.9-2.8,1.5c0,0-3-0.3-3.1-1
			C103.3,48.8,103.5,48.1,104.2,47.4z"/>
		<path style="fill:#F3BABD;" d="M113.6,49.9c0,0,0.7-1.2,2.2-1.2c0,0,2.5,0.8,2.6,1.7c0,0-0.7,1.7-2.4,1.3
			C116,51.6,113.4,51.8,113.6,49.9z"/>
		<path style="fill:#F3BABD;" d="M123.5,50.9c0,0,0.7-1,2.4-1c0,0,2.6,0.6,2.8,1.2c0,0-0.3,1.4-2.1,1.4c0,0-2.7,0.1-3.1-0.5
			C123.5,52.1,123,51.1,123.5,50.9z"/>
		<path style="fill:#F3BABD;" d="M133.8,52.7c0,0,0.2-1.2,2.2-1c0,0,1.7,0.5,2.2,1.3c0,0-0.2,1.3-1.8,1.4c0,0-3,0.2-3.2-0.2
			C133.2,54.1,133.2,53.4,133.8,52.7z"/>
		<path style="fill:#F3BABD;" d="M144.4,53.7c0,0-0.7,1.4,1.1,2.5c0,0,2.4,0.6,2.4-0.8c0,0-0.3-1.9-1.5-2.4
			C146.4,53,144.8,52.8,144.4,53.7z"/>
		<path style="fill:#F3BABD;" d="M80.8,46.6c0,0-1.2-1.6,0.5-1.6c0,0,2.6,0,2.7,0.6c0,0,0.4,1.6-0.5,1.6
			C83.6,47.2,81.1,47,80.8,46.6z"/>
		<path style="fill:#F3BABD;" d="M88.6,44.5c0,0,1.2-2.2,2.3-2.1c0,0,1.3,0.1,1.3,0.9c0,0-0.7,1.6-1.8,1.7
			C90.4,45,88.3,45.8,88.6,44.5z"/>
		<path style="fill:#F3BABD;" d="M98,41c0,0,1.3-1,2.7-0.8c0,0,1.7,0.5,1.7,1.2c0,0-0.4,1.6-2.2,1.4c0,0-2.1-0.2-2.6-0.8
			C97.6,42,97.5,41.1,98,41z"/>
		<path style="fill:#F3BABD;" d="M107,41.8c0,0,0.6-1.5,1.8-1.5c0,0,2.4,0,2.7,0.5c0,0,0.4,1.5-1,1.9c0,0-1.9,0.7-3.2,0.2
			C107.2,43,106.4,42.6,107,41.8z"/>
		<path style="fill:#F3BABD;" d="M116.4,43.2c0,0-0.4-1.5,1.3-1.4c0,0,2-0.1,2.5,1c0,0-0.1,1.9-0.9,2
			C119.3,44.8,117,45.4,116.4,43.2z"/>
		<path style="fill:#F3BABD;" d="M127.5,42.5c0,0,2.3-0.3,3.3,0.4c0,0,1.5,1.5,1.3,2.5c0,0-1.7,1.1-4.2-0.2
			C127.8,45.2,125.3,43.3,127.5,42.5z"/>
		<path style="fill:#F3BABD;" d="M138,45.1c0,0-0.1-1.2,1.8-1.1c0,0,2.5,0.2,2.8,1.8c0,0-0.1,1.8-1.5,2c0,0-1,0.1-2.6-1.2
			C138.5,46.6,138,45.9,138,45.1z"/>
		<path style="fill:#F3BABD;" d="M164.8,52.6c0,0-0.1-2-1.4-2.1c0,0-1.3-0.3-2,0.5c0,0-0.4,1.3,0.6,2.1c0,0,1.4,1,2.3,0.8
			C164.4,53.8,165,53.4,164.8,52.6z"/>
		<path style="fill:#F3BABD;" d="M156.2,45.2c0,0,0.2-0.8,0-1.6c0,0-0.6-0.9-1.8-0.9c0,0-1.2,0.3-0.9,1.3c0,0,1.5,2.1,2,2.2
			C155.6,46.2,156.2,46.2,156.2,45.2z"/>
		<path style="fill:#F3BABD;" d="M141.8,37.9c0,0,1.6-0.3,2.9,0.7c0,0,1.4,1.3,1.4,2.2c0,0-0.7,1.2-2.4,0.6c0,0-2-1.2-2.2-2
			C141.5,39.4,140.8,37.9,141.8,37.9z"/>
		<path style="fill:#F3BABD;" d="M131.4,37.1c0,0,0.1-0.9,1.8-0.6c0,0,1.8,0.6,2,1.3c0,0,0.8,1.5-0.7,1.5c0,0-1.9,0.1-2.5-0.6
			C132,38.7,131.3,37.9,131.4,37.1z"/>
		<path style="fill:#F3BABD;" d="M121.1,35.3c0,0-0.2-1.1,1-1.2c0,0,2.6-0.3,3.3,0.4c0,0,1.2,1,0,1.6c0,0-2.6,0.6-4.1,0L121.1,35.3z
			"/>
		<path style="fill:#F3BABD;" d="M110.8,35c0,0,0.7-1.4,2.3-1.4c0,0,1.6-0.5,2.6,0.7c0,0-0.1,1.5-1.6,1.5
			C114.1,35.8,111.1,36.5,110.8,35z"/>
		<path style="fill:#F3BABD;" d="M99.4,36.8c0,0-0.4-0.9,1.3-1.5c0,0,2.5-1,3.4-0.5c0,0,0.8,0.8,0.2,1.6c0,0-2.2,2.1-3.7,1.5
			C100.7,37.9,99.3,37.4,99.4,36.8z"/>
		<path style="fill:#F3BABD;" d="M135.2,32.1c0,0,2.1-0.9,3-0.2c0,0,2.1,1,2.1,2c0,0-0.3,1.6-1.8,1.4c0,0-2.7-1.3-3.3-1.7
			C135.2,33.5,134.1,32.5,135.2,32.1z"/>
		<path style="fill:#F3BABD;" d="M148.3,34.7c0,0,3.4,0.8,3.9,1.6c0,0,1,1.8-0.2,1.8c0,0-2.7,0-3.6-1.3
			C148.3,36.9,147.1,34.4,148.3,34.7z"/>
		<path style="fill:#F3BABD;" d="M158,40.2c0,0,2.1-0.4,2.8,0.8c0,0,1,1.9,1,2.4c0,0-0.6,1.4-3.2-1.4
			C158.5,42.1,157.3,40.7,158,40.2z"/>
		<path style="fill:#F3BABD;" d="M166,46.2c0,0-1.1,1.3,0,2.5c0,0,1.4,1.4,2.3,0.5c0,0,0.3-1.9-0.6-3
			C167.7,46.2,166.4,45.5,166,46.2z"/>
	</g>
	<path style="fill:#FFFFFF;" d="M218.3,60.4c0,0-1.6-2-5.1-0.7c0,0-1.6,1.4-0.7,2.6c0,0,0.9,1.9,4.5,0.3
		C217,62.5,219.1,61.8,218.3,60.4z"/>
	<path d="M214.3,60.1c0,0-0.7,3.3,1,2.6c0,0,2.1-0.6,1.9-2.6C217.2,60.1,215.7,58.8,214.3,60.1z"/>
</g>
</svg>
