<?xml version="1.0" encoding="utf-8"?>
<!-- Generator: Adobe Illustrator 21.1.0, SVG Export Plug-In . SVG Version: 6.00 Build 0)  -->
<svg version="1.1" id="Calque_1" xmlns="http://www.w3.org/2000/svg" xmlns:xlink="http://www.w3.org/1999/xlink" x="0px" y="0px"
	 viewBox="0 0 328 184" style="enable-background:new 0 0 328 184;" xml:space="preserve">
<g>
	<path style="fill:#061F3F;" d="M18.1,62c0,0,19.7-1,24.5,0c0,0,16.6,5.8,23.4,10.9c0,0,34,14.9,46.2,14.9c0,0,32.6,5.4,39.4,13.6
		c0,0,5.1,10.9,4.1,13.3c0,0-3.4,8.8-7.5,11.6c0,0-2.7,4.4-2,8.5c0,0-0.1,4.3-2.3,5c0,0-1.4,3.3,0.7,5.9c0,0,2.6,7,1.8,12.7
		c0,0-1.4,9.3,8.3,10.3c0,0,8.9-0.8,11.1-0.7c0,0-0.7-2.2,2.6-1.9c0,0,3.1-1.2,0-3c0,0-4.4-0.1-5.9-2.2c0,0-4.8-3.1-4.9-10.1
		c0,0-1.5-8.2,2.1-12c0,0,6.8-10.3,12-15c0,0,4.5-4,4.5-8.5c0,0,6.6,0,7.8,1.8c0,0,1,4.8-0.8,9.4c0,0-1.2,6.2-7,11.6
		c0,0-3.7,2.9-0.8,8.5c0,0,3.4,4.8,3.1,8.8c0,0-2.6,2.9-2.1,5.3c0,0,0.3,2.9,3.8,2.9c0,0,4.1,0.5,7.9,2.9c0,0,4.8,1.6,8.2-1.4
		c0,0,2.3-3.3,4-2.9c0,0,0.8-2.2-2.9-3c0,0-2.9-0.1-6.4-1.1c0,0-2.7-1.6-3.3-6.2c0,0-1.4-5.7,0.5-7.4c0,0,2.1-5.2,12.1-12.4
		c0,0,5.8-6,5.7-14.2c0,0,0.1-8.3,0-10.7c0,0,1.1-1.2,1.8,0.1c0,0,0.1,3.7,2.1,5.7c0,0,6.7,9.3,8.1,11.9c0,0,2.1,1.1,5.3,0.7
		c0,0,3.8,1,5.9,4.8c0,0-0.2,1.9,0.5,2c0,0,1.3,0.2,1.5-1.8c0,0,0.7-2.8-0.3-4.6c0,0-1.6-1.8-3.4-2.5c0,0,1.4-0.6,2.3-0.5
		c0,0,3.3,0.2,4.6,1.7c0,0,1.5,1.1,1.5,2c0,0,0.8-0.1,0.8-1.5c0,0,0.4-2.5-2.1-4.4c0,0-1.8-1.5-5.9-1.3c0,0,0.5-1.4,3.4-1.8
		c0,0,1.4-0.2,2.7-0.1c0,0,2,0.2,2,0.9c0,0,1.9,0.5,0-2.5c0,0-1.5-3.1-6.6-1.9c0,0-3.9,0.2-5.8,3.1c0,0-1.7,1.7-3.7-1.4l-4.7-7.1
		c0,0-2.1-2.4,1-4.9c0,0,3.4-2.1,5.2-2.1c0,0,1.4-1,0.8,2.5c0,0-0.8,3.1,0.7,4.5c0,0,6.6,6.5,7.6,7c0,0,4.9,2.6,9.3,2.5
		c0,0,5.8-0.5,7-0.3c0,0,1.9,0.1,3,2.8c0,0,1.1,1.3,1.1,2.3c0,0,0.7,2.3,1.5-0.5c0,0,1.1-1.9,0-4.1c0,0-0.8-1.9,0.8-1.1
		c0,0,1.7,0.2,1.7,1.7c0,0,0.2,1.3,0,1.8c0,0,0.8,0.6,1.1-1.4c0,0,0.9-2.5,0-3.7c0,0-1.7-2.5-4.5-3c0,0,0.3-1.1,2.4-0.8
		c0,0,1.2,0.6,1.8,1.8c0,0,1.1,0.4,0.5-1.6c0,0-0.2-1.8-2.7-2.6c0,0-3.7-1.5-5.9-0.3c0,0-3.1,1.2-4,2.2c0,0-1.6,0.9-3.6-0.9
		c0,0-8.4-4.7-8.4-5.5c0,0-0.6-1.7,1-2.9c0,0,10-9.8,11.4-15.7c0,0,1.5-4.9,7.8-9c0,0,9.7-8.1,10.7-13.9c0,0,0.6-3,4.7-1.9
		c0,0,4.6,1.2,12.2,9.4c0,0,6,6.1,13.5,5.6c0,0,5.3-1.1,8.2-5.3c0,0,5,0.3,6.1,0c0,0,4.5-3.6,6-9.9c0,0,0.8-8.1-1.4-12.2
		c0,0-10.6-12.1-15.2-14.5c0,0-4.3-4.5-5.1-8.5c0,0-1-5.3-9-4.6c0,0-3.7-0.5-4.3-1.9c0,0-8.1-4.4-17.5-1.4c0,0-10.5,3.7-16.1,9.6
		c0,0-6.1,8.1-9.2,14.9c0,0-2.1,5.7-3.5,5.9c0,0-3.3,2-9.7-0.2c0,0-3-2-6.2-4.6c-8.1-6.4-18.2-9.7-28.6-9c-0.2,0-0.4,0-0.6,0
		c0,0-19.5-0.5-33.1,5.8c0,0-15,9.2-22.6,11.2c0,0-18.4,6.7-22,8.1c0,0-7.5,3.3-33.2,3.1c0,0-11.8-0.8-25.8-7.3
		c0,0-10.2-2.7-22.9,1.6c0,0-5,1.4-8.5,2.6C19.2,59.9,15.6,62.1,18.1,62z"/>
	<path style="fill:#FFFFFF;" d="M275.2,28.1c0,0-2.2,0.9-2.2,2.6c0,0-0.7,3.2,1.1,4c0,0,2.2,0.6,3.1-1.2c0,0,0.9-0.9,0.9-2.5
		c0,0,0.1-2.9-1.4-2.9H275.2z"/>
	<path style="fill:#031E43;" d="M274.7,29.3c0,0-1-0.1-1.2,0.7c0,0-0.6,2.1-0.3,2.6c0,0,0.1,1,0.7,1c0,0,1.5,0.1,1.7-0.6
		c0,0,0.2-1.7,0.1-2.6C275.7,30.5,275.7,29.4,274.7,29.3z"/>
	<path style="fill:#031E43;" d="M305.3,61.9c0,0,0.3-1.4-1-2.9c0,0-1.8-1.2-2.7,0c0,0-0.7,0.7,0.7,2.4c0,0,1.2,2.1,2.1,2.1
		C304.5,63.4,305.3,63.7,305.3,61.9z"/>
	<path style="fill:#F3BABD;" d="M275.1,56.4c0,0,7.2,5.6,8.9,7.6c0,0,5.4,6.1,9.1,7.3c0,0,3.1,1.1,5.3,0c0,0-0.6-2.2-2.3-3.5
		c0,0-6.7-4.6-8.2-5.5C288,62.3,279.8,57,275.1,56.4z"/>
	<path style="fill:#89C6B7;" d="M153.8,166.4c0,0,2.4,1.1,2.3,3.7c0,0,2.4-1.1,1.4-3.3c0,0-0.7-1.6-2.1-1.9
		C155.4,164.8,153.8,164.7,153.8,166.4z"/>
	<path style="fill:#89C6B7;" d="M161.5,165.4c0,0,2.4,1,2.7,3.5c0,0,2.4-3.4,0.5-4.1c0,0-1.3-0.4-2.4-0.6
		C162.3,164.2,161,164.6,161.5,165.4z"/>
	<path style="fill:#89C6B7;" d="M166.3,164.5c0,0,2.7,1.8,3,2.4c0,0,1-2.4-0.8-3C168.5,163.9,165.8,163.6,166.3,164.5z"/>
	<path style="fill:#89C6B7;" d="M191,164.6c0,0,0.6-1.4,1.6-1c0,0,1.7,0.3,1.9,1.8c0,0,0.3,1.8,0,2.5C194.5,167.9,191,166,191,164.6
		z"/>
	<path style="fill:#89C6B7;" d="M194.6,163c0,0-0.4-1.7,1.2-1.5c0,0,1.6,0.3,2.7,2.1c0,0,0.5,1.3,0.5,2.4c0,0-2.9-1.6-3.4-2
		C195.6,164,194.9,163.4,194.6,163z"/>
	<path style="fill:#89C6B7;" d="M198.1,161.1c0,0,0.3-0.6,1.2-0.5c0,0,1.7-0.1,2.2,0.8c0,0,0.6,0.8,0.6,1.2
		C202.2,162.5,199,162,198.1,161.1z"/>
	<path style="fill:#89C6B7;" d="M229.1,132.8c0,0,0.2-1,0.2-2.1c0-0.8-0.2-1.6-0.4-2.4c0,0,0.5-0.5,1.4-0.2c0,0,1.4,0.4,0.9,2.4
		C231.2,130.6,231,132.8,229.1,132.8z"/>
	<path style="fill:#89C6B7;" d="M234.7,124.2c0,0-1.1-2.5,0.4-1.7c0,0,0.9,0,1.5,1.7c0,0,0.2,2.3-0.5,3.6
		C236.1,127.8,236,126,234.7,124.2z"/>
	<path style="fill:#89C6B7;" d="M235,116.3c0,0,1.2-0.9,1.9-0.3c0,0,1.3,1.2,1.1,3c0,0-2-0.5-2.5-1.6
		C235.5,117.4,235.2,117,235,116.3z"/>
	<path style="fill:#89C6B7;" d="M251,119.8c0,0,0.6-1.3,1.9-0.4c0,0,0.9,0.9,0,3.6c0,0-0.8,0.9-1.2,1.4c0,0-0.3-2-0.7-2.6
		C251,121.8,250.5,120.7,251,119.8z"/>
	<path style="fill:#89C6B7;" d="M254.8,117.3c0,0-0.3-1.8,1-1.4c0,0,0.7,0.1,1,1.2c0,0-0.2,3.4-1.6,4.8c0,0,0.1-2.5-0.3-3.7
		C255,118.3,254.9,117.9,254.8,117.3z"/>
	<path style="fill:#89C6B7;" d="M254.4,111.8c0,0-0.2-0.8,0.6-1c0,0,0.7-0.2,1.2,0.2c0,0,0.9,0.8,1,2.2c0,0,0.1,1.1,0,1.6
		c0,0-1.2-0.9-1.4-1.3c0,0-0.5-0.8-0.9-1.2C254.9,112.4,254.6,112.2,254.4,111.8z"/>
</g>
</svg>
