<?xml version="1.0" encoding="utf-8"?>
<!-- Generator: Adobe Illustrator 21.1.0, SVG Export Plug-In . SVG Version: 6.00 Build 0)  -->
<svg version="1.1" id="Calque_1" xmlns="http://www.w3.org/2000/svg" xmlns:xlink="http://www.w3.org/1999/xlink" x="0px" y="0px"
	 viewBox="0 0 542 414" style="enable-background:new 0 0 542 414;" xml:space="preserve">
<g>
	<path style="fill:#27423D;" d="M9.8,19.2l13.2,1c0,0,3.2-0.2,4-2.3c0.2-0.7,0.5-1.3,0.9-1.9c1.2-1.6,3.7-4.6,6.1-4.6
		c0,0,11.3-2.1,13.4,6.1c0,0,26.2,15.9,34,30.8c0,0,26,36.1,31.2,57.9c0,0,9.2,38.6,20.3,48c0,0,23.1,30.2,46.1,28.7
		c0,0,61-1.3,80.1,7.1c0,0,34.4,13.8,56.4,30c0,0,28.5,19.7,34.6,34.2c0,0,26.6,31.5,30.8,38.8c0,0,18,27.7,45.3,33.8
		c0,0,13.4,7.3,43.6,4.4c0,0,31.9-4.6,40.3-5.7c0,0,14-2.5,21.2,2.7c0,0,6.1,5.7-1.9,4.8c0,0-10.7-3-18.7,0.1
		c0,0-33.8,10.8-44.2,10.4c0,0-45.1,3.4-71.9-8c0,0-35.6-18.5-45.5-17.6l-16.8-0.1c0,0-4.2,10.1-6.2,13.2c-1.2,1.8-2,3.7-2.1,5.8
		c-0.1,2.2,0.3,5.1,2,8.2c0,0,4.5,5.6,4.4,19.8c0,0-0.7,20,0.3,23.4c0,0,3.3,8.3,0.5,11.7c0,0-4,2.3-8.6,1.9c0,0-17.6-0.8-19.9-0.5
		c0,0-16.8-0.8-17-0.3s-1.5-2.5,1.5-3.8c0,0,11.9-9.4,12.1-11.7c0,0,2-3.7-0.4-10.5c0,0-8.5-26.6-10.2-31.1c0,0-4.5-8.6-4.9-11.6
		c0,0-0.7-5.9,0-11.1c0,0-14.3,6.4-41.7,1.4c0,0-17.9-6-24.5-11c0,0,1.7,30.2-0.5,40.5c0,0-1.9,18.6-2.4,27.9c0,0,0,9.5,0.5,13.3
		c0,0,0.5,4.8-4.3,8.6c0,0-7.6,1.9-16,2.1c0,0-9.5-0.4-13.6,0c0,0-8.3,0.3-10.7-1c0,0-3.3-2.4-0.3-4.7c0,0,12-7.9,14.6-11
		c0,0,3.6-2.1,3.9-10.6c0,0-5.5-34.5-5.5-39.4c0,0-5.4-22.1-5.4-29.4c0,0-9.7-21-8.5-30.4c0,0-9.7-3.8-19.5-19.5
		c0,0-28.7-15.5-37.2-43.3c0,0-18.4-55.8-20.5-60.3c0,0-17.7-57.7-20.7-62.4c0,0-14.4-36.5-37.2-52.3c0,0-7.6-4.2-12.8-3.6
		c0,0-7.8,0.9-9.9-0.1c0,0-1.9-2.2-1.9-4c0,0,0.5-1.2,4.1-1.9c0,0,6.6-0.6,8.9,0.2c0,0,4.1,1,4.1,0.1c0,0,0.9-0.9-3.1-2.3
		c0,0-8.7-2-12.7-1.5c0,0-4.4,0.2-4.5-2C6.6,24.7,5.1,18.8,9.8,19.2z"/>
	<g>
		<path d="M9.2,21.7c0,0-1.9,1-1.2,1.7c0,0,1.8,0.2,2.1-0.6C10.2,22.8,10.2,21.7,9.2,21.7z"/>
		<path style="fill:#FFFFFF;" d="M32.7,20.7c0,0,0.5-2.3,3.8-1.1c0,0,2.9,0.6,2.9,2.7c0,0-1.1,3.8-4,2C35.4,24.3,32,23,32.7,20.7z"
			/>
		<path d="M33,21.5c0,0,0-1.1,1.8-1.5c0,0,1.7-0.1,1.7,1.2c0,0,0.2,2.3-1.2,2.3C35.3,23.5,33.1,23.6,33,21.5z"/>
		<path style="fill:#27423D;" d="M157.4,262.5c0,0,0,18.6,3.8,21.6c0,0-3.8,21.9,0,32.8c0,0,1,7.1-5.6,8.9c0,0-14.4,8.3-18.3,26.4
			c0,0-3.6,12.1-5.8,12.6c0,0-4,6.4-3.1,10.7c0,0,6.1,6.2,15.6,3.3c0,0,2.5,2.6,6.7-1.2c0,0,10.7-8.6,10.6-9.3c0,0,1.4-5.4,0.6-9.2
			c0,0-1.9-4.4,23.7-25.1l-7.6-46.5l-10.1-24.1L157.4,262.5z"/>
		<path style="fill:#27423D;" d="M340.5,314c0,0-0.9,11.4-3.6,15.1c0,0-3.7,6.5-1.1,9.5c0,0,10.3,11.4,13.2,21.8c0,0,1.4,10,4,11.8
			c0,0,4,4.4,3.9,8.2c0,0,0.2,5.1-5.1,7c0,0-9,1.9-10,4.7c0,0-6.5,7-12,6.5c-5.4-0.5-9-66.9-9-66.9l6.1-18.8L340.5,314z"/>
		<g>
			<path style="fill:#FFFFFF;" d="M127.4,372.4c0,0,4.6-0.6,5.2,1.3c0,0-0.2,4.6-1.5,5.5c0,0-2.3,0.9-2.8-0.9
				C128.3,378.3,126.3,372.5,127.4,372.4z"/>
			<path style="fill:#FFFFFF;" d="M131,375.4c0,0,4.3-1,5,1.1c0,0,0.6,5.4-0.8,6.2c0,0-2.5,0-3.2-1.4
				C132,381.2,129.4,375.6,131,375.4z"/>
			<path style="fill:#FFFFFF;" d="M137,376.3c0,0,2.1-1.1,4.5,0.7c0,0,1.3,2.9,0,4.8c0,0-1.7,2.9-3,0.8
				C138.5,382.7,135.2,377,137,376.3z"/>
			<path style="fill:#FFFFFF;" d="M144.3,377c0,0,2-1.9,4.2-0.6c0,0,1.5,2.1-0.5,4.7c0,0-1.8,2.1-2.6,0.9
				C145.4,382,143.6,378.3,144.3,377z"/>
			<path style="fill:#FFFFFF;" d="M175.9,403.7c0,0,1.8-4.4,3.4-4.4c0,0,2.2-0.6,2.9,1.4c0,0,0.9,2.8,0,3.5
				C182.2,404.2,176,404.9,175.9,403.7z"/>
			<path style="fill:#FFFFFF;" d="M177.5,399.5c0,0-0.9-2-2.2-2c0,0-4.5,3.2-3.7,5.7c0,0,3.5,1.3,5.5,0.2
				C177.1,403.4,177.6,400.9,177.5,399.5z"/>
			<path style="fill:#FFFFFF;" d="M174.1,397.5c0,0-0.7-1-2.2,0c0,0-3.6,2.6-2.3,4.5c0,0,0.8,0.9,2,1.2c0,0,3.6-3.3,3.7-4.5
				L174.1,397.5z"/>
			<path style="fill:#FFFFFF;" d="M293.4,400.6c0,0,3.3-4.5,4.4-4.2c0,0,2.6,1.7,2.6,3.2c0,0-0.2,1.3-2.1,1.5
				C298.3,401,292.6,401.6,293.4,400.6z"/>
			<path style="fill:#FFFFFF;" d="M288.9,400.6c0,0,3.6-4.1,4.7-4.2c0,0,2.3,0.5,2.2,1.3c0,0-0.2,3.4-3.5,3.4
				C292.4,401.1,288.3,401.3,288.9,400.6z"/>
			<path style="fill:#FFFFFF;" d="M291.8,397.1c0,0-0.8-2-2.2-1.5c0,0-3.9,2.3-3.8,4.3c0,0-0.5,1.4,3.2,0.8
				C288.9,400.6,292,398.6,291.8,397.1z"/>
		</g>
		<g>
			<path style="fill:#89C6B7;" d="M182.6,278.2c0,0,2.3-6.5,6.3-6.5c0,0,6.7,0,5.4,7.7c0,0-3,9.6-5.8,10.3c0,0-5.3-0.4-5.9-4.8
				C182.6,284.9,181.7,280,182.6,278.2z"/>
			<path style="fill:#89C6B7;" d="M203.1,267.5c0,0,5.9,18.4,8,19.7c0,0,8.2,6.7,7.3-4.6c0,0-3.1-16.1-6.5-16.5
				C211.9,266,201.5,262.7,203.1,267.5z"/>
			<path style="fill:#89C6B7;" d="M202.9,294.7c0,0,1.6,9.2,5.2,8.4c0,0,1.7-5.4,0-8.4C208.1,294.7,202.2,291.6,202.9,294.7z"/>
			<path style="fill:#89C6B7;" d="M194.4,303.1c0,0,3.4-3,1.9-6.5c0,0-3.6-3.6-3.8,1.6C192.6,298.2,191.5,303.8,194.4,303.1z"/>
			<path style="fill:#89C6B7;" d="M199.7,316.7c0,0-4.2,6.9,1.9,11.3c0,0,3.1,0.4,3.1-2.1c0,0,1.3-7.1-1.8-8.2
				C202.9,317.7,201.3,315.8,199.7,316.7z"/>
			<path style="fill:#89C6B7;" d="M306.2,340c0,0,0.3-6.5,5-3.2c0,0,1.5,2.3,0,7.4c0,0-2.3,4.8-3.4,4.7
				C307.7,349,305.1,347.6,306.2,340z"/>
			<path style="fill:#89C6B7;" d="M293.9,333.8c0,0,0.6-4,3.9-3c0,0,2.6,1.7,1.9,7.2c0,0-0.4,3.3-2.8,3.2
				C296.9,341.1,294.1,337.8,293.9,333.8z"/>
			<path style="fill:#89C6B7;" d="M296,310.8c0,0,1.1-4.8,4.5-3.7c0,0,5.1,2.3,2.2,10.1c0,0-1.3,8.4-2.9,8.4c0,0-4.5-6.2-3.8-9.3
				C296,316.3,295.5,312.4,296,310.8z"/>
			<path style="fill:#89C6B7;" d="M295.8,291c0,0,2.6,4.1,5.9,4.3c0,0,3-1.4,3-6.5c0,0-3-9.2-1-9.4c0,0,3.1-1,2.8-8.3
				c0,0,0-5.5-2.8-7c0,0-7.9-2.8-10.4,2.2c0,0-3.3,5.8-2.5,11.6C290.8,277.9,293.1,288,295.8,291z"/>
			<path style="fill:#89C6B7;" d="M320.9,279.3c0,0-5,1.5-2,9.3c0,0,0.6,3.4,4.3,3.4c0,0,2.8-1.2,2.8-6.4c0,0-0.2-6.6-4-6.4H320.9z"
				/>
			<path style="fill:#89C6B7;" d="M313.2,295.3c0,0,4.6-2.2,4.8,3.4c0,0-0.9,4.2-2.4,5.8c0,0-3-2.5-3.7-4.2
				C311.9,300.3,311,295.7,313.2,295.3z"/>
			<path style="fill:#89C6B7;" d="M319.8,270.6c0,0,6.1,1.9,6.3-2.9c0,0-0.6-6.8-2.4-10c0,0-1.7-3-3.3,1.3
				C320.3,259.1,315.9,268.6,319.8,270.6z"/>
			<path style="fill:#89C6B7;" d="M288.9,254.4c0,0,5.6,1.7,7.8-2c0,0,2.2-5.5,1.8-8.8c0,0-0.1-3.9-4.1-3.8c0,0-4.5,1.2-4.5,4.8
				c0,0,0.6,4.2-1,4.3C288.9,248.9,282.3,251.1,288.9,254.4z"/>
			<path style="fill:#89C6B7;" d="M260.4,240.4c2.1,1.1,6.2,3.7,7.4,6.5c0.4,1,1,1.9,1.9,2.6c1.6,1.1,4,1.5,5.5-4.4
				c0,0,1.2-6.7-2.2-10c0,0-4.9-5.2-10.6-3.2c0,0-3.2,1.6-3.9,4.2C258.1,237.9,259,239.6,260.4,240.4z"/>
			<path style="fill:#89C6B7;" d="M249.6,246.3c3.4,5.8-3.8,7.4-3.8,7.4c-5.5,0.3-9.9-7.9-9.9-7.9c-5.2-3.6-4.1-10.9-3.6-13.5
				c0.2-0.8,0.5-1.5,1.1-2.1c1.1-1.1,2.7-1.4,4.3-1.3c4.7,0.3,7.8,4.2,8.4,9.1c0,0,0,0,0,0C246.2,238.2,248.2,243.9,249.6,246.3z"/>
			<path style="fill:#89C6B7;" d="M247.4,207.7c0,0-1.7,8.3,3.1,12.1c0,0,7.2,4.7,13.6,3.7c0,0,1.4-0.5,1.8-2.7
				c0.3-2.1-0.5-4.1-2-5.6c-0.4-0.4-0.9-0.8-1.3-1.2c-1.3-1.1-2.4-2.4-3.3-3.8c-0.9-1.4-2.3-2.9-4.1-3c-0.5,0-1.1-0.1-1.6-0.2
				C251.7,206.7,247.6,206.1,247.4,207.7z"/>
			<path style="fill:#89C6B7;" d="M282.4,229.9c0,0-3-7.4,0.2-8.3c0,0,3.7-1.6,4.6,1.8c0,0,1.6,4.8,0.2,5.8
				C287.5,229.2,284.3,231.8,282.4,229.9z"/>
			<path style="fill:#89C6B7;" d="M232.6,220c0,0-5.4-2.4-4.2-8.1c0,0,0.4-3.7,3.5-4.1c0,0,3.8-0.5,4.2,2.6c0,0,1.5,5.3,0,7.7
				C236.1,218.1,235,220.4,232.6,220z"/>
			<path style="fill:#89C6B7;" d="M196.6,216.3c0,0,1.4,5.2,5.8,6.7c0,0,5.3,2.2,4.3-5c0,0-0.8-6.5-3.7-8c0,0-2.2-2-0.8-4.1
				c0,0,1.6-4.1-2.3-3.8c0,0-3.4,0.7-3.4,3.8C196.6,205.9,195.7,214.2,196.6,216.3z"/>
			<path style="fill:#89C6B7;" d="M210.6,208.3c0,0-2,5.7,4.6,8.4c0,0,2.9,1.2,3.8-0.8c0,0,0.5-2.9,0.3-4.9c-0.1-0.7-0.5-1.3-1-1.8
				C216.5,208,211.8,205.1,210.6,208.3z"/>
			<path style="fill:#89C6B7;" d="M203.1,191.8c0,0,2.3-1,4.8-0.7c1.6,0.2,2.9,1.3,3.3,2.8c0.4,1.4,0.4,3.3-0.9,5.3c0,0-3.1,2.6-6,0
				C204.4,199.1,199.1,194,203.1,191.8z"/>
			<path style="fill:#89C6B7;" d="M189.6,195.6c0,0,0.5-3.6,4.1-3.6c0,0,4.1,0.1,4.2,1.8c0,0,0.1,4.7-1.7,6c0,0-4.1,1.7-5.4-1.2
				C190.9,198.6,189.4,196.5,189.6,195.6z"/>
			<path style="fill:#89C6B7;" d="M218.4,197.5c0,0,7.4,1.1,8.5,2.7c0,0,4.7,2.9,8.5,0c0,0,3.6-2,2.5-6.5c0,0-3.1-4.5-9.7-3.4
				c0,0-4,0.6-8.9,1.7C219.4,192,213.9,195.2,218.4,197.5z"/>
			<path style="fill:#89C6B7;" d="M247.2,194.6c0,0,5.5-1.8,7.7,0c0,0,4.1,3.1,3.6,5.1c0,0-5.5,2.6-7.9,0.6
				C250.5,200.3,243.7,195.4,247.2,194.6z"/>
			<path style="fill:#89C6B7;" d="M312.4,233.7c0,0-3.8,1.8,0,4.7c0,0,3.1,2,4.2,0c0,0,1.3-3.8,0-4.7
				C316.6,233.7,314,232.1,312.4,233.7z"/>
			<path style="fill:#89C6B7;" d="M292.3,216.5c0,0,6-2.9,9.4,0c0,0,2.4,0.7,2.2,6.8c0,0-0.3,5.3,0,7.3c0,0,0.3,4.5-3.8,0.9
				c0,0-2.9-2.7-7.8-10.3C292.3,221.2,289.9,217.4,292.3,216.5z"/>
			<path style="fill:#89C6B7;" d="M274.3,204c0,0-1-1.7,2.8-1.9c0.3,0,0.5,0,0.8,0.1c0.9,0.2,2.9,0.9,4.6,2.8
				c0.1,0.2,0.3,0.3,0.4,0.5c0.4,0.7,1.2,2.6,0.9,4.8c-0.1,1-0.9,1.9-1.9,2.2c-1.2,0.3-2.6,0.3-3.9-0.3c-1-0.4-1.8-1.2-2.4-2.2
				c-0.3-0.5-0.4-1.1-0.4-1.8C275,208.2,275,205.9,274.3,204z"/>
			<path style="fill:#89C6B7;" d="M256.9,258.1c0,0,0.1,3.7,4.5,3.3c0,0,4.6-0.5,3.3-1.7c0,0-3.3-0.6-3.8-2.1
				C260.9,257.7,258.3,251,256.9,258.1z"/>
			<path style="fill:#89C6B7;" d="M180.1,262.5c0,0-2.4,4.9-1,6.3c0,0,2.4,1,3.7-2.3c0,0,1.1-4,0-5.1
				C182.8,261.5,180.9,260.7,180.1,262.5z"/>
			<path style="fill:#89C6B7;" d="M192.1,246.8c0,0-3.2,4.8-2.5,6.9c0,0,1.2,3.4,5.3,1.1c0,0,1.4-0.6,1.4-4.1c0,0,0-3.8-1.8-4.3
				C194.4,246.5,192.8,245.7,192.1,246.8z"/>
			<path style="fill:#89C6B7;" d="M199.7,251.5c0,0-3.1,4,1.8,6.7c0,0,2.2,0.6,1.4-2.5c0,0-0.5-3.1-1.3-4.1
				C201.6,251.5,200.2,250.5,199.7,251.5z"/>
			<path style="fill:#89C6B7;" d="M183.8,206.9c0,0-2.6,1.4-1.8,5.1c0.1,0.2,0.1,0.5,0.2,0.7c1.4,4.3,2,2.4,4.6,2.4
				c0,0,1.4-0.1,1.4-3.1c0,0,0.8-5.4-0.4-5.9C187.9,206.1,185.4,204.9,183.8,206.9z"/>
		</g>
	</g>
</g>
</svg>
