<?xml version="1.0" encoding="utf-8"?>
<!-- Generator: Adobe Illustrator 21.1.0, SVG Export Plug-In . SVG Version: 6.00 Build 0)  -->
<svg version="1.1" id="Calque_1" xmlns="http://www.w3.org/2000/svg" xmlns:xlink="http://www.w3.org/1999/xlink" x="0px" y="0px"
	 viewBox="0 0 290 214" style="enable-background:new 0 0 290 214;" xml:space="preserve">
<path style="fill:#538C8B;" d="M69.7,82.6c-3.9,0.3-9,0.3-12.9-0.8c0,0-5-1-4.7-14c0,0-1.1-19,4-27.6c0,0,1.5-4.2-3.2,0
	c0,0-7.7,9.9-9,21.8c0,0-3.2,29.7,13.8,46.4c0,0,4.1,3.7,9.8,8.6C69.4,109.1,72.6,93.6,69.7,82.6z"/>
<path style="fill:#538C8B;" d="M249.4,108.7c0,0-2.6,0.5-5.5,2.7c0,0,4.4-3.6,4.8-4.7c0,0,1-2-1.3-2.4c0,0-3.9-1.1-6.9,0.9
	c0,0-1.8,1.7-3.3,4c0,0-3.1,5.4-5.8,6.3c0,0-4.2,1.3-6.6,0.7c0,0-5-0.9-6.2,3.4c0,0-0.7,3.9-2.6,4.5c0,0-6.8,4.8-15.4,3
	c0,0-4.9-1.2-9-5c0,0-10.1-10.6-16.3-24.3c0,0-7-14.6-18.7-21.8c0,0-20.2-12.6-42.8-4c0,0-23.6,8.1-38.5,9.7c0,0-2.3,0.4-5.5,0.6
	c2.9,11-0.3,26.5-2.3,34.4c9.4,8.1,23.1,19.3,29.7,22.5c0,0,8.2,2.8,10.6,5.1c0,0-7.9,9.1-9.6,15.2c0,0-2.4,7.1-4.8,7.1
	c0,0-1,0.5,1.4,4.8c0,0,7.9,4.7,8.3,7.1c0,0,5.3,1.1,6.9,0c0,0,0.8-2.6-1.3-5.8s0.5-5.8,0.5-5.8s3.7-3,5-4.2c0,0,0.8,5.1,0,8.2
	c0,0-3.7,6.6-2.6,8.8c0,0,1.4,2.6,6.6,2.1c0,0,10.1-1.5,11.9,0.1c0,0,6.4,0.6,6.6-2.3c0,0,0.6-3-5.8-4.7c0,0-3.9-0.5-3.7-5.9
	c0,0,2.4-10.8,5.3-12.4c0,0,2.4-4.3,1.6-8.2c0,0,15.9-0.2,18.6,1c0,0,1,5.1,0,7.9c0,0-2.4,7.7,0.4,11.4c0,0,2.8,4.7,2.8,8.2
	c0,0-1.3,3.6,3,5.1c0,0,8.3-0.7,10.8,0c0,0,6.6,0.9,8.3,0c0,0,1.8-0.9,0-2.8c0,0-7.4-5.8-7.9-5.9c-0.5-0.2-0.9-8.3-3.2-11.3
	c0,0-1.5-0.3,2.2-2.3c0,0,5-5.3,6-7.7c0,0,6.7,0.3,8.9-0.2c0,0,1.5-0.9-0.9,3c0,0-2,3-1.4,7.5c0,0,1.1,4.9,2.8,7.5
	c0,0,2.6,2.8,2.6,5.4c0,0-1.1,5.9,2.5,6.2c0,0,4.8,0.4,7.9-0.1c0,0,5.9-0.7,7.7-0.3c0,0,3.4,0.5,3.4-2.2c0,0-0.3-1.4-3.3-3.1
	c0,0-4.8-2.7-5.1-4.5c0,0,0.2-5-0.9-7.3c0,0-1.8-5.5,0.1-7.7c0,0,2-3.4,2-5.3c0,0,9.6,0.3,12.9-4.7c0,0,8.3-10.6,10.3-10.7
	c0,0,6.4-0.1,8.3-2.2c0,0,5.8-5.8,11.6-15.1c0,0,2.4-3.3,4-3.3c0,0,2.7-0.9,2.7-3.5C251.1,111.7,251.5,109.2,249.4,108.7z"/>
<path style="fill:#EFB9BC;" d="M173.6,88.9c-0.5,0.6-1,1.1-1.6,1.6c-1.4,1.2-4.1,4-3,6.8c0,0,2.8,4.6,4.8,7.7c0,0,4.2,5.6,4.8,7
	c0,0,2,3.2,4.4-0.3c0.7-1,2-1.4,3.1-1.9c2.1-1,5.4-2.3,7.9-2.9c2.9-0.7,5.4-2.7,6.3-5.5c0.4-1.2,0.5-2.6,0.3-4.2
	c0,0-0.9-11.8-0.5-14.3c0.1-0.3,0-0.7-0.3-0.9c-0.4-0.4-1.4-0.7-3.2-0.5c-0.3,0-0.7,0.1-1,0.1c-1.6,0-6.9,0.1-9.5-0.4
	c-2.2-0.5-4.6-0.2-6.4,1.1c-0.3,0.2-0.6,0.5-0.9,0.8L173.6,88.9z"/>
<path style="fill:#EFB9BC;" d="M157.9,64.7l-2.7,9.1c0,0-1.2,4.6-0.7,5.8c0,0,5.5,5.7,7.7,6.9c0,0,5.2,3.3,8,0.6l10.4-9
	c0,0,4.1-3.9,3.5-6.9l-3.9-10c0,0-1.6-5.1-4.5-3.8l-10.5,2C165.1,59.3,158.8,60.7,157.9,64.7z"/>
<path style="fill:#EFB9BC;" d="M134,50.6l-3.3,3.1c-1.6,1.5-2.5,3.7-2.2,5.9c0,0.2,0.1,0.4,0.1,0.6l1.8,11.7c0,0,0.7,3.4,2.6,3.2
	c0,0,8.4-0.4,12.2-0.2c0,0,3.3,0.1,5.3,0.2c0.9,0,1.7-0.4,2.1-1.2c0.4-0.7,0.7-1.9,0.7-3.6l0.5-10.2c0,0,0.2-5.5-1.3-7.2l-5.5-6.3
	c-0.3-0.3-0.6-0.7-0.8-1.1c-0.3-0.5-0.9-1.3-1.4-1.9c-0.7-0.9-2.1-1-3-0.3c-0.7,0.5-1.5,1.2-2,1.8L134,50.6z"/>
<path style="fill:#EFB9BC;" d="M110.3,49.3l-6.3,9.6c0,0-0.5,0.7-0.4,2.8c0.1,1.7,0.5,3.3,1.2,4.8l3.6,7.6c0,0,0.9,1.5,3.7,0.8
	c0,0,8.7-3.5,11.2-3.8c0.5-0.1,0.9-0.2,1.3-0.4c0.1-0.1,0.2-0.1,0.3-0.2c1-0.6,1.6-1.7,1.6-2.9l0-8.9c0,0,0-3.8-2.1-4.8l-9.4-4.5
	C115,49.3,111.7,47.3,110.3,49.3z"/>
<path style="fill:#EFB9BC;" d="M79,78.6c0.1,0.5,0.4,1,0.8,1.3c1.6,1,5.4,3.1,7.2,2.8c0,0,5.9-1.5,7.8-3.3c0,0,2.5-2.3,1.8-7.3
	c0,0-0.3-2.3-0.3-4.1c-0.1-1.7-0.9-3.4-2.3-4.4c-0.8-0.6-1.9-1.2-3.3-1.7c0,0-5.5-2.3-6.3-2.3c0,0-1.6,0.1-4.1,4.3
	c0,0-2.4,3.5-2.5,4.6L79,78.6z"/>
<path style="fill:#EFB9BC;" d="M65.1,86.2c0,0,1.8,1.7,5.3,2c0,0,6.6,0.6,8.2,0c0,0,1.3,0.6,1.3-3.5c0,0,0.4-5.6,0-7
	c0,0-2.4-2.4-4.4-3.4c0,0-2.6-2.3-3.4-2.3c0,0-1.8,0.5-5.3,4.4c0,0-1.7,1.8-2.2,3.9L65.1,86.2z"/>
<path style="fill:#FFFFFF;" d="M224.3,119.4c0,0-2.5-0.3-3,1.6c0,0-0.9,2.8,1,3.5c0,0,1.3,0.6,3-0.3c0,0,0.5-0.8,0.6-2.5
	C226.1,121.7,225.9,120,224.3,119.4z"/>
<path d="M223.2,120.4c0,0-1.1,1.7,0.7,3c0,0,0.8,1,1.8,0c0,0,0.8-2.6-0.7-3.6C225.1,119.8,223.9,119.2,223.2,120.4z"/>
<path d="M243,106.1c0,0-2.3-0.2-2.9,2c0,0-0.5,0.8,1.3,0.2c0,0,2.1-0.5,2.6-1C243.9,107.3,244.7,106.3,243,106.1z"/>
<path style="fill:#FFFFFF;" d="M168.9,181.6c0,0-1.6-1.4,0.4-2c0,0,1.6-0.6,2.8,0c0,0,3.5,1.6,3.5,2.4c0,0,0.9,0.9-4.3,0.4
	C171.3,182.4,169.9,182,168.9,181.6z"/>
<path style="fill:#FFFFFF;" d="M172.1,179.5c0,0,1.2-1.1,3.6-0.4c0,0,2.5,1.1,2.3,2.7c0,0-0.5,1.1-2.3,0.8
	C175.7,182.5,172.4,181.5,172.1,179.5z"/>
<path style="fill:#FFFFFF;" d="M175.2,179.8c0,0,0-1.9,1.3-1.6c0,0,2.7,1.3,2.4,2.9c0,0-0.2,1.4-1.4,1.4
	C177.6,182.5,175.2,180.2,175.2,179.8z"/>
<path style="fill:#FFFFFF;" d="M200.7,181c0,0-1.9-2.2,0-2.7c0,0,1.4-0.8,2.7,0c0,0,3.5,1.5,3.9,2.3c0,0,0.1,0.9-3,0.4
	C204.2,181,201.6,180.7,200.7,181z"/>
<path style="fill:#FFFFFF;" d="M202.9,177.7c0,0,1.2-1.5,2.4-1.3c0,0,2.3,0.8,2.8,1.7c0,0,0.8,1.9,0,2.4c0,0-1.6,0.6-2.6,0.2
	C205.4,180.8,202.8,179.5,202.9,177.7z"/>
<path style="fill:#FFFFFF;" d="M128.6,181.2c0,0-1.8-1-0.2-2c0,0,1.1-0.9,2.7-0.6c0,0,2.6,0.8,3.1,2c0,0,1.2,1.5-1.1,1.5
	c0,0-2.1,0.4-2.6-0.3C130.3,181.8,129.5,181.2,128.6,181.2z"/>
<path style="fill:#FFFFFF;" d="M131,179.4c0,0-0.6-1.6,1.7-1.6c0,0,1.3-0.4,2.4,1.1c0,0,1.2,1.5,1.1,2.1c0,0-1.4,1.4-3.1,0.4
	C133.1,181.3,131.1,180.1,131,179.4z"/>
<path style="fill:#FFFFFF;" d="M133.6,178.5c0,0-0.4-2.2,0.9-1.9c0,0,2.3,0.8,2.1,3.2c0,0-0.1,1.6-1,1.5
	C135.6,181.3,133.6,179.3,133.6,178.5z"/>
<path style="fill:#FFFFFF;" d="M101.8,176.1c0,0,0.2-1.8,1.6-1.3c0,0,1.3,0.5,1.2,2.5c0,0,0.3,1.2-0.2,1.6c0,0-1.7,0.2-2-1.4
	C102.4,177.5,101.6,176.9,101.8,176.1z"/>
<path style="fill:#FFFFFF;" d="M104.6,175.4c0,0,2-1,2.6-0.3c0,0,1.1,3.6,0.6,4.1c0,0-2.8,0.4-3.2-0.9
	C104.6,178.3,103.7,175.6,104.6,175.4z"/>
<path style="fill:#FFFFFF;" d="M109.4,175.2c0,0-0.9-0.3-1,1.4c0,0-0.5,2.1,0.5,2.6c0,0,1.5-0.1,1.2-1.9
	C110.1,177.3,110.3,175.6,109.4,175.2z"/>
<path style="fill:#EFB9BC;" d="M53.3,41.1c0,0-0.4,3.5-1.5,3.5c0,0-1.6,0.5-1.8-3.1c0,0-0.7-5.4,0-7.8c0,0,0.9-2.5,1.2,2.4
	c0,0-0.2,1.7,0.8,2.9C51.9,39.1,53,40.5,53.3,41.1z"/>
<path style="fill:#EFB9BC;" d="M55.1,42.4c0,0,4.1,1.2,5.1,0.4c0,0,2.1-1.6,3.1-2.1c0,0,2.4-1.6-0.6,2.5c0,0-1.8,2.7-6,2.4
	c0,0-2.3,0-2.6,0C53.9,45.6,55.1,42.4,55.1,42.4z"/>
<path style="fill:#EFB9BC;" d="M52.4,47.9c0,0-1.7,2-0.9,3.4c0,0,2,0.6,3.5,0.5c0,0,3.7-0.3,5.9-2c0,0,2.2-1.8,2.4-2.8
	c0,0,0.3-0.9-2.9,1.1c0,0-2.2,0.9-4,0.6C56.4,48.7,53.7,47.7,52.4,47.9z"/>
<path style="fill:#EFB9BC;" d="M47.3,49.6c0,0-2.9-3.7-2.3-6.6c0,0,0.8-4.1,1.5-4.9c0,0,0.6-1.2,0.5,1.7c0,0,0,3.4,0.5,4.3
	c0,0,1.2,1.7,1.9,1.8L47.3,49.6z"/>
<path style="fill:#F67379;" d="M51,69.7c0,0-1.7,3-0.8,5.7c0,0,0.6,2.9,1.8,3.3c0,0,2.6,1.2,3.8-1.1c0,0,2.1-2.7,2.1-5.6
	c0,0-0.7-1.8-3.6-1.6C54.4,70.3,52.8,69.5,51,69.7z"/>
<path style="fill:#F67379;" d="M58.6,86.6c0,0,1.8,1.7,5.3,2c0,0,6.6,0.6,8.2,0c0,0,1.3,0.6,1.3-3.5c0,0,0.4-5.6,0-7
	c0,0-2.4-2.4-4.4-3.4c0,0-2.6-2.3-3.4-2.3c0,0-1.8,0.5-5.3,4.4c0,0-1.7,1.8-2.2,3.9L58.6,86.6z"/>
<path style="fill:#F67379;" d="M75.4,82.8c0.1,0.5,0.4,1,0.8,1.3c1.6,1,5.4,3.1,7.2,2.8c0,0,5.9-1.5,7.8-3.3c0,0,2.5-2.3,1.8-7.3
	c0,0-0.3-2.3-0.3-4.1c-0.1-1.7-0.9-3.4-2.3-4.4c-0.8-0.6-1.9-1.2-3.3-1.7c0,0-5.5-2.3-6.3-2.3c0,0-1.6,0.1-4.1,4.3
	c0,0-2.4,3.5-2.5,4.6L75.4,82.8z"/>
<path style="fill:#F67379;" d="M101.1,53.8l-6.3,9.6c0,0-0.5,0.7-0.4,2.8c0.1,1.7,0.5,3.3,1.2,4.8l3.6,7.6c0,0,0.9,1.5,3.7,0.8
	c0,0,8.7-3.5,11.2-3.8c0.5-0.1,0.9-0.2,1.3-0.4c0.1-0.1,0.2-0.1,0.3-0.2c1-0.6,1.6-1.7,1.6-2.9l0-8.9c0,0,0-3.8-2.1-4.8l-9.4-4.5
	C105.9,53.8,102.5,51.7,101.1,53.8z"/>
<path style="fill:#F67379;" d="M125.6,50.6l-3.3,3.1c-1.6,1.5-2.5,3.7-2.2,5.9c0,0.2,0.1,0.4,0.1,0.6l1.8,11.7c0,0,0.7,3.4,2.6,3.2
	c0,0,8.4-0.4,12.2-0.2c0,0,3.3,0.1,5.3,0.2c0.9,0,1.7-0.4,2.1-1.2c0.4-0.7,0.7-1.9,0.7-3.6l0.5-10.2c0,0,0.2-5.5-1.3-7.2l-5.5-6.3
	c-0.3-0.3-0.6-0.7-0.8-1.1c-0.3-0.5-0.9-1.3-1.4-1.9c-0.7-0.9-2.1-1-3-0.3c-0.7,0.5-1.5,1.2-2,1.8L125.6,50.6z"/>
<path style="fill:#F67379;" d="M151,61.5l-1.6,9.3c0,0-0.7,4.7,0,5.9c0,0,6.2,5,8.4,5.9c0,0,5.6,2.6,8-0.4l9.3-10.2
	c0,0,3.6-4.4,2.6-7.3l-5.1-9.5c0,0-2.2-4.9-5-3.2l-10.2,3.3C157.5,55.3,151.4,57.4,151,61.5z"/>
<path style="fill:#F67379;" d="M171.4,82.3c-0.5,0.6-1,1.1-1.6,1.6c-1.4,1.2-4.1,4-3,6.8c0,0,2.8,4.6,4.8,7.7c0,0,4.2,5.6,4.8,7
	c0,0,2,3.2,4.4-0.3c0.7-1,2-1.4,3.1-1.9c2.1-1,5.4-2.3,7.9-2.9c2.9-0.7,5.4-2.7,6.3-5.5c0.4-1.2,0.5-2.6,0.3-4.2
	c0,0-0.9-11.8-0.5-14.3c0.1-0.3,0-0.7-0.3-0.9c-0.4-0.4-1.4-0.7-3.2-0.5c-0.3,0-0.7,0.1-1,0.1c-1.6,0-6.9,0.1-9.5-0.4
	c-2.2-0.5-4.6-0.2-6.4,1.1c-0.3,0.2-0.6,0.5-0.9,0.8L171.4,82.3z"/>
<path style="fill:#F67379;" d="M183.7,114.5c-0.1-0.3,0-0.7,0.2-1c0.4-0.6,1.2-1.8,2.3-2.8c0,0,4.7-4.2,6.3-4.2c0,0,3.4,1.7,5.4,2.8
	c0,0,0.9,0.7,0.7,3c0,0-0.4,5-1.9,5.8c0,0-6,3.8-7.2,3.6C189.6,121.8,184.6,118.3,183.7,114.5z"/>
<path style="fill:#F67379;" d="M195.2,124.7l0.4-3.8c0,0-0.3-2.9,2.9-3.3c0,0,2.5-0.4,2.7,0c0,0,1.2,1.4,1.2,2.7c0,0-1,6.8-1.9,7
	C200.5,127.3,195.6,126.2,195.2,124.7z"/>
<path style="fill:#F67379;" d="M206.2,127.3v-4.9c0,0,1.1-3,2.6-3c0,0,2.9,0.9,3.3,2.2c0,0,0.4,3.4,0.4,4.5
	C212.5,126,208.6,127.9,206.2,127.3z"/>
</svg>
