<?xml version="1.0" encoding="utf-8"?>
<!-- Generator: Adobe Illustrator 21.1.0, SVG Export Plug-In . SVG Version: 6.00 Build 0)  -->
<svg version="1.1" id="Calque_1" xmlns="http://www.w3.org/2000/svg" xmlns:xlink="http://www.w3.org/1999/xlink" x="0px" y="0px"
	 viewBox="0 0 292 192" style="enable-background:new 0 0 292 192;" xml:space="preserve">
<g>
	<path style="fill:#538C8B;" class="horn3" d="M249.3,60.7c0,0,7.9-0.8,9.9-1.9c0,0,6.3-3.5,8-6.4c0,0,2.3-3.1,2.7-6.5c0,0,0.9-5.4-3,0
		c0,0-2.1,4.2-5.5,4.6c0,0-11.9,0.8-15.9-0.1l-10.3,11.2l6.6,5.6C241.8,67.2,246.7,61,249.3,60.7z"/>
	<path style="fill:#27423D;" d="M116.3,121.7l1.7,27.4c0,0,0.1,6-1.7,8.4c0,0-2.2,3.6-2.1,5.9c0,0,5.5,2.5,10.2,2
		c0,0,8.1,1.2,11.6-2.4c0,0,0.7-2.5-3.2-4.2c0,0-1.5-0.9-1.9-3.3c0,0,0.2-4.2,3-10c0,0,4.5-13.4,4.5-24.5
		C138.4,121,119.5,117.2,116.3,121.7z"/>
	<path style="fill:#27423D;" d="M205.5,110.5c0,0,2.3,17.5,0,25.1c0,0-1.6,7.1-2.1,14.2c0,0-0.6,7,0,8.4c0,0,2.3,1.2,4.4,5.3
		c0,0,1.2,3.8-4,3c0,0-9-0.1-11.4,0.8c0,0-5.7,0.6-6.6-1.4c0,0-2.1-2.6,0-5.9c0,0,0.9-4.1,0.9-7.7c0,0,0.4-23.7-0.4-28.5
		L205.5,110.5z"/>
	<path style="fill:#27423D;" d="M67.6,99.4c0,0,13.6-21.3,16.9-30.5c1.2-3.3,2.7-6.6,4.6-9.6c5.6-9.1,16.2-24.8,25.1-27.8
		c0,0,21.3-9.8,40.8-4.3l38,9.4l3.5,1.1c0,0,11.4-2.6,15.2-2.1c0,0,14.1,1.1,18.3,6.6c0,0,1.8,3.4,2.3,6.6c0,0,2.1,12.1,5.7,13.8
		c0,0,9.1,5.2,13.8,16.7c0,0,6.7,7.9,10.4,10.6c0.6,0.5,1.2,1,1.6,1.7c1.6,2.5,4,8.8-3,17.7c-1.1,1.3-2.9-0.5-3.9,0.2
		c0,0-7.4,5.4-14.1,3.7c0,0-2.6-1.2-13.7-8.4c0,0-4.8-3.5-9.5-2.8c0,0-2,4.9-4,5.4c0,0-3.1,2.5-6.6,2.5c0,0-1.2,2.1-1.8,4.6
		c0,0-3.1,9.1-20.4,15c0,0-3.2,0.9-3.1,2.8c0,0,0.5,5.8-1.8,15.6c0,0-0.2,10.6-0.8,12.1c0,0,2.3,2.6,1.7,5.4c0,0-0.2,3.8-8.3,4.3
		c0,0-10.3,0.5-13.3-2.1c0,0-0.9-5.4,2.1-6c0,0-1.8-31.8-1.7-33c0,0-0.9-0.9-4.6-0.2c0,0-19.9-0.2-30.5-5.2c0,0-5.1,18.1-9.2,21.3
		c0,0-1.1-0.2-2.1,7.7c0,0-1.1,6.9-0.6,7.8c0,0,5,4,4.1,7.9c0,0-5.8,1.6-12.7,1c0,0-12.8-0.8-13.5-1.3c0,0-0.9-5.5,1.9-7.4
		c0,0-0.6-20.9,1-23.7c0,0,1.6-6.9,3.2-8.8c0,0,0.6-7.6-0.7-8.2c0,0-0.6-1.2-7.3,5.7c0,0-22.5,17.3-28.3,22c0,0-6.3,3.5-17.1,1.9
		c0,0-19.4-6.5-20.8-15c0,0-1.7-7.6-0.9-12.7c0,0,1.5-11.9,5.7,4.6c0,0,2.4,8.1,8.2,7.6c0,0,8.3,0.3,13.4-5.6
		C50.6,127.8,63.6,107.9,67.6,99.4z"/>
	<g>
		<path style="fill:#FFFFFF;" d="M93,169.1c0,0,0.7-3.6,2.6-3.6c0,0,3.3-0.1,3.6,1.3c0,0,0.5,2,0,2.9L93,169.1z"/>
		<path style="fill:#FFFFFF;" d="M100.9,169.7c0,0,0.1-4.5,2.4-4.6c0,0,2.2-0.2,2.6,2.5c0,0,0.2,2.6,0,2.7
			C105.9,170.4,100.9,170.3,100.9,169.7z"/>
		<path style="fill:#FFFFFF;" d="M108.3,168c0,0,0.2-2.5,1.7-2.5c0,0,1.6-0.4,2.7,0.3c0,0,1.3,3.7,1.3,4.5c0,0-4.9,0.8-5.4,0.4
			C108.6,170.8,108.3,169.7,108.3,168z"/>
		<path style="fill:#FFFFFF;" d="M115.9,164.8c0,0-1,0.8,0,5.2l3.3-0.4c0,0-0.2-5.3-1.3-5.5C117.9,164,116.3,163.8,115.9,164.8z"/>
		<path style="fill:#FFFFFF;" d="M119.9,166.5c0,0,3.3,1.2,5.2,0.5c0,0,0.1-1.4,0.1-2.8c0-0.9-0.6-1.8-1.5-2.1
			c-0.7-0.2-1.5-0.1-2.2,1C121.5,163,120.7,164.3,119.9,166.5z"/>
		<path style="fill:#FFFFFF;" d="M127.1,167c0,0,0.3-4.6,1.3-4.6c0,0,1.6-0.9,2.3,0.4c0,0,0.8,2.8,0.7,3.9
			C131.3,166.8,128.1,166.9,127.1,167z"/>
		<path style="fill:#FFFFFF;" d="M133.9,162.1c0,0-1.2,0.9,0,4.4c0,0,1.8-0.5,2.3-1C136.2,165.5,135.8,161.2,133.9,162.1z"/>
		<path style="fill:#FFFFFF;" d="M165.8,166.2c0,0-2.5,0.9-2.5,2.7v1.5c0,0,4.3,1,5.2,0.4c0,0,0.3-2.7,0-3.7
			C168.5,167.1,166.8,165.6,165.8,166.2z"/>
		<path style="fill:#FFFFFF;" d="M169.6,168.5c0,0,0.9-2.2,2.7-1.9c0,0,1.9,0.5,2,1.7l0.4,2.7c0,0-4.8,0.3-5.1-0.2V168.5z"/>
		<path style="fill:#FFFFFF;" d="M176.5,166.3c0,0-0.6,1.2,0,4.4c0,0,2.7,0.1,4.1-1.2c0,0-0.5-2.4-1.4-2.6
			C179.3,166.9,177.3,165.7,176.5,166.3z"/>
		<path style="fill:#FFFFFF;" d="M189.3,164.9c0,0-1.3,0.5-1.4,3.1c0,0,2.3,1,4.3,0c0,0-0.2-2.9-1-3.4
			C191.3,164.6,190.1,164.5,189.3,164.9z"/>
		<path style="fill:#FFFFFF;" d="M193.5,168.4c0,0-0.9-3.3,1.3-4.1c0,0,2-0.4,2.2,1c0,0,0.4,2.2,0.2,3.1H193.5z"/>
		<path style="fill:#FFFFFF;" d="M198.7,165.6c0,0,0.9-2,2.8-1.3c0,0,1.2,0.6,0.9,3.2c0,0-2.7,0.6-3.8,0.4
			C198.7,167.9,198.4,167,198.7,165.6z"/>
		<path style="fill:#FFFFFF;" d="M204.4,167.5c0,0-0.5-3.6,0.9-3.8c0,0,3.2-0.6,3.1,2.4C208.4,166.1,208.2,167.5,204.4,167.5z"/>
	</g>
	<path style="fill:#89C6B7;" class="horn1" d="M251.4,80.9c0,0-1.9,2.5,0.6,5.7c0,0,2.3,3.3,5.5,3.6c0,0,2.5,0.1,5.2-4.2c0,0,1.9-4.3,1.7-8.5
		c0,0-0.1-4.1-1.6-5.9c0,0-2.1-3.1-2.3,2.4c0,0-0.7,3.9-2.9,4.5C257.5,78.5,252.5,78.9,251.4,80.9z"/>
	<path style="fill:#89C6B7;" class="horn2" d="M243.8,54.7c-0.4,0.4-0.9,0.9-1.4,1.3c-1.7,1.5-5.8,5.2-5.8,8.3c0,0,0,4.9-4.5,2.8
		c0,0-6.3-2.5-7.3-6.1c0,0-0.6-3.2,2.5-5.2c0.6-0.4,1.1-0.8,1.6-1.3c1.5-1.4,4.1-4.1,5.9-6.1c2-2.3,4.7-4,7.6-4.7
		c1-0.2,2-0.4,3.2-0.3c0,0,7.9-0.9,10.7-3.1c0,0,5-3.7,5.8-6.1c0,0,2.5-5.6,2.2,1.1c0,0-1.1,6-5.9,9.9c0,0-6.2,4.5-9.6,6.1
		c-1.3,0.6-2.5,1.3-3.6,2.2C244.7,53.7,244.2,54.2,243.8,54.7z"/>
	<path style="fill:#FFFFFF;" d="M215,69.3c0,0,1,4.4,4.9,4.4c0,0,3-0.2,2.1-3.8c0,0-1.2-3.4-4.7-4.1C217.4,65.8,214.3,65.5,215,69.3
		z"/>
	<g>
		<path style="fill:#538C8B;" d="M191.4,95.3c-3.9,0-7.2-0.1-8.4-0.6l-0.2-0.1l-0.1-0.1c-0.3-0.4-6.9-10.7-5.7-19
			c0-0.6,0.8-15,2.8-18.6c0.3-1.3,2.9-14.5,8.8-16.1c0.7-0.4,6.2-3.7,12.6-4.7l0.2,1c-6.5,1-12.2,4.6-12.2,4.6l-0.1,0.1
			c-5.5,1.4-8.2,15.3-8.2,15.4l-0.1,0.2c-1.9,3.2-2.7,18.1-2.7,18.2c-1,7.4,4.7,16.9,5.5,18.2c2.9,0.9,17.7,0.3,25.2-0.1l0.1,1
			C208.1,94.8,198.7,95.3,191.4,95.3z"/>
	</g>
	<path style="fill:#89C6B7;" d="M182,85.8c0,0,2.9,2.3,2.8,3.9c0,0,0.9,1.9-5,1.3c0,0-1.3-1,1-3.8L182,85.8z"/>
	<path style="fill:#89C6B7;" d="M176.1,79.3c0,0,2.2,2.4,4.2,2.4c0,0,2.1-0.1,1.4-4.5c0,0-0.4-3.4-2.3-2.5c0,0-4,2.4-3.9,3
		C175.4,77.7,175.1,78.4,176.1,79.3z"/>
	<path style="fill:#89C6B7;" d="M176.4,68.8c0,0,2.3,2.4,3.7,2c0,0,1.5-0.6,1.1-3.6c0,0-0.7-3.8-3.8-1.4
		C177.4,65.8,173.6,66.8,176.4,68.8z"/>
	<path style="fill:#89C6B7;" d="M177.8,56c0,0,1.5,4.2,2.9,4.2c0,0,1.6-0.1,1.8-2.7c0,0,0.9-4.5-2.4-3.3
		C180.2,54.2,177.3,54.6,177.8,56z"/>
	<path style="fill:#89C6B7;" d="M181.8,45.7c0,0,0,5.2,1.7,5.2c0,0,2.3-1.3,2.2-3.2c0,0,0-1.9-2.2-2.3
		C183.5,45.3,182,44.8,181.8,45.7z"/>
	<path style="fill:#89C6B7;" d="M189.8,38.4c0,0-0.6,2.9,0.1,3.8c0.1,0.2,0.4,0.2,0.6,0.2c0.6-0.2,1.9-0.7,2.9-1.6
		c0,0,1.7-1.8-0.7-2.6C192.8,38.3,190,36.8,189.8,38.4z"/>
	<path style="fill:#89C6B7;" d="M200.1,34.4c0,0-2.6,3.6-1.1,4.5c0,0,3.3,0.4,4-0.6c0,0,1.6-1.1-0.6-3
		C202.5,35.4,201,32.8,200.1,34.4z"/>
	<path style="fill:#89C6B7;" d="M208.7,33.6c0,0-3.2,3.5-1.8,4.1c0,0,3.2,0.9,4.3,0c0,0,1.5-0.9-0.4-3.5
		C210.8,34.2,209.7,32.5,208.7,33.6z"/>
	<path style="fill:#89C6B7;" d="M216.3,34.3c0,0-3.2,2.2-1.6,3.4c0,0,2,0.9,3.2,0.6c0,0,1.3-0.5,0.7-2.6
		C218.6,35.6,218.6,32.6,216.3,34.3z"/>
	<path style="fill:#89C6B7;" d="M224.8,36.6c0,0-4.1,0.4-3.2,2.2c0,0,1.5,2.1,3.2,2.1c0,0,2.1,0.3,1.6-3.2
		C226.4,37.7,226.3,36.3,224.8,36.6z"/>
	<path d="M257.5,95.7c0,0-0.9,1.9,0.5,3c0,0,1.6,1.6,1.3-1.2C259.4,97.5,258.1,94.9,257.5,95.7z"/>
	<path d="M216,69.5c0,0,0.8,2.5,2.1,2.9c0,0,1.3,0.3,1.3-2c0,0,0-1.8-1.7-2.4C217.8,68.1,215.1,67.6,216,69.5z"/>
</g>
</svg>
