<?xml version="1.0" encoding="utf-8"?>
<!-- Generator: Adobe Illustrator 21.1.0, SVG Export Plug-In . SVG Version: 6.00 Build 0)  -->
<svg version="1.1" id="Calque_1" xmlns="http://www.w3.org/2000/svg" xmlns:xlink="http://www.w3.org/1999/xlink" x="0px" y="0px"
	 viewBox="0 0 709 800" style="enable-background:new 0 0 709 800;" xml:space="preserve">
<linearGradient id="SVGID_1_" gradientUnits="userSpaceOnUse" x1="26.1357" y1="140.3651" x2="103.8" y2="140.3651" gradientTransform="matrix(1 0 0 -1 0 834)">
	<stop  offset="0" style="stop-color:#89C6B7"/>
	<stop  offset="0.9949" style="stop-color:#FFFFFF"/>
</linearGradient>
<path style="fill:url(#SVGID_1_);" d="M35,794c0,0-18-83.9-2.7-129.6c0,0,13.9-34.8,30.5-46.6c3.6-2.6,7.2-5.2,10.5-8
	c9.3-8,25.7-21.5,30.5-22.9c0,0-1.8,2.5-4.4,6.9c-10,17.3-15.3,37.1-15.4,57.2c-0.2,37-0.6,129.6,1,146C85,797,50.3,806.3,35,794z"
	/>
<linearGradient id="SVGID_2_" gradientUnits="userSpaceOnUse" x1="78.3374" y1="111.2834" x2="234.4" y2="111.2834" gradientTransform="matrix(1 0 0 -1 0 834)">
	<stop  offset="0" style="stop-color:#89C6B7"/>
	<stop  offset="0.9949" style="stop-color:#FFFFFF"/>
</linearGradient>
<path style="fill:url(#SVGID_2_);" d="M85.5,734.1c6-16.8,17.8-31,33.1-40.2c16.5-9.8,38.7-21.5,57.6-26.3c0,0,52.1-13.7,58.2-19.8
	c0,0-21.4,22.2-45.7,38c0,0-33.5,34-37.2,40.4c0,0-45.3,56-66.6,70.8c-9.8,6.8-6.7-43.2-3-53C82,744,82.7,741.9,85.5,734.1z"/>
<path style="fill:#4C8E88;" d="M-0.2,607.8c0,0,26.7,37.1,26.5,59.8c0,0-3.2,18.7-5.8,35.3c-2.7,17.6-0.7,35.7,6.3,52.1
	c1.7,3.8,3.4,7,5,8.6c0,0-17.2,31.3-16,51.1l-16,1.1C-0.2,815.8-0.2,607.8-0.2,607.8z"/>
<path style="fill:#4C8E88;" d="M155.2,817.2c0,0,0.2-35.2,5.2-50.1c0,0,11-42,12.2-55.8c0,0,2.8-9.7,10.1-12.9
	c0,0-1.2,18.6,5.3,29.5c0,0,10.9,17.8,12.1,40.4v48.9L155.2,817.2L155.2,817.2z"/>
<linearGradient id="SVGID_3_" gradientUnits="userSpaceOnUse" x1="401.5036" y1="129.2286" x2="529.5" y2="129.2286" gradientTransform="matrix(1 0 0 -1 0 834)">
	<stop  offset="0" style="stop-color:#89C6B7"/>
	<stop  offset="0.9949" style="stop-color:#FFFFFF"/>
</linearGradient>
<path style="fill:url(#SVGID_3_);" d="M424,715c0,0,44.4-85.8,65.1-93.9c0,0,27.5-16.2,40.4-15c0,0-21.4,30.7-21.8,45.3
	c0,0-5.2,52.1-14.5,60.6l-2.2,86c0,0-27,4-42,0c-4.6-1.2-42.2,14.9-46.7-3C396.8,773.1,421.5,719.3,424,715z"/>
<linearGradient id="SVGID_4_" gradientUnits="userSpaceOnUse" x1="273.6" y1="92.857" x2="452.2114" y2="92.857" gradientTransform="matrix(1 0 0 -1 0 834)">
	<stop  offset="0" style="stop-color:#89C6B7"/>
	<stop  offset="0.9949" style="stop-color:#FFFFFF"/>
</linearGradient>
<path style="fill:url(#SVGID_4_);" d="M317.9,735.6c0,0-44.3-65.2-44.3-71.2c0,0,29.9,15,42.4,17c0,0,57.9,21.6,64.3,28.7
	c0,0,26.3,17.4,31.1,30.3c0,0,41.6,57,40.8,76.8h-10.5c0,0-37.6,5.6-70.8-15.2C349.9,788.8,335.5,753.7,317.9,735.6z"/>
<path style="fill:#4C8E88;" d="M462,795c0,0,20.2-89,42-101.5c0,0,46.5-46.5,54.6-45.7c0,0-16.6,22.6-16.2,35.2
	c0,0-3.2,27.1-12.9,36.4c0,0-51.5,67.6-51.5,75.6C478,795,469,795,462,795z"/>
<path style="fill:#4C8E88;" d="M537.2,815.1c0,0,36-40.8,53.4-48.5c0,0,37.6-23.4,52.1-25.9c0,0,44.1-21.8,48.1-32.7
	c0,0-11.3,29.1-30.7,44.9c0,0-28.7,24.7-40.8,31.5c0,0-21,22.6-19,32.7L537.2,815.1z"/>
<path style="fill:#4C8E88;" d="M181.5,819.6c0,0,31.5-39.2,50.9-41.6c0,0,17.4-1.2,31.9,8.5l51.7,30.7L181.5,819.6z"/>
<linearGradient id="SVGID_5_" gradientUnits="userSpaceOnUse" x1="72.1388" y1="28.759" x2="217.0483" y2="112.4226" gradientTransform="matrix(1 0 0 -1 0 834)">
	<stop  offset="0" style="stop-color:#89C6B7"/>
	<stop  offset="0.2416" style="stop-color:#6DADA2"/>
	<stop  offset="0.5065" style="stop-color:#55968F"/>
	<stop  offset="0.6693" style="stop-color:#4C8E88"/>
</linearGradient>
<path style="fill:url(#SVGID_5_);" d="M77.6,814.7v-29.8c0-9.8,4.1-19.1,11.4-25.6c10.7-9.6,27-22.8,39.7-27.3
	c0,0,29.5-11.8,48-14.9c4.2-0.7,8.3-1.7,12.2-3.1c7.4-2.7,17.7-6.9,18-10c0,0-23.1,20.4-30.8,26.8c0,0-19.4,22.9-25,45.5
	c0,0-8.9,33.1-23.8,38.4L77.6,814.7L77.6,814.7z"/>
<linearGradient id="SVGID_6_" gradientUnits="userSpaceOnUse" x1="207.1" y1="63.9252" x2="441.8" y2="63.9252" gradientTransform="matrix(1 0 0 -1 0 834)">
	<stop  offset="0" style="stop-color:#89C6B7"/>
	<stop  offset="0.2416" style="stop-color:#6DADA2"/>
	<stop  offset="0.5065" style="stop-color:#55968F"/>
	<stop  offset="0.6693" style="stop-color:#4C8E88"/>
</linearGradient>
<path style="fill:url(#SVGID_6_);" d="M441.8,817.2c0,0-53.2-64.5-82.7-71.8c0,0-70-23.3-91-21.9c0,0-42.4-3.4-61,6.7
	c0,0,64.3,20.2,78,39.8c0,0,46.5,37.8,48.5,44.7L441.8,817.2z"/>
<linearGradient id="SVGID_7_" gradientUnits="userSpaceOnUse" x1="577.0897" y1="47.3359" x2="524.5395" y2="138.3555" gradientTransform="matrix(1 0 0 -1 0 834)">
	<stop  offset="0" style="stop-color:#89C6B7"/>
	<stop  offset="0.2416" style="stop-color:#6DADA2"/>
	<stop  offset="0.5065" style="stop-color:#55968F"/>
	<stop  offset="0.6693" style="stop-color:#4C8E88"/>
</linearGradient>
<path style="fill:url(#SVGID_7_);" d="M492.3,817.2c0,0-8.3-39.5-13.5-50.5c0,0,32.5-37.6,50.7-43.7c0,0,40-22.2,40.4-31.1
	c0,0,29.1-26.3,31.1-40.4c0,0,6.9,0.4-6.1,41.6c0,0-21.4,48.1-38,54.2c0,0-31.1,30.3-31.9,49.3l-0.8,20.6L492.3,817.2L492.3,817.2z"
	/>
<linearGradient id="SVGID_8_" gradientUnits="userSpaceOnUse" x1="12.9" y1="110.4503" x2="155.2" y2="110.4503" gradientTransform="matrix(1 0 0 -1 0 834)">
	<stop  offset="0" style="stop-color:#89C6B7"/>
	<stop  offset="0.2416" style="stop-color:#6DADA2"/>
	<stop  offset="0.5065" style="stop-color:#55968F"/>
	<stop  offset="0.6693" style="stop-color:#4C8E88"/>
</linearGradient>
<path style="fill:url(#SVGID_8_);" d="M12.9,814.7c0,0,19.6-69.4,34.6-88.1c1.4-1.7,2.6-3.5,3.7-5.3c6.8-10.9,27.2-42.4,36.9-46.4
	c0,0,55.4-44.9,67.1-42.4c0,0-39.8,42.1-47.8,63.2c-0.6,1.6-1.2,3.2-2,4.7c-4.5,8.9-19.6,40-21.4,63c0,0,0.8,48.1-6.5,51.3H12.9z"/>
<linearGradient id="SVGID_9_" gradientUnits="userSpaceOnUse" x1="491.1167" y1="15.9876" x2="365.8122" y2="233.0215" gradientTransform="matrix(1 0 0 -1 0 834)">
	<stop  offset="0" style="stop-color:#89C6B7"/>
	<stop  offset="0.2416" style="stop-color:#6DADA2"/>
	<stop  offset="0.5065" style="stop-color:#55968F"/>
	<stop  offset="0.6693" style="stop-color:#4C8E88"/>
</linearGradient>
<path style="fill:url(#SVGID_9_);" d="M452.3,817.2c0,0-47.3-74.2-54.3-89.7c0,0-26.1-54.6-22.9-85.3c0,0,3.2-51.7,21.8-59
	c0,0-3.6,24.3,13.7,46.5c0,0,39.6,61.4,44.9,76c0,0,28.5,59.4,30.7,75.2c0,0,9.7,35.6,6.1,36.4h-40L452.3,817.2L452.3,817.2z"/>
</svg>
