<?xml version="1.0" encoding="utf-8"?>
<svg version="1.1" id="Calque_1" xmlns="http://www.w3.org/2000/svg" xmlns:xlink="http://www.w3.org/1999/xlink" x="0px" y="0px"
	 viewBox="0 0 1280 800" style="enable-background:new 0 0 1280 800;" xml:space="preserve">
<path style="fill:#F67379;" d="M1.3,476.1c0,0,49.9-10,51.6-20c0,0,25.6-16.7,34.4-16.7c0,0,32.2-4.4,40.6-4.4c0,0,33.3,0,40-2.2
	c0,0,40-10,53.9-10c0,0,17.8-0.6,24.4,4.4c0,0,9.4,0,15.6-4.5c0,0,20-2.2,29.4,2.8c0,0,8.3,5.4,11.7,4.9c0,0,21.7-1,42.2,6.7
	c0,0,46.3,9.2,60.6,20.6c0,0,50.6,19.4,65,18.3c0,0,38.3,11.1,50.6,13.9c0,0,32.8,9.7,39.4,21.7c0,0,13.2,2.8-62.9,2.8
	c0,0-61-1.1-70.5,4.4c0,0-39.4,3.9-61.1,5c0,0-40.6,6.7-50.6,3.3c0,0-58.9-6.1-67.2-12.2c0,0-16-2.8-33.3,0.6c0,0-38.9,5.6-54.5-2.8
	c0,0-12.2-0.6-26.1,7.2c0,0-28.3,10.2-50.6,8.2c0,0-45.7,1.5-82.7,0.3L1.3,476.1L1.3,476.1z"/>
<path id="_x30_3_5_" style="fill:#F1BABD;" d="M1279.5,659.5c0,0-75.9,0.3-114.2,13.1c0,0-17.8,3-48.6,8.1
	c-11.7,1.9-25.6,13.3-40.2,15.2c0,0-24.5,7.1,31,9.4c0,0,143.1,8.4,172.4,3.5L1279.5,659.5z"/>
<path id="_x30_2_5_" style="fill:#E7434F;" d="M0.8,661.3c0,0,59.9-5.8,77.2-17.3c0,0,30.4-13.3,46.3-5.9c3.8,1.8,7.8,3.2,12,3.9
	c11.1,1.9,31,5.1,42.3,6.2c0,0,30.1-0.3,36.6-2.6c0,0-50.1,23.4-53.3,35.6c0,0-34.8,52.5-57.2,58.1c0,0-29.8,89.8-103.9,79
	L0.8,661.3L0.8,661.3z"/>
<g id="_x30_4_9_">
	<path style="fill:#E7434F;" d="M506,518.6c0,0-45.6,9.3-59.5,0c0,0-32.1-20.7-47.3-20c-0.5,0-0.9,0-1.4,0c-5.2-0.4-38.9-3-54.4-0.5
		c-2,0.3-4,0.2-5.9-0.3c-5.2-1.4-14.4-4.2-10.3-6.3c0,0,30.9-3.6,37.4-8.1c1.2-0.8,2.5-1.4,3.9-1.5c4.1-0.5,11.9-1.3,17-0.5
		c2.4,0.4,4.9,0,7-1.1c5.4-2.7,15.7-7.5,23.7-8.5c2-0.3,3.9-1,5.5-2.1c4.1-2.8,12.4-7.9,21.8-9.6c4.3-0.8,8.4-2.4,12.1-4.7
		c8-5.1,22.7-13,35.9-11.7c3.2,0.3,6.5,0.1,9.5-0.8c11.4-3.6,39.6-11.8,65-14.1c4.8-0.4,9.5-1.7,13.9-3.8
		c10.1-4.7,29.6-13.4,49.1-20.6c2.4-0.9,4.8-2,7-3.3c13.3-7.7,63.4-35.2,98.9-33.3c1.1,0.1,2.2,0.1,3.3,0.1
		c13.8-0.3,113.2-1.4,154.7,19.1c2,1,4.1,1.8,6.3,2.3c10.6,2.5,40.5,8.3,52.3-2.2c1-0.9,2.1-1.6,3.2-2.2c6.9-3.9,28.2-15.3,45.4-17
		c3.7-0.4,7.5,0.2,11,1.6c8.9,3.4,28.8,12,43.8,24.3c1.9,1.6,4.4,2.4,6.9,2.3c7.8-0.4,25.1-1.6,34.7-4c0,0,25.7-6.7,38.4-15.5
		c2.2-1.5,4.7-2.6,7.3-3.1c7.9-1.4,25.1-5.6,33.7-16.1c1.7-2,2.8-4.4,3.5-6.9c2-7.3,9.7-29,30.3-22.8c3.4,1,6.9,1.4,10.4,0.8
		c8.2-1.4,22.4-5,28.1-13c3.9-5.4,9.6-9.3,15.9-11.3c5.2-1.7,11.2-2.8,17.2-1.9v200.9c0,0-35.7,10.6-59.8,12.6
		c-2.2,0.2-4.3,0.6-6.4,1.3c-2.5,0.8-6.3,1.8-10.9,2.4c-8.6,1.1-17.4-0.5-25.1-4.5s-23.2-10.3-43.7-10.3c0,0-64.3-3.2-85-7.9
		c-2-0.5-4.1-0.7-6.2-0.7c-9.7-0.1-36.4,0-46.6,4c-2.3,0.9-3.7,3.6-3.1,6v0.1c0.8,3.4-2.2,6.4-5.6,5.8c-8.5-1.4-31.7-4.8-48.3-1.9
		c-1.2,0.2-2.5,0.4-3.7,0.5c-5.8,0.5-23.6,2.1-30.6,2c-0.6,0-1.1,0-1.7,0.1c-10.1,0.8-97.3,7.6-123.3-2.4c-1.2-0.5-2.5-0.8-3.8-1.1
		c-11.4-2.4-60.5-11.7-88,2.7c0,0-20,14.2-47.4,14.2c0,0-37.4,3.1-58.5,1.7c-5-0.3-9.9-1.5-14.7-3.2c-7.4-2.8-24.8-8.1-45.3-6.3
		L506,518.6z"/>
</g>
<g id="_x30_1_9_">
	<path style="fill:#F67379;" d="M78.2,817.9l812.1,4.8c0,0-110.6-43.3-124.9-57.8c0,0-84.3-18.1-112.1-18.6c0,0-33.1,10.2-57.2-32.7
		c0,0-50.4-50.5-80.5-52.8c0,0-94.3-37.8-136-27.6c0,0-54.5-22.4-78.5-11.3c0,0-30.6,11.6-51.8,11.5c-3.4,0-6.8,0.4-10.2,1.1
		c-11.9,2.5-37.6,8.4-49.8,15.8c0,0-33.4,16.4-46.7,28.8c-4,3.7-8.3,6.9-13.2,9.3c-7.6,3.8-19.2,9.8-30.7,16.7
		c-14.1,8.5-25.4,20.9-32.5,35.7c-9.8,20.4-24.6,49.9-31.6,56.7c-1.1,1.1-2.2,2.3-3.3,3.5c-4.3,5.2-15.5,11.7-24.7,17
		c-1,0.6-0.6,2.2,0.6,2.1L78.2,817.9z"/>
</g>
<path style="fill:#B3B3B3;" d="M1279.5,502.4c0,0-31.3-1.3-42,6.7c0,0-4.9,4.8-21.2,6.1c0,0-21,0.9-31.7,5.2
	c0,0-19.7,12.2-32.9,12.2c0,0-15.2,1.3-2.2,7.9c1.3,0.7,2.9,1,4.4,0.9c6.8-0.4,28.3-1.2,37.2,2.5c0,0,26.8,5.8,39.3,3.7
	c0,0,44.8,3.8,49.4,0.5L1279.5,502.4z"/>
<path style="fill:#CCCCCC;" d="M1279.5,558.9c0,0,3.6,4.5-18.1,5.3c0,0-30.6,0.6-44.5,0.2c-2.4-0.1-4.7-0.6-6.8-1.6
	c-5.2-2.4-14.7-7.3-14.7-10.6c0,0-2.9-4.6,23.5-5.3c0,0,19.5-4.8,24.6-10.1c0.8-0.8,1.5-1.6,2.4-2.2c5.3-3.9,22.2-15.2,33.8-9.8
	L1279.5,558.9z"/>
<path style="fill:#999999;" d="M472.1,605c0,0,7.2-9.3,12.3-9.5c0,0,7-7.4,9.7-7.4c0,0,4.9-5.1,8.1-5.1c0,0,6.8-2,11.4,1.2
	c0,0,5.8,1,8.8,6.4c0,0,2.8,2.8,2.8,6c0,0-1.4,4.8,0,5.2c0,0,1.2-1,2.6,0c0,0,1.6,2.6,1.6,4c0,0-1,3.8,1,3.8c0,0,2,1.2,1.8,2.8
	c0,0-2,6.5-10.4,9.1c0,0-5.2,1.2-9.4,5.2c0,0-5,3-10.2,3c0,0-6.6-0.4-9,1.6c0,0-8,5.8-11.4,5.8c0,0-10.4-0.4-12.2-5
	c0,0-7.6-13-5.8-18.7c0,0,1.6-7,3.4-7C467.1,606.6,469.1,605.6,472.1,605z"/>
<linearGradient id="SVGID_1_" gradientUnits="userSpaceOnUse" x1="27.1357" y1="666.6349" x2="104.8" y2="666.6349" gradientTransform="matrix(1 0 0 1 0 32)">
	<stop  offset="0" style="stop-color:#89C6B7"/>
	<stop  offset="0.9949" style="stop-color:#FFFFFF"/>
</linearGradient>
<path style="fill:url(#SVGID_1_);" d="M36,799c0,0-18-83.9-2.7-129.6c0,0,13.9-34.8,30.5-46.6c3.6-2.6,7.2-5.2,10.5-8
	c9.3-8,25.7-21.5,30.5-22.9c0,0-1.8,2.5-4.4,6.9c-10,17.3-15.3,37.1-15.4,57.2c-0.2,37-0.6,129.6,1,146C86,802,51.3,811.3,36,799z"
	/>
<linearGradient id="SVGID_2_" gradientUnits="userSpaceOnUse" x1="79.3374" y1="695.7166" x2="235.4" y2="695.7166" gradientTransform="matrix(1 0 0 1 0 32)">
	<stop  offset="0" style="stop-color:#89C6B7"/>
	<stop  offset="0.9949" style="stop-color:#FFFFFF"/>
</linearGradient>
<path style="fill:url(#SVGID_2_);" d="M86.5,739.1c6-16.8,17.8-31,33.1-40.2c16.5-9.8,38.7-21.5,57.6-26.3c0,0,52.1-13.7,58.2-19.8
	c0,0-21.4,22.2-45.7,38c0,0-33.5,34-37.2,40.4c0,0-45.3,56-66.6,70.8c-9.8,6.8-6.7-43.2-3-53C83,749,83.7,746.9,86.5,739.1z"/>
<path style="fill:#4C8E88;" d="M0.8,612.8c0,0,26.7,37.1,26.5,59.8c0,0-3.2,18.7-5.8,35.3c-2.7,17.6-0.7,35.7,6.3,52.1
	c1.7,3.8,3.4,7,5,8.6c0,0-17.2,31.3-16,51.1l-16,1.1C0.8,820.8,0.8,612.8,0.8,612.8z"/>
<path style="fill:#4C8E88;" d="M156.2,822.2c0,0,0.2-35.2,5.2-50.1c0,0,11-42,12.2-55.8c0,0,2.8-9.7,10.1-12.9
	c0,0-1.2,18.6,5.3,29.5c0,0,10.9,17.8,12.1,40.4v48.9L156.2,822.2L156.2,822.2z"/>
<linearGradient id="SVGID_3_" gradientUnits="userSpaceOnUse" x1="8.8" y1="586.8091" x2="87.3336" y2="586.8091" gradientTransform="matrix(1 0 0 1 0 32)">
	<stop  offset="0" style="stop-color:#89C6B7"/>
	<stop  offset="0.9949" style="stop-color:#FFFFFF"/>
</linearGradient>
<path style="fill:url(#SVGID_3_);" d="M8.8,620.7c0,0,3.5-25.6,14.1-23.2c0,0,6.1,2.7,0,19.2c0,0,3.5-2,8-7.7c0,0,13.8-23.2,19-19.8
	c0,0,0.7,4-5.4,11.7c0,0-6.7,12.5-2.7,10.4c0,0,13.9-10.9,14.1-15.2c0,0,9.3-11.2,11.5-9.9c0,0,2.5,6.4-2.6,10.4
	c0,0-9.7,10.1-8.3,11.2c0,0,6.1,0.3,9.6-6.4c0,0,13.1-17.1,17.1-17.1c0,0,4.1-4.8,1.9,5.6c0,0-4.8,11.2-8.8,12c0,0-5.3,2.4-4.8,5.9
	c0,0,13.7-4.5,15.9-1.1c0,0,1.3,4.1-11.6,10.4c0,0-20.2-2.4-20.8,0c0,0,2.7,5.3,13.6,8.5c0,0,6.1,8.8-1.1,8.8c0,0-18.6-4.3-21.6-6.9
	c0,0-10.1-4-6.1,0.3c0,0,15.5,9.1,19.4,9.5c0,0,6.1,6.5-5.1,5.7c0,0-18.6-5.3-20-7.5c-1.3-2.1-11.7-5.1-3.7,3.2
	c0,0,22.4,7.7,23.4,12.3c0,0,2.1,6.4-16.3,1.7l-16-3.2C21.6,649.6,12,627.9,8.8,620.7z"/>
<path style="fill:#89C6B7;" d="M14,626.6c0,0,39.3-18.9,50.8-16.3c0,0-45.4,18.9-48.6,22.4L14,626.6z"/>
<path style="fill:#4C8E88;" d="M136.4,435.1c0,0-23.4,9.2-37.2,0l-9.4-9.4c0,0,12.1-3.2,19.1,0c0,0,16.1,2.6,21.8,6L136.4,435.1z"/>
<path style="fill:#4C8E88;" d="M137.4,437.4c0,0-27.8-18.3-30-31.2l-1.5-9.4c0,0,8.7,1.7,12.4,2.7c0,0,13.9,8.9,16.6,16.4
	c0,0,9.4,14.9,9.4,17.2v4.3H137.4z"/>
<path style="fill:#4C8E88;" d="M140.9,435.1c0,0-14.4-43.6-7.2-63.8c0,0,15.4,11.8,17.4,20.9c0,0,5.2,19.3,2.5,36.2
	c0,0-0.2,6.9-2,8.9L140.9,435.1z"/>
<linearGradient id="SVGID_4_" gradientUnits="userSpaceOnUse" x1="145.3055" y1="374.55" x2="171.0869" y2="374.55" gradientTransform="matrix(1 0 0 1 0 32)">
	<stop  offset="0" style="stop-color:#89C6B7"/>
	<stop  offset="0.9949" style="stop-color:#FFFFFF"/>
</linearGradient>
<path style="fill:url(#SVGID_4_);" d="M147.8,437.4h10.7c0,0,14.6-18.2,12.4-33c0,0-2.5-19.8-8.9-28.7c0,0-13.9,13.1-15.9,21.1
	c0,0-1.7,17.8,0,29.3L147.8,437.4z"/>
<path style="fill:#4C8E88;" d="M168.4,437.4c0,0,24-23.3,18.1-42.1c0,0-4.7-16.9-10.9-19.6c0,0-2.7,12.6-6.7,17.9
	c0,0-11.9,19.1-10.4,43.9L168.4,437.4L168.4,437.4z"/>
<path style="fill:#89C6B7;" d="M171.1,435.9h8.2c0,0,17.1-15.1,17.1-23.1c0,0,3.5-9.9,0-18.8l-7.7,12.5L171.1,435.9z"/>
<linearGradient id="SVGID_5_" gradientUnits="userSpaceOnUse" x1="347.1741" y1="419.6248" x2="459.264" y2="419.6248" gradientTransform="matrix(1 0 0 1 0 32)">
	<stop  offset="0" style="stop-color:#89C6B7"/>
	<stop  offset="0.9949" style="stop-color:#FFFFFF"/>
</linearGradient>
<path style="fill:url(#SVGID_5_);" d="M414.2,472.1c0,0-1.3,0.7-6.5,3.9c-5.2,3.3-9.8,2.6-12,0c-2.3-2.6-1.3-8.5,0-9.1
	s-4.2,3.6-8.5,2.6s-5.5-3.9-4.2-7.2c1.3-3.3,5.2-8.1,1-5.9s-2,7.2-9.8,7.5s-15.3,4.2-15.3,0.3c0-3.9-2.9,0.7-6.8-2.3
	c-3.9-2.9-7.2-10.7-2.9-12.4c4.2-1.6,3.9-0.7,2-5.9c-2-5.2,0.3-8.5,6.8-8.5s8.5-2.9,12-4.6s-6.5-4.9,4.2-4.9s14.3-2.6,18.9,3.3
	s6.5,8.5,10.1,8.5s3.3,9.8,8.8,6.8s12.4-9.4,12.7-4.6s2,9.8,8.5,4.2c6.5-5.5,10.1-4.9,9.8,0.3c-0.3,5.2-3.3,9.8,3.3,4.9
	s-1.6,5.5,3.6,5.5s16.9,3.9,2.9,4.6s-16.1-0.3-17.6,4.2C433.4,468.2,414.2,472.1,414.2,472.1z"/>
<g>
	<path style="fill:#89C6B7;" d="M429.5,465.6c-0.2,0-0.4-0.1-0.5-0.3c-0.1-0.2-13.1-17.4-34.7-21.9c-0.2,0-20.9-2.5-31,6.4
		c-0.3,0.2-0.7,0.2-0.9-0.1c-0.2-0.3-0.2-0.7,0.1-0.9c10.5-9.2,31.2-6.8,32.1-6.7c22.2,4.6,35.5,22.2,35.6,22.4
		c0.2,0.3,0.2,0.7-0.1,0.9C429.8,465.6,429.6,465.6,429.5,465.6z"/>
</g>
<linearGradient id="SVGID_6_" gradientUnits="userSpaceOnUse" x1="337.0284" y1="375.228" x2="440.456" y2="375.228" gradientTransform="matrix(1 0 0 1 0 32)">
	<stop  offset="0" style="stop-color:#89C6B7"/>
	<stop  offset="0.9949" style="stop-color:#FFFFFF"/>
</linearGradient>
<path style="fill:url(#SVGID_6_);" d="M432.7,399c0,0-12.1-9.8-16.6-9.5c0,0-10.3-3.3-5.9,3c0,0-11.2-7.7-20.7-7.7c0,0-7.7-0.9,0,5
	c0,0-8.6-2.1-16.9-2.1c0,0-14.2,0.5-2.1,7.9c0,0-17.4-3.8-20.1,1.3c0,0-2.1,0.6,3,3.8c0,0-18.6,1.4-16.3,13.1c0,0-0.6,10.1,9.9,6.5
	c0,0,16.4-6.3,17.3-10.1c0,0-14.8,12.7-5.9,13.9c0,0,12.4,0.6,21.3-13.6c0,0-14.8,18.1-5.6,15.4c0,0,15.1-2.7,16.6-10.1
	c0,0-8.6,11.8-3.3,13.9c0,0,17.7,0.6,26-10.9c0,0,8.2-12.5,13.6-11.6c0,0,11,0.3,13-2.3C442.2,402.2,432.7,399,432.7,399z"/>
<g>
	<path style="fill:#89C6B7;" d="M407.9,407.9c-0.1,0-0.1,0-0.2,0c-0.2-0.1-24.4-7.3-44.8-4.1c-0.4,0.1-0.7-0.2-0.8-0.6
		c-0.1-0.4,0.2-0.7,0.6-0.8c20.7-3.2,45.1,4.1,45.4,4.1c0.3,0.1,0.5,0.5,0.4,0.8C408.4,407.7,408.2,407.9,407.9,407.9z"/>
</g>
<path style="fill:#4C8E88;" d="M400.7,391.5c0,0-15.4-13-2.7-13.3h8c0,0-19.6-11.5-9.5-13.9H408c0,0-14.5-11.5-11.5-16.3
	c0,0,1.3-8.3,9.5-2.7l5.9,3.8c0,0-6.2-16-2.4-19.5c0,0,3.8-8.6,9.2-3.8c0,0,5.9-2.1,9.2,1.8c0,0,4.7,10.6,3,15.7
	c0,0,1.5-12.7,5.6-7.1c0,0,2.7,11.8,1.5,21.7c0,0,6.6-10.5,8.9-5.5c0,0,6.2,21.5,0,39c0,0-2.4,7.3-9.8,10.9
	C437.1,402.4,412.5,404.7,400.7,391.5z"/>
<g>
	<path style="fill:#4C8E88;" d="M429.7,371.2c-0.2,0-0.3-0.1-0.5-0.2c-0.6-0.5-13.7-13.3-8.6-42c0.1-0.4,0.4-0.6,0.8-0.5
		s0.6,0.4,0.5,0.8c-2.6,14.6-0.2,24.9,2.2,31c2.6,6.6,5.9,9.8,6,9.8c0.3,0.3,0.3,0.7,0,0.9C430,371.1,429.9,371.2,429.7,371.2z"/>
</g>
<linearGradient id="SVGID_7_" gradientUnits="userSpaceOnUse" x1="530.2836" y1="324.225" x2="565.5699" y2="324.225" gradientTransform="matrix(1 0 0 1 0 32)">
	<stop  offset="0" style="stop-color:#89C6B7"/>
	<stop  offset="0.9949" style="stop-color:#FFFFFF"/>
</linearGradient>
<path style="fill:url(#SVGID_7_);" d="M535.4,390.3c0,0-8.6-16.7-3.6-32.8c0,0,5.7-22.8,11.1-22c0,0,3.1-1.3,3.1,2.3
	c0,0,2.6-14.3,10.4-14.3c0,0,6.2-5.4,6.2,5.4c0,0-1.6,11.4-2.9,11.9c0,0,8.8-2.9,2.9,9.1c0,0,4.8,6.2,2.1,12.2c0,0-4.9,13-10.9,16.3
	C553.8,378.5,543.2,388.8,535.4,390.3z"/>
<path style="fill:#89C6B7;" d="M541,406c0,0,22.9-59.6,32-63.5c0,0,2.6-3.6,2.6,3.4c0,0,4.4-11.9,8.8-8.8c0,0,19.6,0.9-20.4,71.9
	L541,406z"/>
<path style="fill:#4C8E88;" d="M548.6,402.1c0,0,27-51,40.5-55.7c0,0,5.2-1.6,2.3,6.7c0,0,13-11.1,19.7-10.6c0,0,8-0.3,3.9,6.2
	c0,0-6.7,5.8-10.1,7.5c0,0,8.3,5.7,2.9,10.9c0,0-1.8,4.7-7.5,4.7c0,0,16.1,3.4,7.8,4.4c0,0,0,15.8-28.1,31.5c0,0-18.4,3.7-24.9,3.1
	L548.6,402.1z"/>
<g>
	<path style="fill:#4C8E88;" d="M583,377.1c-0.1,0-0.2,0-0.2,0c-0.3-0.1-0.5-0.5-0.4-0.9c0.2-0.6,5.5-14,17.2-21.6
		c0.3-0.2,0.7-0.1,0.9,0.2c0.2,0.3,0.1,0.7-0.2,0.9c-11.3,7.3-16.7,20.8-16.7,20.9C583.5,377,583.3,377.1,583,377.1z"/>
</g>
<g>
	<path style="fill:none;" d="M543.5,369.4c-0.1,0-0.1,0-0.2,0c-0.4-0.1-0.6-0.5-0.5-0.8c0.2-0.7,5.1-18,11.8-26.4
		c0.2-0.3,0.6-0.3,0.9-0.1c0.3,0.2,0.3,0.6,0.1,0.9c-6.5,8.2-11.5,25.8-11.5,26C544,369.2,543.8,369.4,543.5,369.4z"/>
</g>
<path style="fill:#4C8E88;" d="M601.8,387.9c0,0,5-8.8,18.7-15.5c0,0,10.3-8.3,12.4-5.4s-3.9,10.4,2.3,9.6s4.1,3.9,7.8,0
	c3.6-3.9-2.9-3.4,3.6-3.9s4.7-0.8,8.8-0.5s4.1,8,4.1,0.3c0-7.8-3.6-12.2,0-12.8c3.6-0.6,1.3-6.3,3.9-5.6s2.1-5.9,2.6,2.4
	s-1.3,8.8,0.5,8.3s2.1-9.3,2.1-9.3h6.2c0,0-2.6-7.5,0-4.7c2.6,2.9,2.6,6,2.6,8.9s-2.3,8.4,0,6.3s4.7-7,4.9-6.3
	c0.3,0.6-1.8,1.2,0,3.2c1.8,2.1-2.1,3.4,1.8,2.1c3.9-1.3,6.7-4.1,7.8-2.6c1,1.6,1,3.6,1.3,4.9s4.9-1,6.5,1.6s4.1,4,2.6,4.1
	c-6.2,0.5-9.3,3.1-10.6,3.6s-3.6,1.6-6.2,1.6c-2.6,0-3.4,0-5.7,2.7s-0.5,0.7-6,1.7c-5.4,1-6.5,2.3-8.6,5.4s1.3,1.8-4.1,2.5
	c-5.4,0.7-5,4-8.8,6.6c-3.9,2.6,2.6,2.6-5.7,2.6s-9.8,0-9.8,0l-5.4,6.5c0,0-3.6,1.8-10.9,2.3c-7.3,0.5-6.5,3.8-10.6,5.5
	s7,1.2-2.6,1.2s-9.9-3.1-12.4,0.1S601.8,387.9,601.8,387.9z"/>
<path style="fill:#4C8E88;" d="M487.3,441c0,0,4.5-2.9,12.7,0c0,0,10.2-42.5,25.9-39.2c0,0,19.9,0.8-4.3-14c0,0-5.6-3.4-11.2,1.4
	c0,0,4.6-7.2,13.1-4.5c0,0,8.4,1.9,5.1-4c0,0-4.8-6.1-13.8-5.6c0,0-11.3,2.7-11.8,5.6c0,0,8.7-9.2,16.6-8.1c0,0,6.9,1.4,4.3-3.9
	c0,0-3.4-9.6-13.6-6.8c0,0-10.4,0.8-12,5.6c0,0,4.6-12,10-12.3c0,0,6.6-2-1.3-6.6c0,0-6.4-6-10.2,1.3c0,0-8.5,8.8-5.6,18.8
	c0,0-2.8-9.7-0.3-22.4c0,0,0.8-13.2-10,3.7c0,0-3.8,6.8-1.9,12.5c0,0-3.2-12-8.8-19.3c0,0-7.7-8.7-7.7,6.8c0,0-0.8,20.4,2.6,22.2
	c0,0,5.6,13.7,11.8,15.7L487.3,441z"/>
<linearGradient id="SVGID_8_" gradientUnits="userSpaceOnUse" x1="202.8073" y1="495.8363" x2="322.3799" y2="495.8363" gradientTransform="matrix(1 0 0 1 0 32)">
	<stop  offset="0" style="stop-color:#89C6B7"/>
	<stop  offset="0.1469" style="stop-color:#90CABC"/>
	<stop  offset="0.367" style="stop-color:#A5D3C8"/>
	<stop  offset="0.6329" style="stop-color:#C6E4DC"/>
	<stop  offset="0.9323" style="stop-color:#F4FAF9"/>
	<stop  offset="0.9949" style="stop-color:#FFFFFF"/>
</linearGradient>
<path style="fill:url(#SVGID_8_);" d="M248,548.3c0,0-32.8,12.8-38.9,11s30.2-16.5,30.2-16.5s-20.7,3.8-27.8,2.6
	c0,0-11.8-3.3-2.4-5.7c0,0,18.1-3.3,25-1.9c0,0-24-4-28.6-8c0,0-8.8-4.7,7.4-3.5c0,0,24.5,1.9,26.9,5.7c0,0-11.1-12.2-14.8-13.9
	c0,0-17.7-10.6-19.1-13.2c0,0-10.4-12.5,7.8-4c0,0,24.9,12.4,32.3,24.5c0,0-24.5-23.6-25.2-27.5c0,0-6.4-10.5,10.1,0
	c0,0,19.8,14.3,22.1,20.1c0,0-17.2-21.2-17.7-27.3c0,0-2.1-9.7,7.8,0c0,0,13,14.8,15.3,18.6c0,0-9.9-21.4-8-26.9c0,0,3.5-7.1,8,6.4
	c0,0,9.2,17.3,9.7,22.6c0,0-0.7-16.2,2.1-22.8c0,0,4.5-10.4,6.8-10.4c0,0,5.4-3.3,1.6,17c0,0-0.2,9.2-2.1,13
	c0,0,10.6-25.4,14.6-26.1c0,0,12.2-9.2,4.9,8.2c0,0-4.2,14.4-6.4,14.6c0,0,21.4-13.9,26.1-13.9c0,0,12.5-1.2-4.2,7.8
	c0,0-13.9,12.1-18.6,12.7c0,0,16.5-7.2,21.9-7.2c0,0,11.5-2-5.4,7.2c0,0,9.9-0.6,12,2.2c0,0,5.9,5.4-11.5,7.1c0,0-11.1,2.4-16,2.4
	c0,0,16-1.9,23.6,1.2c0,0,12,5.7-4.9,12c0,0-5.2,2.1-19.8-0.7c0,0-17.9-4.2-19.8-6.1c0,0,20.5,11.8,39.8,11.8c0,0,4,0.2,2.4,2.8
	c0,0-4.7,5.2-22.1,0c0,0,22.4,8.9,22.9,11.8c0,0,7.1,9.2-19.1-1.4c0,0-16.3-9.7-21-12.7c0,0,28.7,21.2,28.7,24.7c0,0,4,7.3-12.2,2.1
	c0,0-18.1-13.4-21.9-20.7c0,0,13.9,17.4,16,21.4c0,0,6.4,14.4-7.1,5.2c0,0-17.2-16.7-17.7-24c0,0,16,22.1,12.7,25.7
	c0,0-20.9-4.9-22.6-27.1L248,548.3z"/>
<path style="fill:#89C6B7;" d="M139.3,595c0,0-16.2-4.6-19.7,1.5c0,0-2.8,4.9,6.4,5.4c0,0,12.5-0.2,15.5,0c0,0-21.2,2.4-25.2,4.9
	c0,0-7.5,3.5-7.5,6.8c0,0-2.1,3.1,9.7-1.9c0,0,7.5-2.8,11.8-1.7c0,0-10.6,7.9-10.6,12.6c0,0-2.7,4.5,5.5,1.6c0,0,14.1-6.6,14.1-7.5
	c0,0-15.1,10.1-16.3,18.8c0,0-3.1,6.3,0.7,5.5c0,0,13-15.3,21.2-19.7c0,0-13.7,11.5-15.1,19.7c0,0,0.9,4.2,8.5-3.7
	c0,0,15.6-13.5,18.1-16.8c0,0-8.2,9.6-7.9,14.1c0,0-2.9,6.4-1,8.5c0,0,11.1-7.1,11.8-14.6c0,0,2.4-8.9,4.2-8c0,0-0.9,7.1-2,12.1
	c0,0-1.6,5.5-3.7,7.4c0,0-5.2,4.2-0.5,4.7c0,0,10.5-5.1,11.5-13.4c0,0,4.5-15.6,3-18.6l2.9-2.7c0,0,17.2-15.7,17.2-21.6
	c0,0,1.9-5.9-5.2,0c0,0-9.2,13.7-13.4,13.7c0,0,13.2-15.4,13.2-18.8c0,0,2.8-8.8-6.8-2c0,0-8.2,9.2-10.4,16.3c0,0,5.2-14.9,4-18.9
	c0,0-3.1-9-8,4.6c0,0-3,12.1-2.8,16.7c0,0-2.3-17.5-6.2-17.7c0,0-6-5.7-5.9,3.3c0,0-1.1,7.1,2.2,10.8c0,0-6.4-11.1-11.3-15.8
	c0,0-6.4-6.4-4,4.7c0,0,3.3,9,5.4,10.4L139.3,595z"/>
<linearGradient id="SVGID_9_" gradientUnits="userSpaceOnUse" x1="930.4407" y1="448.4035" x2="970.4847" y2="448.4035" gradientTransform="matrix(1 0 0 1 0 32)">
	<stop  offset="0" style="stop-color:#89C6B7"/>
	<stop  offset="0.9949" style="stop-color:#FFFFFF"/>
</linearGradient>
<path style="fill:url(#SVGID_9_);" d="M930.9,485.5l6.2,4.4c-2.1-1.6,0-14,0-14c1.9,0.2,4.2,5.5,4.2,5.5c-0.4-8.1,9.9-32.7,9.9-32.7
	c4.6,3.9,3.9,32.7,3.9,32.7c0.5-7.2,10.4-13.3,10.4-13.3c0.6,3.2-5.9,23.3-5.9,23.3c1.8-4.2,10.8-7.9,10.8-7.9
	C971,486.7,958,509,958,509c-0.3,0.5-1.2,1.3-1.2,1.3c-1.3,1.4-7.3,0.5-10.3,0.7c-3.3,0.2-5,1.2-8.8,1.1c-2.8-0.1-3.6-2.5-4.6-3.1
	c-0.3-0.2-0.5-0.4-0.7-0.7c-0.6-1.3-2.3-5.3-1.5-9.1c0,0,0.3-4.1-0.2-6.9C930.7,492.3,930,487.6,930.9,485.5z"/>
<path style="fill:#89C6B7;" d="M972.1,487.7c0,0-2.8,10.8,0,15.6l-2.9-0.9c0,0-1.6,7.6,1.4,9.8c0,0,2.5,0.5,4.9,1
	c2.5,0.4,6.5-0.3,7.1-0.7c1.2-0.8,4.8,0.9,4.3-1c0,0,4.8-20.9,3.4-26c0,0-10.3,4.2-10.3,12.7C980.1,498,975.4,487.7,972.1,487.7"/>
<path style="fill:#4C8E88;" d="M900.7,515.7c0,0,6.5-7.7,6.5-14.8c0,0,1-5-0.7-8.8c0,0-6,0.7-7.1,4.1c0,0,7.4-10.3,5.5-15.9
	l-1.4-3.4c0,0-8.3,5.3-8.3,9.7c0,0,1.2-11.3-1.6-15.4c0,0-2.8-6.5-6.9-8.8c0,0-5.8,7.4-6.4,20.8c0,0-2.1,0.1-3.4-3.1
	c0,0-0.9,3.4,0,10.1c0,0-1.2,2-3.5-2.2c0,0-6.7,15.1,6.5,25.4c0,0,1.2,3.8,5.6,3.8c4.4-0.1,4.4-1,6.7-0.3s2.5,0,5.2,0
	S900.7,515.7,900.7,515.7z"/>
<path style="fill:#89C6B7;" d="M861.6,515.8c-3.2-4.1-8.5-12.2-8.5-15.1l6.7,4.4c0,0-5.7-10.6-5.5-15.9c0,0,4.6,7.6,6.9,7.6
	c0,0-4.4-14.5-2.4-18.2c0,0,4.7,8.3,5.7,8.3c0,0,2.5-17.9,4.9-17.3c0,0,7.1,5.5,3.7,13.7c0,0,5.3-2.6,5.3-6.1c0,0,4.4,12.4,1.2,15
	l5.8-2.1c0,0,2.7,17.1-2.5,18.4c0,0,2.7,2.7,4.5,2.2c0.2-0.1,0.5,0.1,0.5,0.3c0.2,1.6,0.2,6.4-7.7,7.2c-0.8,0.1-1.6-0.1-2.4-0.4
	c-0.5-0.1-1.4-0.2-3.3,0.3c-0.4,0.1-0.9,0.2-1.3,0.2l-6.2,0.5l-3.6-0.4C862,518.4,862.6,517.1,861.6,515.8z"/>
<path style="fill:#4C8E88;" d="M850.4,517.2c0,0-10.2,1.6-10.5-7.3c0,0-5.5-4.9-6.4-10.2c0,0,4.8-0.6,6.2,1.4c0,0-4.4-1.5-5.5-8.8
	c0,0-1.9-14.1,0.5-10.3l0.2-11l2.8,6c0,0-0.4-15.4,1.4-13.8c0,0,4,9,4.1,11.3c0,0,3.1,3.7,2.9,6.7c0,0,3.2-9.7,6.2-8.7
	c0,0,2.3,5.8,2.3,9.5c0,0,3.4,9.1,0,15.8c0,0,7.6-3.5,7.6-6.9c0,0,2.8,9.6,0,12.9c0,0,4.9-1.6,4.9,0c0,0,3.5,11.9-3.6,13.4H850.4z"
	/>
<linearGradient id="SVGID_10_" gradientUnits="userSpaceOnUse" x1="589.3846" y1="440.9985" x2="695.0321" y2="440.9985" gradientTransform="matrix(1 0 0 1 0 32)">
	<stop  offset="0" style="stop-color:#89C6B7"/>
	<stop  offset="0.9949" style="stop-color:#FFFFFF"/>
</linearGradient>
<path style="fill:url(#SVGID_10_);" d="M594.3,468.2c0,0,14-1.6,16.1,16.2c0,0-7.5-24.3-6.3-29.1c0,0,6-3.1,18,28
	c0,0-1.7-26.3,1.7-25c0,0,4.1,6.8,0-11.3c0,0-9.2-19.2-1-13.3c0,0,13.7,6.2,14,23.3c0,0-1-39.8,0-39c0,0,7.9,5,11.8,25.6
	c0,0-0.2-10.8,0-17c0,0,7.7,3.7,7.7,14.1c0,0,6.8-18.3,9.9-15.9c0,0,4.1,29.4,0,48.9c0,0,5.5-21.9,9.6-22.2c0,0,5.8,12,0,20.9
	l5.8-11.3c0,0,3.1-6.1,3.1,4.8c0,0,5.8,18.1,0,22.7c0,0,14.4-7.3,9.2,5c0,0,2.6,26.9-16.5,26.9c0,0-6,6.3-16.6,5.9
	c0,0-8,2.3-20.2,1.4c0,0-10.6-0.3-17.1-5.1c0,0-10.6-9.2-20.2-18.8c0,0-20.4-12.9-11.8-13.1c0,0,9.4-5.9,12.4-3
	C603.9,487.8,589.2,477.3,594.3,468.2z"/>
<linearGradient id="SVGID_11_" gradientUnits="userSpaceOnUse" x1="679.8304" y1="391.7531" x2="734.2502" y2="486.011" gradientTransform="matrix(1 0 0 1 0 32)">
	<stop  offset="0" style="stop-color:#89C6B7"/>
	<stop  offset="0.2416" style="stop-color:#6DADA2"/>
	<stop  offset="0.5065" style="stop-color:#55968F"/>
	<stop  offset="0.6693" style="stop-color:#4C8E88"/>
</linearGradient>
<path style="fill:url(#SVGID_11_);" d="M699.7,412.5c0,0-13.5,6-6.1,30.3c0,0-1.4-6.6-5.9-6c0,0-6.2,7.7,0,16.6
	c0,0-10.9-9.2-9.2-2.7c0,0,0,10.6,2.4,15.4c0,0-13.3-2.9-5.5,7.9c0,0-11.1,5.3-2.5,9.8c0,0-4.4,3.1,4.2,14.1c0,0-4.4,14,7.5,15.7
	c0,0,23.2,4.8,29,4.8c0,0-2.1,3.8,13.7-1.4c0,0,15.7-0.9,17.8-6.6c0,0,9.6-8.8,9.6-13.2c0,0,4.8-12.3,0-12.5c0,0-4.8,2.9-8.9,5
	c0,0-10.9-1.9-7.2-2.8c0,0,13.7-0.9,14-6c0,0-1-6.5-4.8-6.5c0,0,4.1-10.6,0-10.1c0,0-3.8,2.2-6.2,3.4c0,0,3.8-6.9,1.4-11.6
	c0,0-2.4-4.6-6.2,5.6c0,0,5.5-12,2.7-19.8c0,0,0.7-13-5.8,0c0,0-8.9,7.6-8.9,14.2c0,0,1-3.8-0.7-16.4s-3.4-20.1-7.9-20.8
	c0,0-8.5,5.7-8.5,17.9C707.9,436.8,706,405.7,699.7,412.5z"/>
<linearGradient id="SVGID_12_" gradientUnits="userSpaceOnUse" x1="729.7322" y1="446.4445" x2="777.3478" y2="446.4445" gradientTransform="matrix(1 0 0 1 0 32)">
	<stop  offset="0" style="stop-color:#89C6B7"/>
	<stop  offset="0.9949" style="stop-color:#FFFFFF"/>
</linearGradient>
<path style="fill:url(#SVGID_12_);" d="M746.5,511.8c0,0,19.2,0.2,24.3-23.6c0,0,10.6-10.5,4.8-10.5c0,0-1.7-2-6.5,1.6
	c0,0,3.1-1.3,3.1-10.3c0,0,2.1-15.1-3.4-11.6c0,0-4.1,0.8-6.8,14.2c0,0,3.2-9.9-3.7-20.2c0,0-6.9-14.2-7.9,0c0,0-1,13,4.1,22.2
	c0,0-5.8-23.6-9.9-24.5c0,0-10.9-5.3-7.9,19.8c0,0-14,16-2.1,29.4L746.5,511.8z"/>
<path style="fill:#4C8E88;" d="M780.7,491.8c-1.1-6.3-2.1-16.5,1.4-24.8c0,0-4.8-13.6-1.2-13.9c0,0,2.9,0.7,4,4.3
	c0,0,1-13.5,4.1-12.3c0,0,5.5,2,6.2,21.9c0,0-0.7,9.8-2.1,11.4c0,0,7.2-8.1,7.9-12c0.2-1,0.7-1.9,1.6-2.4c1.3-0.8,2.7-0.2,0.8,9.2
	c0,0-5,18.5-11.4,20.5c0,0,6.6-2.6,8.3-5.6c0,0,7.9-3.7-1.7,7.3c0,0-4.8,2.4-10.6,2.4l0,0C784.4,497.9,781.3,495.3,780.7,491.8z"/>
<path style="fill:#89C6B7;" d="M1092.7,511.3c0,0,3.1,2.5,5.4-1.2V492c0,0,8.1-7.6,3.1-4.7l-3.4,1.4v-10.8v-5.6c0,0,7.7-6.1,5.1-6.4
	l-4.8,2v-6c0,0-2.6-3.7-2.9,0l-0.7,17.4c0,0-4.3-4.3-3.1-1.4l3.1,6.2v14.3c0,0-7.7-3.7-4.4,0l3.7,5.4L1092.7,511.3z"/>
<path style="fill:#89C6B7;" d="M1106.1,503v-9.1l-2.7-3.1c0,0-2.5-1.7,2.7,0v-11.4c0,0-6.2-3.3-2.7-3.3h2.7v-14.7
	c0,0-4.7-6.6-1.9-5.6c0,0,3,1.5,3.4,2.1s-0.4-0.6-0.4-0.6s1-4.6,2.7-4.4c0,0,3.5-0.2,1.9,3.3c0,0,4.4-3.1,4.2,0.2c0,0-2.7,3.8-4.8,4
	l-0.2,11.2c0,0,5.8-2.8,2.9,0.9l-3.3,3.5v11.5c0,0,5.4-1.6,4.2,0c0,0-2.5,4.5-4.2,4.5v11C1110.6,503,1109.4,505.9,1106.1,503z"/>
<path style="fill:#89C6B7;" d="M1127.8,510.6c0,0,0.2,3.5,5.2,0l0.7-26.9c0,0,5.7-4.5,5.7-5.2c0,0,1.9-3.2-4.3,0l-1.4,0.8v-6.5
	c0,0-0.5-1.8-3.5-0.7l-1.1,19.3c0,0-1.6-1.7-2.1-1.4c0,0-0.7-0.5,1.1,6L1127.8,510.6z"/>
<path style="fill:#89C6B7;" d="M1140.2,505.9v-1.6c0,0-4.3-2.6-3-3.1c0,0,1.5-1.4,3-1.2l0.5-6.8l1.5,2.3v-13.3c0,0,1-1,2.5,0
	c0,0,2.9-2,3.3-0.9c0,0,1.1,0.7-1.4,3l-0.4,27.8c0,0-2.8,1.3-5.9,0.1L1140.2,505.9z"/>
<path style="fill:#4C8E88;" d="M1158.4,530.8c0,0-9.6-8-8.9-10.9c0,0-2.3-5.2,7.3,0c0,0,7.1,4.3,8.9,7.3c0,0-5.2-10-3.4-23.9
	c0,0,3-13.9,7.3-14.1c0,0,4.6-3.1,2.7,11.9c0,0,2.3-4.3,4.6,0c0,0,4.6,5.6,3.6,11.6c0,0,0,10.6-2.3,12.7c0,0-3.2-1.6-5,0.5
	c0,0-3.4,3.6-5.5,2.5C1167.8,528.3,1166.4,532,1158.4,530.8z"/>
<linearGradient id="SVGID_13_" gradientUnits="userSpaceOnUse" x1="1147.7355" y1="380.5949" x2="1248.3011" y2="438.6565" gradientTransform="matrix(1 0 0 1 0 32)">
	<stop  offset="0" style="stop-color:#89C6B7"/>
	<stop  offset="0.2416" style="stop-color:#6DADA2"/>
	<stop  offset="0.5065" style="stop-color:#55968F"/>
	<stop  offset="0.6693" style="stop-color:#4C8E88"/>
</linearGradient>
<path style="fill:url(#SVGID_13_);" d="M1232.2,477c0,0-12.2,4.3-12.2,0.9s6.7-17.2,11.3-17.2c0,0-12,13.8-16.6,13.8
	c0,0-8.9,3.7-9.3,0.3c0,0-2-9.6,10.5-15c0,0-10.7,11.6-14.8,11.2c0,0-6,0.1-5.6-5c0,0,1.3-9.3,9.6-11.7c0,0-10.3,7.7-14.2,7.7
	c0,0-10.1,2.7-10.3,0.1c0,0,10.7-12.2,14.1-12.2c0,0,9-7.2,1.9-7.2c0,0-3,0.1-6.7,3.9c0,0-10.2,9.2-14.8,9.2c0,0-6.3,4-6.2-2.9
	c0,0,1.6-7.3,6.7-7.2c0,0,8.6-5,4.9-5.4c0,0-4.1,0.4-8,3.3c0,0-6.2,6.3-16,6.3c0,0-5.9,2.8,0-5.4c0,0,4.7-6.7,6.7-7
	c0,0-8,6.7-12.1,6.7c0,0-7.7,1-8.6-1.6c0,0-1.2-6.5,4-6.7c0,0-9.4-0.5-9.6-1.6c-0.2-1-2.3-3.4,4.2-4.1c6.5-0.8,9.8,0.5,10.1-1.3
	c0.3-1.8-3.9-4.5,0.3-4.1c4.1,0.5,11.7,2.8,13.5,2.5s-1.3-3.4-2.6-4.7c-1.3-1.3-2-3.6,2.6-3.6s9.8,6.1,13.9,5.8
	c4.1-0.3,3.6-5.5-0.3-5.8s-10.1-4.8-2.6-5.1c7.5-0.3,9.6-3.9,12.7,1.2c3.1,5.2,4.9,9.2,9.6,9.6c4.7,0.5-6.7-5.5,0.5-5.5
	s11.3-2.3,13.3,2.1s6.9,9.2,6.9,12.1s5.2,7.3-0.3-6.9c-5.4-14.2,9.8,0.3,9.8,0.3s12.1,9.3,12.4,15.5c0,0,9-10.9,8.5,20.7
	C1249.4,462.9,1252.2,478.7,1232.2,477z"/>
<path style="fill:#4C8E88;" d="M1242.2,460.2c0,0-11.5-17.2-33-24.2c0,0-18.6-6.5-36.5-5.4c0,0,40.8,3.7,57.7,22.2l12.3,11.7
	L1242.2,460.2z"/>
<linearGradient id="SVGID_14_" gradientUnits="userSpaceOnUse" x1="1213.0365" y1="342.6953" x2="1280.1876" y2="342.6953" gradientTransform="matrix(1 0 0 1 0 32)">
	<stop  offset="0" style="stop-color:#89C6B7"/>
	<stop  offset="0.9949" style="stop-color:#FFFFFF"/>
</linearGradient>
<path style="fill:url(#SVGID_14_);" d="M1240.9,431.9c0,0-28.2-21.7-27.1-29.4c0,0-4.2-8.3,7.1,0l16.2,9.9c0,0-12.9-9.3-13.4-17.1
	c-0.5-7.7,0.3-13.2,3.4-10.6s11.3,7.2,11.3,12.1s14.8,14.2,13,9.8c-1.8-4.4-8.8-9.3-11.1-15.2s-6-13.9-6.3-19.9
	c-0.4-5.9-0.2-2.1,4.5,4.1s8.6,15.8,8.6,10.6c0-5.2,1.3-5.7-2.8-13.7s-9.8-16-8-19.9s2.7-1,6.6,4.9c4,5.9,5.8,11.6,6.9,5.9
	s-1.2-3.4-3-15s0-21.2,3-16.8c3,4.4,1.4,13.4,5.8,13.4s4.6,7.2,4.6-3.9s-3.6-16.8,0-16.8s0,1.3,3.9,7s4.1,4.6,4.1-1.5
	s-4.6-12.1,0-12.1s6.7-4.6,6.7,2.1s1,12.4,1.8,8.8s3.6-10.8,3.6-5.2s0,58.9,0,58.9s-1.5-0.3-4.4-2.8c-2.8-2.6-8.8-2.8-9.8-1
	s4.1,5.7,7.5,5.7s4.9,5.9,1.3,6.5s7.1,4.6,4.3,9.4c-0.8,1.2-5,1.8-8,5c-2.4,2.5-7.9,0.6-8,5c-0.1,3.7,5.3,13.8,3,16
	c-2.7,2.7-7.3,4.7-11.1,6c-4.1,1.4-8.5,1.5-12.7,0.3L1240.9,431.9z"/>
<path style="fill:#89C6B7;" d="M1249.6,386.2c0,0,2.5-25.6,23.1-51.4c0,0-14.1,23-18.6,39.2c0,0-2.4,10.8-2.1,14.6L1249.6,386.2z"/>
<linearGradient id="SVGID_15_" gradientUnits="userSpaceOnUse" x1="1184.8287" y1="605.9083" x2="1270.3188" y2="605.9083" gradientTransform="matrix(1 0 0 1 0 32)">
	<stop  offset="0" style="stop-color:#89C6B7"/>
	<stop  offset="0.2416" style="stop-color:#6DADA2"/>
	<stop  offset="0.5065" style="stop-color:#55968F"/>
	<stop  offset="0.6693" style="stop-color:#4C8E88"/>
</linearGradient>
<path style="fill:url(#SVGID_15_);" d="M1250.6,666.3c0,0,21.5-13.6,19.6-17.4c-1.9-3.8,3.2-8.9-5.7-1.9s-12.3,8.2-16.5,13.3
	c-4.1,5.1,20.3-20.9,20.3-23.1s-5.7-5.7-10.8,0s-11.4,11.1-11.4,11.1l-7.9,7.3c0,0-5.7,5.7-5.7,10.8s21.2-29.1,21.2-37.7
	c0-8.5,1.4-19.3-2.3-11.4s-9.4,6.3-10.7,18c-1.3,11.7,0.9,7.1-2.5,15.8s1.3-22.8,0-32s-3.2-23.1-5.7-9.5s-9.5,8.2-9.8,21.5
	s-1.6,5.4,0,18.7s-1.3-35.4-3.8-35.8c-2.5-0.3-6.9,12-6.9,12l3.5,20.6l0.6,7.3c0,0-1.9-14.2-12.3-14.6c-10.4-0.3-26.6-5.7-14.9,2.2
	s3.2,5.4,15.2,8.9s16.8,10.4,5.1,9.8c-11.7-0.6-17.1-1.3-4.7,4.7c12.3,6,9.2,7,19.3,7C1233.9,672,1250.6,666.3,1250.6,666.3z"/>
<path style="fill:#4C8E88;" d="M1174.3,681.5c0,0,12.6-2.2,16.6-4.1c4-1.9,7.5,3.5,11,0s11.1-7.6,3.8-7.3s2.2-7.6,0.3-13.6
	s-2.8-9.2-5.7-3.8c-2.8,5.4-9.6,15.5-8.8,9.2c0.8-6.3,11.5-16.3,6.9-16.5s-6.3-4.7-9.5,3.8s-9.2,7.8-8.3,13.6
	c1,5.8,5.2-13.9,5.1-18.7s-3-14.4-5.1-6.1c-2.2,8.4-6.6,5.8-6.3,15.7s-3.5,10.4-3.5,12.3c0,1.9,1.9-20.3,0-29.4
	c-1.9-9.2-5.5-16.1-5.9-11.1s-3.6,6.6-4.2,14.6c-0.6,7.9-4.1,13.3-6,1.3s-5.4-12.7-5.4-12.7s-4.1-3.8-4.1,9.3s-1.5,10,3,16.9
	c4.6,7-1.8-6.6-8.6-8.5c-6.8-1.9-9-16.5-6.8-1.9s2.2,14.6,2.2,14.6s0.3-4.4-8.2-4.4s-24.4-0.6-13.9,3.2c10.4,3.8,13.9,5.1,13.9,5.1
	s0.9,8.2,12.8,10.8s11.1,4.7-6.4,4.7s-29.2,2.8-16.2,3.2c13,0.3,15.8,2.5,29.4,2.5S1174.3,681.5,1174.3,681.5z"/>
<path style="fill:#4C8E88;" d="M1233.3,669c0,0-19.1-34.2-36.6-45.7c0,0-12.2-9.2-25.8-15.7l-3,1.6c0,0,26.1,16.6,36.1,27.2
	c0,0,17.1,21.4,23.6,32.5h5.7L1233.3,669L1233.3,669z"/>
<linearGradient id="SVGID_16_" gradientUnits="userSpaceOnUse" x1="1109.3882" y1="573.1409" x2="1202.8646" y2="573.1409" gradientTransform="matrix(1 0 0 1 0 32)">
	<stop  offset="0" style="stop-color:#89C6B7"/>
	<stop  offset="0.9949" style="stop-color:#FFFFFF"/>
</linearGradient>
<path style="fill:url(#SVGID_16_);" d="M1170.9,607.6c0,0,13.8,3.5,18.6-1.3c0,0,9.5-6.7,12.1-8c0,0,5.3-4.7-5.8-4.4
	c0,0-5.6-0.3-12,5.2c0,0,3.7-3.9,5-8.6c1.4-4.6,1.6-8.7-0.6-8.7c0,0-4.5-1.2-8.2,4.5c0,0-6.5,4-8.2,9c0,0,5.7-4.4,7.1-12.1
	c0,0,1.6-11.8-0.1-12.4c0,0-9.4,10.5-10.2,16.2c0,0,0.7-13.5-2-17.8c0,0-3.4-7.5-4.9,1.6c0,0-2.6,8.9-0.7,20c0,0-1.8-6.5-7.5-14.7
	c0,0-5.4-11-9.1-12.3c0,0-2.6-4.6-1,7.6c0,0,2.9,13.8,7.4,21.1c0,0-18.7-18.5-22.9-20.6c0,0-5.2-4.8-11-4.2c0,0-2.3-1.4,1.6,5.9
	c0,0,12,18.8,18.4,22.7c0,0,6.9,3.5,9.9,4.5c0,0-11.8-3.4-20.4-3.4c0,0-9.9-0.1-15.5,2.3c0,0-4.2,0.8,1.4,3.5c0,0,8.9,4.3,24.5,4.3
	c0,0,5.9-0.3,8.3,0c0,0,0-2.8-9.7,3.4c0,0-11.8,3-15.1,11.7c0,0-5.4,5.2-0.5,5.2c0,0,10.3-3.4,15-5c0,0,2.7-1.1,6.1-2.3
	c0,0-5.9,3.4-8.2,8.2c0,0-2.9,4.9-2.9,8.6c0,0-1.4,2.6,6.3-2.9c0,0,15.1-7.6,17.8-12.3c0,0,3.3-2.9,3.8-6c0,0-4,7.1-4.2,13.1
	c-0.2,5.9-0.3,14.3,0.3,15.9c0.5,1.6,6.5,4.1,7.6,0c0,0,2.9-15.1,1.8-21.5c0,0,0.4-6.1,0.1-7.5s0,0.5,2.9,3.9c0,0,5.4,4.9,10.6,4.6
	c0,0,2.7-0.3-2.5-7.5l-6.5-8L1170.9,607.6z"/>
<path style="fill:#4C8E88;" d="M1169.4,605.2c0,0-0.2-3.3-1.5-3.8c0,0-2.9-0.6-5.8-0.8c0,0-5.1-1-7.2,0.8c0,0-1.7,1.1-1.7,4.6
	c0,0-1.4,3.1,1.3,3.9c0,0,3.8,2,5.9,1.8c0,0,6,1.6,7.5-2.5C1167.9,609.3,1169.3,608.4,1169.4,605.2z"/>
<path style="fill:#89C6B7;" d="M1041.8,397.1c0,0-7-23.1-6-30.2c0,0,10.7,2.7,13.1,11.8c0,0,6.3-17.8,9.4-16.9
	c0,0,6.8,15.4,3.8,22.8c0,0,7.6-19.6,11.9-19.6c0,0,5,12.1,2.7,21.2l9.8-9.8c0,0,2,5.9-1.6,14.5c0,0,1.2,4.3-13.7,6.3
	c0,0-8.2,5.5-18.8,2.7C1052.4,399.9,1049.2,401.8,1041.8,397.1z"/>
<path style="fill:#081F3F;" d="M976.1-57.8l17.8,27.9c0,0,1.7,7.6,7.3,0l10.7-27.9h34.7l-6.5,21.4c0,0-4.5,9.9,11.3,5.1l38.3-26.5
	h44.2l-77.2,68.2c0,0-14.7,8.5-15.2,26.5l1.4,442.3c0,0-9.4,2.2-18.6,2.1c0,0-12,0.2-21.8-3.3L985.9,81.7l-66.6-65.5l5.6-20.1
	l58.6,43c0,0,4.5,1.6,4.7-2.6l0.3-15.5c0,0,0.9-5.4-6.3-14.5l-40.4-64.3C941.8-57.8,976.1-57.8,976.1-57.8z"/>
<linearGradient id="SVGID_17_" gradientUnits="userSpaceOnUse" x1="340.6985" y1="571.1473" x2="484.6926" y2="571.1473" gradientTransform="matrix(1 0 0 1 0 32)">
	<stop  offset="0" style="stop-color:#89C6B7"/>
	<stop  offset="0.9949" style="stop-color:#FFFFFF"/>
</linearGradient>
<path style="fill:url(#SVGID_17_);" d="M477.7,643.8c0,0-20.2,18.1-29.6,17.7c0,0-4-2.3,8.4-10.7c0,0,10.5-12.4,15.1-13
	c0,0-15.7,15.7-21,15.7c0,0-5.6,2.1-5.9-0.7c0,0,3-8.5,7.3-9.3c0,0,9.3-11.1,13.9-11.1c0,0-12.5,11.6-17.6,12c0,0-3.2,2.7-5.7-0.6
	c0,0,1.9-7,11.8-11.4c0,0,4.9-4.7,9.6-4.7c0,0-13.8,8.6-25,8.6c0,0-3.9,0-5.7-1c0,0-4.9-1.8,4.9-3.6c0,0,15.1-6,22.6-6.2
	c0,0-13.3,3.9-26,2.6c0,0-10.4-1.6,9.8-8.1c0,0,10.5-1,14.7,0c0,0-21.1,7.8-32,6.5c0,0-10.1,0.5-6-2.9c0,0,2.1-7.3,15.9-12.5
	c0,0,9.6-2.1,14.8,0c0,0-23.3,6.5-31.7,6.5c0,0-8.1,1.3-7.3-3.9c0,0,6.8-8.6,17.9-10.9c0,0,6-1,12.5,0c0,0-22,4.9-30.5,4.9
	c0,0-9.1,0.3-8.8-2.6c0,0,4.4-7.8,12-8.6c0,0,12-3.1,16.9-2.9c0,0-23.4,6.5-30.4,6.5c0,0-7.3,2.9-6.8-2.1c0,0,0-6.4,13.8-10
	c0,0,6.5-4.3,11.2-4.3c0,0-26.1,10.6-26.8,8.8c0,0-4.9-2.3,9.1-8.8c0,0,3.9-4.4,12.5-4.4c0,0-22.1,15.9-27.8,15.9
	c0,0-10.7,1.3-5.7-3.4c0,0,6.5-6,9.1-6c0,0-12,3.8-14.6,2.3c0,0-8.3-2.5,4.4-6.4c0,0,7.8-7.8,13.8-7.3c0,0-16.9,5.4-25,3
	c0,0-1.8-1.5,10.1-3c0,0,7.8-0.8,12-4.9c0,0-27.3,6.5-35.1,3.1c0,0-6.2-1.6,13.3-6.2c0,0,6.2-1.8,10.7-1.8c0,0-20.8,4.2-27.8,3.9
	c0,0-5.7-1.6,2.6-3.9c0,0,6.8-3.9,11.2-3.6c0,0-19.5,0-23.4-2.6c0,0-7.3-3.9,2.1-5.2c0,0,4.7-1.6,9.4,2.1c0,0-9.6-8.3-5.2-8.3
	c0,0,9.1,3.4,10.4,6.8c0,0,5.7,1.6,6,3.1c0,0-8.2-5-8.3-9.9c0,0-2.5-6.1,10.9,3.1c0,0,16.9,13.2,17.9,14.5c0,0-16.7-15.1-16-18.6
	c0,0-2.2-4.3,8.6,3.3c0,0,16.2,10.4,17.3,13.5c0,0-12.2-11.3-12.2-13.4c0,0-2.8-4.6,3.9-0.2l10.8,10.1c0,0-4.7-7.3-3.7-8.7
	c0,0,0.8-2.6,6.1,2.2c0,0,8.5,5.7,10.8,12.2c0,0-4.5-9.8-1-9.8c0,0,3.3-2.6,4.9,6.7c0,0,2.4,7.7,2.4,12c0,0-2.2-13.8,1.2-13.6
	c0,0,3-2.8,3.9,5.5c0,0,0.6,8.9,0.6,11.7c0,0,0-13,3.7-12.6c0,0,4.3-1,4.9,1.8c0,0,3.3,4.4-1.6,16c0,0,5.7-16.5,7.9-16.2
	c0,0,3.3-0.8,3.9,1.2c0,0,2.4,2-4.7,8.5c0,0,6.3-3.7,9.1-2.8c0,0,4.7,0.4,1.4,4.9c0,0-5.7,8.5-9.3,8.5c0,0,10.2-8.7,13-7.7
	c0,0,8.3-1.4-1.6,6.3c0,0-5.1,5.3-8.1,6.1c0,0,12.2-12,18.3-11.6c0,0,6.9,0.2,7.5,3.9c0,0-12.1,2-15.1,5.7c0,0,13.9-4.1,17.9-3.7
	c0,0,4.5,0.8,3,4.3c0,0-1.8,6.3-8.5,7.3c0,0,7.9-3.7,12-2.4c0,0,2.2,2.2-4.9,4.3c0,0-6.5,5.1-12.2,5.1c0,0,8.1-4.3,14.2-3.5
	c0,0,17.7,2,2.8,5.5c0,0-10.8,3-13.2,3c0,0,13.7-2.3,19.8,1.8c0,0,2.7,1.9-8.3,2.1c0,0,6.1,0.4,7.3,1.8c0,0,2.8,2.2-1.4,3.2
	c0,0,1,1,0.8,3.9c0,0,0.6,9.1-1.8,13.6L477.7,643.8z"/>
<path style="fill:#89C6B7;" d="M477.7,634.1c0,0-24.6-32.6-38.7-43.4c-0.4-0.3-0.8-0.6-1.2-1c-2.7-2.4-15.4-13.5-33.2-21.5
	c0,0,27.8,19.7,32.4,23.8c0,0,18.4,17.1,39.4,43.5L477.7,634.1z"/>
<linearGradient id="SVGID_18_" gradientUnits="userSpaceOnUse" x1="331.3994" y1="517.3065" x2="505.5432" y2="517.3065" gradientTransform="matrix(1 0 0 1 0 32)">
	<stop  offset="0" style="stop-color:#89C6B7"/>
	<stop  offset="0.2416" style="stop-color:#6DADA2"/>
	<stop  offset="0.5065" style="stop-color:#55968F"/>
	<stop  offset="0.6693" style="stop-color:#4C8E88"/>
</linearGradient>
<path style="fill:url(#SVGID_18_);" d="M346,495.4c0,0-14.3,2.1-14.3,5.5c0,0-2.1,3.4,4.8,3.7c0,0,6.8,0.3,10.7-2.6
	c0,0-8.8,4.5-5.1,6.9c0,0,2.9,0.5,7.7,0c0,0,3.4-0.8,8.2-5c0,0-7.1,6.3-7.1,9c0,0,0.5,3.7,7.1,0.8c0,0,10-4,11.1-6.3
	c0,0-9,6.3-9.2,10c0,0-2.4,4.2,8.2,0c0,0,8.2-3.2,10.6-5.9c0,0-8.5,7.3-7.9,12.5c0,0-1.1,5.5,7.9,1.8c0,0,10.6-4,11.6-7.7
	c0,0-13.2,11.9-14.3,15.1c0,0-1.1,5.3,5.8,0c0,0,9.5-3.6,15.9-10.7c0,0-4,8.8-10.6,13c0,0-4.2,4.5,1.6,4c0,0,14.8-3.2,17.4-8.5
	c0,0,5-3.2,1.6,2.9c0,0-10.3,4.2-13.7,10.7c0,0-6.1,4.9,6.1,1.5c0,0,17.7-1.6,21.4-10.8c0,0,1.1-2.8,1.7-1.8c0,0,1.9,0.2,0,4.1
	c0,0-9.8,10.5-16.2,11.1c0,0-6,3.2-0.6,4.1c0,0,8.9,3.8,19.2-2.1c0,0,10.6-3,12.4-8.6c0,0,1.4-3.7,5.9-2.5c0,0,4.5,0.7,0,3.1
	c0,0-17.3,6.9-23.7,13.2c0,0-2.4,4.7-0.5,8.3c0,0,5.9,1.9,9.7-2.6c0,0,9.5-1.7,12-7.1c0,0,1.5-3.8,7.4-3.8c0,0,5.2,1.2,0,3.1
	c0,0-7.6-1.9-13.6,8.5c0,0-4,7.8,0,6c0,0,6.4,0.2,11.4-4c0,0,6.7-5,8.7-5c0,0,4.8-0.9,7.7-0.5c0,0-6.7,5.5-21.6,9.9
	c0,0-2.8,2.1-2.9,4.9c0,0,7.8,1.3,15.2-2.1c0,0,6.7-4.2,10.3-4.2c0,0-11.9,6.1-15.4,14.7c0,0-4.4,8.1,4.6,4.1c0,0,13.1-12.9,19.4-13
	c0,0-1.6,5-5,5.4c0,0-9.2,3.7-9.3,12.5c0,0-1.6,4.7,7.4,1c0,0,11.6-5.8,12.3-10c0,0,1.4-5.5,4.7-4.7c0,0,2.4,0.8-1.1,4.8
	c0,0-11.6,4.4-13.5,11.2c0,0-3.4,5.6-1,5.9c0,0,7.7-1.7,10.9-6.4c0,0,2.5-2.8,6.9-6.1c0,0,3.1-1.6,4.3-1.3c0,0-14.4,11.6-19.4,17.8
	c0,0-3.9,4.3,2.2,0c0,0,9.8-6.2,12.9-6.2c0,0,5.8-0.4,7.7-4.5c0,0,2.5-4.7,4.5-4.3c0,0,5.8-3.3,7.3-5.2c0,0,2.5-5.1,0.9-8.7
	c0,0-2.2-8.7-5.8-1c0,0-3.1,2.9-3.1,5.5c0,0,6-5.7,3.8-12.1c0,0-2.7-6-5.8-1.2c0,0-1.2,1.6-2.9,5.2c0,0,4.1-7.7,2.9-11.1
	c0,0-2.1-5-4.6-4.1c0,0-3.1,1.3-3.1,6.1c0,0,1.5-7.7-1-10.5c0,0-0.7-1.3-4.8-0.3c0,0,0.4-2.8-3.6-2.3
	C477,548.5,430.2,481.5,346,495.4z"/>
<path style="fill:#4C8E88;" d="M331.4,500.9c-3.2,1.2,14.3-5.5,14.3-5.5c80.5-11.1,131,53.1,131,53.1s11.6,16.1,17.4,37.1l-1.4,2.5
	c0,0-14.8-37.8-26.8-47c0,0-32-29.4-55.7-36.3C410.2,504.8,369.3,487.2,331.4,500.9z"/>
<path style="fill:#4C8E88;" d="M461.1,650.6c8.7-14-7.1-15-7.1-15c8.7-9.9-5.6-10.1-5.6-10.1c-7.9-0.6-15.9,11.4-15.9,11.4
	c-2.7-1.1,0.9-7.2,0.9-7.2c2.9-9.6-0.4-7.8-0.4-7.8c-5.3-0.5-7.4,13.8-7.4,13.8c2.2,0.1,2.3-4.5,2.3-4.5c0-4.3-4.8-4.7-4.8-4.7
	c-4.6-1.7-7.7,7.6-7.7,7.6c-0.5-2.7,1.4-3.6,1.4-3.6c4.7-0.2,2.7-3.1,2.7-3.1c-1.1-2.4-4.2-1.3-4.2-1.3c-6.1,2.3-4.8,9.7-4.8,9.7
	c-2.6-1.5,0.8-10.7,0.8-10.7c0.3-5-2.1-2.3-2.1-2.3c-3.2-0.5-1.9,14.5-1.9,14.5c-2.4,0-0.8-4.2-0.8-4.2c-0.3-8.2-6.4-8.6-6.4-8.6
	c-4.8-0.1-7.2,9.8-7.2,9.8c1.3-5-2.4-11.2-2.4-11.2c-3.2-3.2-2.1,11.2-2.1,11.2c-3.7-8.2-9.7-8.4-9.7-8.4c-3.3-0.2-0.1,8.6-0.1,8.6
	c-2.1-5.8-10.9-6.9-10.9-6.9c-4,0.8,2.1,8.1,2.1,8.1c-0.5-1.2-8.5-6.2-8.5-6.2c-9.6-5.3-9.3-3.2-9.3-3.2c0,2.1,7.4,9.4,7.4,9.4
	c-3.2-3.6-12.7-4.6-12.7-4.6c-12.2-3.7-8.2,1.9-8.2,1.9c0.8,4.1,10.6,7.1,10.6,7.1c-3.2-2.7-11.9-2.7-11.9-2.7
	c-11.4-2.7-6.3,2.4-6.3,2.4c0.3,3.5,5,4.8,5,4.8c-4.8,0-13.6,8.3-13.6,8.3c-13.4,11.3-1.2,7.1-1.2,7.1c7.2-0.8,13.8-4.5,13.8-4.5
	c-9.6,10.4-3.6,10.9-3.6,10.9c5.2,0,19.2-13.4,19.2-13.4c-3.2,0.1-7.2,8.7-7.2,8.7c-5,7.8,2.1,5.5,2.1,5.5c5,0,13.8-8.5,13.8-8.5
	c-7.7,12.2-3.2,13-3.2,13c3.7,0,10.9-10,10.9-10c-2.9,0.9-5,9.2-5,9.2c-0.3,6.6,5.3,4,5.3,4c6.1-0.8,17.5-18.3,17.5-18.3
	c-6.6,0-10.9,12.9-10.9,12.9c-5,6.6,3.5,6.5,3.5,6.5c6.1,0.6,9.3-1.4,9.3-1.4c4.8-2.4,13.8-11.9,13.8-11.9
	c-6.9,16.5-2.1,11.9-2.1,11.9c2.7,0,20.1-23.4,20.1-23.4c-14.2,19.9-11.8,22.6-11.8,22.6c0.8,1.9,6.1-2.4,6.1-2.4
	c5.8-1.9,17-22,17-22c-6.4,3.2-10.1,14-10.1,14c-3.7,10.1,5.8,3.3,5.8,3.3c2.9-0.3,11.4-15.9,11.4-15.9c-5.6,4.5-7.2,12.6-7.2,12.6
	c-1.9,11.1,3.8,6.2,3.8,6.2c4-0.8,7.7-7.8,7.7-7.8c-3.2,4.6-6.2,11.3-6.2,11.3s-5.4,8.7-1.9,10.6c0,0,10.7-8.4,11.7-11.5
	c0,0,8.8-6.4,8.6-10.4c0,0-15.4,15.9-15.4,23.6c0,0-3.1,8.1,0.4,7.2c0,0,7.5-0.2,12.5-11.6c0,0,12.2-16.2,12.9-20.4
	c0,0,12.6-13.3,11.9-20c0,0-1.3-3.2-7.9,3.5L461.1,650.6z"/>
<path style="fill:#89C6B7;" d="M440.4,643c0,0-44.5-9.9-83-1.4c0,0,44.5-5.4,83,3.6V643z"/>
<path style="fill:#89C6B7;" d="M1006.4,501c0,0-7.8-11.4-7.1-15c0.7-3.5,12.3-1,12.3,4.2s-2.2-8.5-2.2-13s2.6-5.9,5.9,0
	s5.2,3.2,7.4,10.9c2.2,7.7,8.2,4.7,8.9,7.7l1.9,5.1L1006.4,501L1006.4,501z"/>
<linearGradient id="SVGID_19_" gradientUnits="userSpaceOnUse" x1="1016.4" y1="430.9403" x2="1062.936" y2="430.9403" gradientTransform="matrix(1 0 0 1 0 32)">
	<stop  offset="0" style="stop-color:#89C6B7"/>
	<stop  offset="0.9949" style="stop-color:#FFFFFF"/>
</linearGradient>
<path style="fill:url(#SVGID_19_);" d="M1039.1,501c0,0-20.1-3.3-22.7-30.4c0,0,3.3-5.6,11.3,2.8c0,0-10.3-6.2-11.3-14.9
	c0,0,4.5-5.8,8.6,0c0,0-5.9-7.5-5.9-20.5c0,0,0-16.7,4.8-12.3c0,0,5.9,17.8,9.7,19.7c0,0,4.5-23.1,8.9-20.4c0,0,4.8,8.6,0,25.6
	c0,0,6.3-14.9,8.9-14.9c0,0,8.5-10.5-2.2,22.8c0,0-3.7,15.8-5.9,14.9c0,0,11.3-8.2,11.4-10.5c0,0,5.7-4.2-2.5,10.5
	c0,0-5.6,4.3,1.9,3.5c0,0,9.9,1.1,2.5,5.6c0,0,12.5,0,2.7,9.7c0,0-3,8.9-11.6,8.9h-8.6L1039.1,501L1039.1,501z"/>
<path style="fill:#4C8E88;" d="M1054,499.1c0,0,5.9,3.2,14.8,3.3c0,0,16.7,0.1,10.8-8.1c0,0-10-5.5-5.6-5.2c4.5,0.4,9.7,2.6,9.7,0
	s-1.5-2.1-3-5.9s0.7-3.1,5.6-3.1c4.8,0,1.9-7.1-1.5-7.1s9.7-1.2,10-3.6c0.4-2.4,1.9-4-2.2-5.2s-2.6-6,2.8-7.5s10.6-7.4,5.4-7.4
	s-5.9-4.8,0-4.8c0,0,6.7-3,5.2-6.7c0,0-6.7-1.5-12.3,4.1c0,0-2.8-8.6-4.2,0.6c0,0-2.7,7.3-5.9,7.5c0,0,2.9-3.1,2.1-9.8
	c0,0-1.9-7.7-6.1,2.1c0,0-6.1,4.4-6.1,14c0,0-0.6-9.2-3.8-1.7c0,0-4.2,0.2-3.3,7.9c0,0-4.6-6.9-4.8,1.3c0,0-1,4.4-3.6,1.9
	c0,0-4-6.9-6.7,7.9c0,0-5.2,5.9-4.2,7.7C1047.2,481.4,1048.7,499.2,1054,499.1z"/>
<g>
	<path style="fill:#4C8E88;" d="M1062.1,483.9c-0.1,0-0.3,0-0.4-0.1c-0.3-0.2-0.4-0.6-0.1-0.9c0.9-1.2,21.7-30,29.6-33
		c0.3-0.1,0.7,0,0.9,0.4c0.1,0.3,0,0.7-0.4,0.9c-7.5,2.8-28.8,32.2-29,32.5C1062.5,483.8,1062.3,483.9,1062.1,483.9z"/>
</g>
<g>
	<path style="fill:#89C6B7;" d="M1037.8,496.1c-0.3,0-0.6-0.2-0.7-0.6c-0.2-1.4-4.6-33.8,0-46.6c0.1-0.3,0.5-0.5,0.8-0.4
		s0.5,0.5,0.4,0.8c-4.5,12.6,0,45.7,0,46C1038.5,495.7,1038.3,496.1,1037.8,496.1C1037.9,496.1,1037.8,496.1,1037.8,496.1z"/>
</g>
<path style="fill:#89C6B7;" d="M1181.7,523.8c0,0-8.7-5.2-8.9-9.8c0,0-0.7-9.4,1.8-9.7l3.9,4.3c0,0-1.7-34.4-1.3-35.8
	c0,0,0.4-1.5,4.5,5.8c0,0,6.4,11.3,6.4,16.9c0,0,1.2,1.4,1.7,7.6l2.3,4.8c0,0-2.9-16,0-15.8c0,0,8.5,8.6,8.7,12.3c0,0,3.5-6,3.5-4.8
	c0,0,5.8,6.4,4.6,16.5c0,0-0.4,3.7-5.6,3.7c0,0-4.3-0.8-6.6,0.4c0,0-2.5,1.5-5.9,1.5C1190.9,521.5,1188,522.8,1181.7,523.8z"/>
<path style="fill:#4C8E88;" d="M1211.3,519.2c0,0-16.5-17.6-17.8-22.4c0,0-7.7-16.3-7.7-21.1c0,0,3.1,1.2,7.4,6c0,0,9.7,6.2,10.5,12
	c0,0-3.5-8.7-3.5-14.3c0,0,4.8-1.4,6.4,3.1c0,0,4.5,5,4.8,7.9c0,0-1.2-16.7,4.1-23.4c0,0,7-17.6,7.4-21.1c0,0,3.5-1.7,3.7,3.9
	c0,0,3.3,20.7,3.3,25.2c0,0,2.9,16.5-3.1,23.5c0,0,1.4-27.2,5.4-28.6c0,0,5,8.5,5,12.6c0,0,2.7,11.5,0,19c0,0-1.2,9.8-4.5,10.8
	c0,0-2.7-1.3-5.8,1.6c0,0-3.5,4.3-7.9,4.3C1218.9,518,1215.3,519.9,1211.3,519.2z"/>
<path style="fill:#4C8E88;" d="M1252.3,457c0,0,15-2.8,17.8-6.7c2.8-3.9,9.6-3.9,9.6-10.1s0.3-8.3-4.6-8.3s-13.9-4.1-9-4.1
	s12.4-1.5,12.4-1.5l-2.8-8c0,0-9.8-3.8-7-4.4c2.8-0.5,11.4,2.6,11.1,0s6-3.6,2-8.5s-3.2-10.1,0-10.8s3.1,0,1.4-4.6
	c-1.8-4.6,2.7-11.9-1.4-11.9s-4.8-5.4-7.9-4.1s-3.9,1-3.9,6.7s1.4,12.7-1.6,10.1s-3.8-9.6-7.4-9.3c-3.6,0.3-4.1,1.3-4.4,7.2
	c-0.3,5.9,5.2,9,1.3,9.3c-3.9,0.3-5.2-7.2-8.1-7.5c-3-0.3-4,1-4.5,4.4s-0.5,2.1,2.1,7.5s3.9,9.6,0.3,8.3c-3.6-1.3-6.3-8.5-9.1-8.8
	c-2.8-0.3-5.1-3.1-6.2-0.5s-3.9,3.1,0,9.6s4.1,9.8,7.7,12.7c3.6,2.8,10.9,8.8,2.7,4.9s-12.8-8-15.9-8s-6.7,0.3-5.7,4.1
	c1,3.9-0.3,11.9,4.1,12.9s2.1,6.9,4.4,8.2c2.3,1.3,1.3,0.7,5.9,2.2s-2.2,4.5,2.8,5S1246.8,459.6,1252.3,457z"/>
<path style="fill:#4C8E88;" d="M1249.6,442.8c0,0,0.1-16.5,9.2-28.9c0,0,5.2-10.1,16-20.7c0,0-19.7,18.9-22.2,49.6H1249.6z"/>
<linearGradient id="SVGID_20_" gradientUnits="userSpaceOnUse" x1="1233.8" y1="446.9" x2="1281.624" y2="446.9" gradientTransform="matrix(1 0 0 1 0 32)">
	<stop  offset="0" style="stop-color:#89C6B7"/>
	<stop  offset="0.1469" style="stop-color:#90CABC"/>
	<stop  offset="0.367" style="stop-color:#A5D3C8"/>
	<stop  offset="0.6329" style="stop-color:#C6E4DC"/>
	<stop  offset="0.9323" style="stop-color:#F4FAF9"/>
	<stop  offset="0.9949" style="stop-color:#FFFFFF"/>
</linearGradient>
<path style="fill:url(#SVGID_20_);" d="M1238.3,510c0,0-4.5-18.7-4.5-24.8c0,0,2-17.2,4.5-20.9c0,0,5.4,7.2,5.6,12.8
	c0,0,1.4,4.6,0,11.9c0,0,0-20.6,2.1-22c0,0,12.2,9.9,13.9,17.8c0,0-19.6-19.9-16.7-31.6c0,0,10.8,6.4,11,10.3c0,0,0.8-15.7,3.5-15.7
	c0,0,9.7,12.8,9.7,23.9c0,0,2.7-17.2,7.7-17.2c0,0,5.6,18.1,2.9,27.9c0,0,3.5-1.5,3.5-3.6c0,0-0.6,7.6-7.6,26.2
	c0,0-9.7,1.2-10.1,0.6s-0.4-0.6-0.4-0.6s-4.5,1.4-5.9,0.6c0,0-6.3,3.9-8.6,1.9C1249.1,507.6,1245.7,509.5,1238.3,510z"/>
<g>
	<path style="fill:none;" d="M561.4,412.9c-0.2,0-0.4-0.1-0.5-0.3c-0.2-0.3-0.2-0.7,0.1-0.9c3-2.2,29.8-21.6,36.6-19.3
		c0.3,0.1,0.5,0.5,0.4,0.8s-0.5,0.5-0.8,0.4c-5.2-1.8-27.3,13.2-35.4,19.1C561.6,412.9,561.5,412.9,561.4,412.9z"/>
</g>
<path style="fill:#89C6B7;" d="M530.8,438.2c0,0,14,0,20.7-10.4c0,0,5.7-12.7,5.7-16.1c0,0,21.2-9.8,16.3-12.2c0,0-4.9-1.6-8.8-1.6
	s18.4-8.6,18.4-13.3c0,0,1.3-6.9-5.2-7.5c0,0,9.8-3.9,5.3-7.8c0,0,1.2-5.5-11-3.7c0,0-15.3,1.9-18.9,7.8c0,0-0.8-10.4-7-3.6
	c0,0-15.8,12.2-15.5,23.6c0,0-7.5-5.7-7.5,2.1c0,0-6.2,1.7,0,18.2c0,0-2.3-10.2-7.5-2.4C510.6,419.2,530.8,438.2,530.8,438.2z"/>
<g>
	<path style="fill:#89C6B7;" d="M539.6,430.4c-0.3,0-0.6-0.2-0.7-0.6c-0.1-0.3-5.5-35,22.1-48c0.3-0.2,0.7,0,0.9,0.3s0,0.7-0.3,0.9
		c-26.7,12.6-21.5,46.2-21.4,46.6S540,430.3,539.6,430.4C539.7,430.4,539.6,430.4,539.6,430.4z"/>
</g>
<linearGradient id="SVGID_21_" gradientUnits="userSpaceOnUse" x1="439.7266" y1="355.7945" x2="495.2606" y2="355.7945" gradientTransform="matrix(1 0 0 1 0 32)">
	<stop  offset="0" style="stop-color:#89C6B7"/>
	<stop  offset="0.9949" style="stop-color:#FFFFFF"/>
</linearGradient>
<path style="fill:url(#SVGID_21_);" d="M479.2,444.4c0,0-45.5-94.1-38.8-107.8c0,0,2.5-13,7.7,1.3c0,0,7,1.6,7,14.3
	c0,0,4.9-23.6,6.5-16.8c0,0,4.9,13.5,4.1,24.4c0,0-1-18.9,5.4-7.5c0,0,3.6,4.4,3.9,22c0,0,14.9-18.7,12.2,0.8c0,0,8.2-1.1,8,9.8
	c0,0-1.9,48.5-8,56.3L479.2,444.4z"/>
<path style="fill:#89C6B7;" d="M479.2,414.9c0,0-3-19.8-21.7-30.1c0,0-18.3-12.1-37.5-18.6c0,0-17.1-2.7-20.1,6.8
	c0,0-2.1,0.6,12.4,1.2c0,0,12.7,1.8,14.8,0.6c0,0-20.4,7-12.1,10c0,0,15.7,3.9,18.9,1.2c0,0-15.5,1.4-4.4,5.9L479.2,414.9z"/>
<path style="fill:#4C8E88;" d="M475.1,447.4c0,0-15.5,10.6-23,9.6s-1-14.7,2.3-14.5s-5.2,3.4-7.7,4.6c-2.4,1.2-9.6,6.5-9.2,0.2
	c0.3-6.3,3.1-8.7,5.6-8.7c2.4,0-6.3-3.7-7.1,1.9c-0.9,5.6-2.8,7.5-6.4,4.4s-8.1-7-4.8-8.7c3.3-1.7-6.4,2.3-6.4,6.4s-9.4,3.2-9.4-2
	s2.4-9.6,4.9-9.7c2.4-0.2-6.2,6.2-10.6,6.9s-8.9-9-4.7-10.4s7.8-6.4,10.1-8s-7.7-0.2-4.2-3.8c3.5-3.7-0.5-6.4,8.4-6.6
	s3.7-2.4,6.4-5.9c2.8-3.5,3.1-4.5,8.5-2.6s10.8,1.4,10.8,1.4s-7.1-8.5,2.1-5.2c0,0,10.3,1.6,17.8,9.6c0,0-8.7-11.7,2.1-4.9
	c0,0,17.9,7.7,18.8,13.8c0,0,8.1,10.8,8.1,20.4L475.1,447.4z"/>
<g>
	<path style="fill:#4C8E88;" d="M475.1,448c-0.3,0-0.6-0.2-0.7-0.6c0-0.2-3.5-22-47.4-26.5c-0.4,0-0.6-0.4-0.6-0.7
		c0-0.4,0.4-0.6,0.7-0.6c45,4.6,48.5,26.7,48.6,27.6C475.8,447.7,475.5,448,475.1,448L475.1,448z"/>
</g>
<linearGradient id="SVGID_22_" gradientUnits="userSpaceOnUse" x1="906.4115" y1="445.1882" x2="940.1615" y2="478.9382" gradientTransform="matrix(1 0 0 1 0 32)">
	<stop  offset="0" style="stop-color:#89C6B7"/>
	<stop  offset="0.2416" style="stop-color:#6DADA2"/>
	<stop  offset="0.5065" style="stop-color:#55968F"/>
	<stop  offset="0.6693" style="stop-color:#4C8E88"/>
</linearGradient>
<path style="fill:url(#SVGID_22_);" d="M937.8,513.4c0,0,11.3-14.9,11.3-19.4l-5.7,2.7l-3.7-13.3c0,0-2.8,9.6-1.9,13.2
	c0,0-5.8-24.9-7.4-26.9c0,0-3.4,16.1-3.2,21.9c0,0-2.1-17.3-4.8-18.4c0,0-4.8,9.6-4.8,14.9c0,0-0.4-16.2-3.5-18.5
	c0,0-7.8,14.3-6.9,19.8c0,0-4.6-1.2-5.1-4.6c0,0-4.2,10.6,2.3,19.1c0,0,4.6,7.8,8.1,10.8c0.9,0.8,2,1.1,3.2,0.9
	c1.8-0.3,5-0.8,7.2-0.5c2.3,0.3,4.6,0.5,6.9,0.2c2.2-0.2,4.3-0.4,4.6-0.4C935.1,514.8,937.8,513.4,937.8,513.4z"/>
<path style="fill:#89C6B7;" d="M936,485.9"/>
<path style="fill:#4C8E88;" d="M212.1,632.9c0,0,30.4-100.3,69.1-121.5c0,0-38.4,32.7-66.2,120.8L212.1,632.9z"/>
<path style="fill:#4C8E88;" d="M209.1,637.4c0,0-29.7-31.7-61.8-37.3c0,0,53.8,24.5,57.5,41L209.1,637.4z"/>
<linearGradient id="SVGID_23_" gradientUnits="userSpaceOnUse" x1="181.7366" y1="598.5253" x2="265.2683" y2="598.5253" gradientTransform="matrix(1 0 0 1 0 32)">
	<stop  offset="0" style="stop-color:#89C6B7"/>
	<stop  offset="0.2416" style="stop-color:#6DADA2"/>
	<stop  offset="0.5065" style="stop-color:#55968F"/>
	<stop  offset="0.6693" style="stop-color:#4C8E88"/>
</linearGradient>
<path style="fill:url(#SVGID_23_);" d="M185.9,646.9c-7.5,0-3.2-4.7,0-4.7s-4.2-5.4,3.5-4.8s3.7-1.7,7.7,0.6s3.7-10.9,7-10.2
	c3.2,0.7,4.7,2.5,7,3c2.2,0.5-3.2,0,2-5.5s2.5-9.7,5.2-5.5s2.2,2.2,4,5.7c1.7,3.5,4.2,3.2,2-1.5s-5.5-16.2-1-13.7s5,5.7,5,5.7
	s-2.2,6.2,3,7c5.2,0.7-7.2-10.2-1.7-10.2s10.7-4,10.7,1.5s4.7,6,4.7,8s4.2,5.9,6.8,6.2s13.3-2.2,13.6,1c0.2,3.2-3.7,8.6-7,8.6
	c-3.2,0-8.5-1.5-12.4-0.2c-4,1.2-3.5,0-9.5,0s-7.5-2.7-10.7,0.2c-3.2,3-3.7,2.7-8,3s-4.7,0.6-6.5,2.9c-1.7,2.3-1.8,3.4-6.5,3.7
	c-4.7,0.4-6.3,3.2-9.2,3.2c-0.4,0-3.7,0.9-8.2-1.1C183,647.7,185.9,646.9,185.9,646.9z"/>
<linearGradient id="SVGID_24_" gradientUnits="userSpaceOnUse" x1="402.5036" y1="677.7714" x2="530.5" y2="677.7714" gradientTransform="matrix(1 0 0 1 0 32)">
	<stop  offset="0" style="stop-color:#89C6B7"/>
	<stop  offset="0.9949" style="stop-color:#FFFFFF"/>
</linearGradient>
<path style="fill:url(#SVGID_24_);" d="M425,720c0,0,44.4-85.8,65.1-93.9c0,0,27.5-16.2,40.4-15c0,0-21.4,30.7-21.8,45.3
	c0,0-5.2,52.1-14.5,60.6l-2.2,86c0,0-27,4-42,0c-4.6-1.2-42.2,14.9-46.7-3C397.8,778.1,422.5,724.3,425,720z"/>
<linearGradient id="SVGID_25_" gradientUnits="userSpaceOnUse" x1="274.6" y1="714.1429" x2="453.2114" y2="714.1429" gradientTransform="matrix(1 0 0 1 0 32)">
	<stop  offset="0" style="stop-color:#89C6B7"/>
	<stop  offset="0.9949" style="stop-color:#FFFFFF"/>
</linearGradient>
<path style="fill:url(#SVGID_25_);" d="M318.9,740.6c0,0-44.3-65.2-44.3-71.2c0,0,29.9,15,42.4,17c0,0,57.9,21.6,64.3,28.7
	c0,0,26.3,17.4,31.1,30.3c0,0,41.6,57,40.8,76.8h-10.5c0,0-37.6,5.6-70.8-15.2C350.9,793.8,336.5,758.7,318.9,740.6z"/>
<path style="fill:#4C8E88;" d="M463,800c0,0,20.2-89,42-101.5c0,0,46.5-46.5,54.6-45.7c0,0-16.6,22.6-16.2,35.2
	c0,0-3.2,27.1-12.9,36.4c0,0-51.5,67.6-51.5,75.6C479,800,470,800,463,800z"/>
<path style="fill:#4C8E88;" d="M538.2,820.1c0,0,36-40.8,53.4-48.5c0,0,37.6-23.4,52.1-25.9c0,0,44.1-21.8,48.1-32.7
	c0,0-11.3,29.1-30.7,44.9c0,0-28.7,24.7-40.8,31.5c0,0-21,22.6-19,32.7L538.2,820.1z"/>
<path style="fill:#4C8E88;" d="M182.5,824.6c0,0,31.5-39.2,50.9-41.6c0,0,17.4-1.2,31.9,8.5l51.7,30.7L182.5,824.6z"/>
<path style="fill:#89C6B7;" d="M-2,432c0,0,1.8-16.2,1.8-21c0,0-3.6-5.9,0-5.7c0,0,2.8-0.3,5.8,1.9c0,0-5.8-4.2-5.8-7.6
	c0,0-2.4-6-1-7.7c0.2-0.3,0.6-0.5,1-0.5c3.3,0,3.9,0,5.8,2.2c0,0-1.4-4.4-2.7-8.3c0,0-2.4-4.4,0-4.4c0,0,6.5-1.9,6.5,1.1
	c0,0-3.9-4.4-6.5-8.9c0,0-2.4-8.9,0-8.9c0,0,7.4,3.9,8.5,8.3c0,0-10-15-10-18c0,0,0.6-6.7,11.5,10.8c0,0-7.7-18.9-7.4-23.3
	c0,0,3.4-6.9,5.3-6.9c0,0,5.8,0.8,4.4,11.7c0,0,0,4.4,2.2,4.4c0,0,1.9-1.7,2.5-5.8c0,0-3.1-7.5,0-10.3c0,0,5.8-9.7,7.8-7.2
	c0,0,2.5,8.9,0,12.8c0,0-1.3,9.4-1.5,9.7c-0.2,0.3,4.2,2.5,4.1-1.9c0,0,1-9.4,3-11.9c0,0,4.4-0.8,5.1-0.3c0.7,0.6,1.5,6.1,0,7.2
	s-1.5,6.7-2.6,6.9c-1.1,0.3,7.5-7.5,7.5-9.2c0,0,5.8-0.2,3.8,5.8c0,0-5.8,13.9-8.7,13.9c0,0,5.7-1.7,6.6-3.1c0,0,4.2,0,2.1,4.4
	c0,0-0.4,5.6-5.7,5.6c0,0-10.3,1.6-6.7,3.6c0,0,13.1-0.5,12.4-1.6c0,0,3.8,0.8,0,4.3c0,0-5.7,8.8-10.2,7.1c0,0-8.3-1.4-4.2,1.4
	c0,0,8.9,2.5,11.4-1.4c0,0,7.2-0.3,1.4,5.8c0,0-10,6.7-13.9,5.8c0,0,4.1,2.8,6.8,1.4c0,0,8.6-5.3,8.7-1.7c0,0,4,6.4-14.6,15.3
	c0,0,0.3,3.3,8.3-1.9c0,0,6.4-3.1,6.3-0.3c0,0-15.2,36.4-48.2,33.4L-2,432z"/>
<linearGradient id="SVGID_26_" gradientUnits="userSpaceOnUse" x1="498.3367" y1="375.6552" x2="568.5483" y2="445.8669" gradientTransform="matrix(1 0 0 1 0 32)">
	<stop  offset="0" style="stop-color:#89C6B7"/>
	<stop  offset="0.2416" style="stop-color:#6DADA2"/>
	<stop  offset="0.5065" style="stop-color:#55968F"/>
	<stop  offset="0.6693" style="stop-color:#4C8E88"/>
</linearGradient>
<path style="fill:url(#SVGID_26_);" d="M477.1,452.7c-5.9-2-13.3-1.6-5.6-3.6s-1-7.7-2.3-7.4c-1.3,0.3-1.9-3.8,4.1-1.9
	s9.2-2.2,11.2,0s-16.5-10.7-5.2-10.6c11.3,0,7.8-7.2,13.2,0c5.4,7.2,4.9,2.1,5.8-2.2c0.9-4.2-5-6.1,3.4-4.4s10,10.4,10,10.4
	s-11.4-16.4-3.6-20.3c7.8-3.9,5.1-11.5,10-3.2c4.9,8.4,10.7-1.6,11.2,2.6s-0.5,3.9,0,10.5c0.5,6.5-11.2,6.3,0.5,6.5
	c11.8,0.3,9.9-7,15.9-5.5c6,1.4,5.6,4.4,6.7,7.5s-5.2-13.2,0-12.2s1.4-13.8,9.1-6.8c7.7,7.1,9.7,14.3,15.6,10.5
	c5.9-3.8,6.5-4.2,7.5,0s-4,15.6,2.2,15.7s8.5-1.6,9.7,0c1.3,1.6,5.6,2.5,1,6.4s5.4,4.9-4.6,3.9s-5.9-6-16.1-3.9
	c-10.2,2.1-6.4,6.2-14.3,6.3c-7.9,0.1-16.1-2.4-18.9-5c-2.8-2.6-5.4,1-12.3,3c-6.9,2.1-9.4,2.8-16.3,1.9c-6.9-0.9-15.6-6.3-17.9-1.9
	s-5.8,6.5-9.7,5.3C483.4,453.2,477.1,452.7,477.1,452.7z"/>
<linearGradient id="SVGID_27_" gradientUnits="userSpaceOnUse" x1="73.1388" y1="778.241" x2="218.0483" y2="694.5774" gradientTransform="matrix(1 0 0 1 0 32)">
	<stop  offset="0" style="stop-color:#89C6B7"/>
	<stop  offset="0.2416" style="stop-color:#6DADA2"/>
	<stop  offset="0.5065" style="stop-color:#55968F"/>
	<stop  offset="0.6693" style="stop-color:#4C8E88"/>
</linearGradient>
<path style="fill:url(#SVGID_27_);" d="M78.6,819.7v-29.8c0-9.8,4.1-19.1,11.4-25.6c10.7-9.6,27-22.8,39.7-27.3
	c0,0,29.5-11.8,48-14.9c4.2-0.7,8.3-1.7,12.2-3.1c7.4-2.7,17.7-6.9,18-10c0,0-23.1,20.4-30.8,26.8c0,0-19.4,22.9-25,45.5
	c0,0-8.9,33.1-23.8,38.4L78.6,819.7L78.6,819.7z"/>
<linearGradient id="SVGID_28_" gradientUnits="userSpaceOnUse" x1="208.1" y1="743.0748" x2="442.8" y2="743.0748" gradientTransform="matrix(1 0 0 1 0 32)">
	<stop  offset="0" style="stop-color:#89C6B7"/>
	<stop  offset="0.2416" style="stop-color:#6DADA2"/>
	<stop  offset="0.5065" style="stop-color:#55968F"/>
	<stop  offset="0.6693" style="stop-color:#4C8E88"/>
</linearGradient>
<path style="fill:url(#SVGID_28_);" d="M442.8,822.2c0,0-53.2-64.5-82.7-71.8c0,0-70-23.3-91-21.9c0,0-42.4-3.4-61,6.7
	c0,0,64.3,20.2,78,39.8c0,0,46.5,37.8,48.5,44.7L442.8,822.2z"/>
<linearGradient id="SVGID_29_" gradientUnits="userSpaceOnUse" x1="578.0897" y1="759.6641" x2="525.5395" y2="668.6445" gradientTransform="matrix(1 0 0 1 0 32)">
	<stop  offset="0" style="stop-color:#89C6B7"/>
	<stop  offset="0.2416" style="stop-color:#6DADA2"/>
	<stop  offset="0.5065" style="stop-color:#55968F"/>
	<stop  offset="0.6693" style="stop-color:#4C8E88"/>
</linearGradient>
<path style="fill:url(#SVGID_29_);" d="M493.3,822.2c0,0-8.3-39.5-13.5-50.5c0,0,32.5-37.6,50.7-43.7c0,0,40-22.2,40.4-31.1
	c0,0,29.1-26.3,31.1-40.4c0,0,6.9,0.4-6.1,41.6c0,0-21.4,48.1-38,54.2c0,0-31.1,30.3-31.9,49.3l-0.8,20.6L493.3,822.2L493.3,822.2z"
	/>
<linearGradient id="SVGID_30_" gradientUnits="userSpaceOnUse" x1="13.9" y1="696.5497" x2="156.2" y2="696.5497" gradientTransform="matrix(1 0 0 1 0 32)">
	<stop  offset="0" style="stop-color:#89C6B7"/>
	<stop  offset="0.2416" style="stop-color:#6DADA2"/>
	<stop  offset="0.5065" style="stop-color:#55968F"/>
	<stop  offset="0.6693" style="stop-color:#4C8E88"/>
</linearGradient>
<path style="fill:url(#SVGID_30_);" d="M13.9,819.7c0,0,19.6-69.4,34.6-88.1c1.4-1.7,2.6-3.5,3.7-5.3c6.8-10.9,27.2-42.4,36.9-46.4
	c0,0,55.4-44.9,67.1-42.4c0,0-39.8,42.1-47.8,63.2c-0.6,1.6-1.2,3.2-2,4.7c-4.5,8.9-19.6,40-21.4,63c0,0,0.8,48.1-6.5,51.3H13.9z"/>
<linearGradient id="SVGID_31_" gradientUnits="userSpaceOnUse" x1="492.1167" y1="791.0124" x2="366.8122" y2="573.9785" gradientTransform="matrix(1 0 0 1 0 32)">
	<stop  offset="0" style="stop-color:#89C6B7"/>
	<stop  offset="0.2416" style="stop-color:#6DADA2"/>
	<stop  offset="0.5065" style="stop-color:#55968F"/>
	<stop  offset="0.6693" style="stop-color:#4C8E88"/>
</linearGradient>
<path style="fill:url(#SVGID_31_);" d="M453.3,822.2c0,0-47.3-74.2-54.3-89.7c0,0-26.1-54.6-22.9-85.3c0,0,3.2-51.7,21.8-59
	c0,0-3.6,24.3,13.7,46.5c0,0,39.6,61.4,44.9,76c0,0,28.5,59.4,30.7,75.2c0,0,9.7,35.6,6.1,36.4h-40L453.3,822.2L453.3,822.2z"/>
<path style="fill:none;stroke:#FFFFFF;stroke-width:11;stroke-linecap:round;stroke-linejoin:round;stroke-miterlimit:10;" d="
	M956.6,480.7"/>
<path style="fill:#89C6B7;" d="M14,445.9c0,0-1.7-70.6,6.9-80.3c0,0-7.5,25.6-3.9,81.6L14,445.9z"/>
<linearGradient id="SVGID_32_" gradientUnits="userSpaceOnUse" x1="-2" y1="367.7294" x2="101.3576" y2="367.7294" gradientTransform="matrix(1 0 0 1 0 32)">
	<stop  offset="0" style="stop-color:#89C6B7"/>
	<stop  offset="0.9949" style="stop-color:#FFFFFF"/>
</linearGradient>
<path style="fill:url(#SVGID_32_);" d="M-2,455l1-24c0,0,0.8-10.5,7-9.5c0,0,6.6,0.6,8.6,3.2c0,0-7-7.6-5.8-11c0,0,1.6-7.6,5.8-5.6
	c0,0-3.2-10.4,0-10.4c0,0,8.4,2.2,10.4,6.4c0,0-5.8-12.4-3.8-16c0,0-1.4-5.8,5.4-0.8c0,0,6.2,7.2,6.4,8.6c0,0-5.8-12.4-5.2-18.2
	c0,0,0-7.6,7-6.4c0,0,7,7.6,7.8,16.6c0,0-5.8-28.4,2.6-34.9c0,0,5.4-7.2,10.6,0c0,0,1,18.6,0,23.8c0,0,3.4-3.4,3.2-16.8
	c0,0,0.6-19.6,3.6-19.6c0,0,4.6-3,4,9.4c0,0,2.8,2.2,5-5c0,0,1.6-10,5.6-7.8c0,0,3,0.6,1.2,10.8c0,0,5.6-2,6.4-7.6
	c0,0,2.8-9.4,8.4-6c0,0,3.2,3.4-2.2,10c0,0-3,7.4-6.6,7.6c0,0,1,3.6,8.6-1.8c0,0,10.4-8.6,8.2,0c0,0-6.2,10.4-15.4,10.6
	c0,0-7.6,3.2-1.2,5.2c0,0,13.8-0.6,0,6.6c0,0-6.4,1.2-8.8,0.8c0,0,0.8,4.6,6.4,4.2c0,0,6.8-2.4,8,1.4c0,0,1.8,6-6.8,5.4
	c0,0-8.8-0.8-12.2-5c0,0-2.8,2.2-0.6,3.8c0,0,9.6,2.8,11,4.8c0,0,3.8,5-6.6,8c0,0-18.8,3.8-21.4,5c0,0-5.5,3.6-1.4,3.8
	c0,0,16.9-1.4,18.7-3.6c0,0,3.4,0.8-6.6,5.4c0,0-6.4,4.9-13.2,4.6c0,0,9.6,0.8,9.6,4.2c0,0,1.2,7.2-16.2,2.2c0,0,9.6,8.6,11.6,8
	c0,0,6.4,3.4,1.2,5.6c0,0-10.2,3.4-17.6-3.2c0,0,4.6,6.2,9.3,6.6c0,0,4.9,1.6,4.5,4c0,0-10,7.4-24.6-2l-2.5-2.1l12.9,12.3
	c3.8,3.6,3.5,9.8-0.6,13.1l0,0L-1,466L-2,455z"/>
<path style="fill:#4C8E88;" d="M0.8,602.6c0,0,9.2,3.5,15.8,4.8c2.5,0.5,4.7,0.7,5.8,0.3c3.9-1.6,6.7,2.3,3.1-5.1L14,595.1
	l-10.7-6.2c0,0-3.5-6.7,0.8-5.1l9.9,5.5c0,0,13.3,8,16.9,7.9c0,0,4.8,0.1,8.3-3.1c0,0,2-4.7-2.5-7.6c0,0-15.8-7.6-21.3-7.6
	c0,0-9.6-1.5-9.6-3.1c0,0-0.1-3.1,4.4-0.8c0,0,7.2,2,10.1,2.9c0,0,15.1,6.7,17.3,6.7c0,0,10.2,1.6,10.3-3.1c0,0-1.1-5.9-11.1-10.4
	c0,0-15.8-7.5-21.9-7.8c0,0-9.5-0.4-10.7-3.1c0,0-0.9-7,1.5-5.4c0,0,6.2,5.2,9.9,5.2c0,0,12.8,4.8,21,4.3c0,0,11.5,0.5,13.4-2.4
	c0,0,0.1-5.3-3.7-7.3c0,0-12.3-8.5-18.7-8.5c0,0-14.2-3.9-17.8-3.6c0,0-4.3-5.1,2-4.1c0,0,5.1,0.4,7.5,3.3c0,0,12.4,6,22.1,5.1
	c0,0,12.2-0.4,14.3-3.1c0,0,0.3-10.3-15.1-11.1c0,0-20.6-4.3-28.8-2.8c0,0-6.4-3.9-0.5-5.8c0,0,8.7-1.4,12.7,2.5
	c0,0,13.6,7.1,21,4.4c0,0,12,0.9,12.3-4.5c0,0-0.5-6.7-12-7.1c0,0-15.5-2.8-19.1-3.5c0,0,19.5,5.1,24.2,1.6c0,0,10.3-2.4,10.4-7.1
	c0,0,1.6-4.3-11.8-5.2l-12-1.3c0,0,14.4,1.7,19.7,0c0,0,14.2-0.5,15-3.7c0,0,3.1-5.5-8.7-8.4c0,0-15.4-6.7-21.1-4.5
	c0,0-8.8,1.6-10.2,1.1c-1.3-0.5,12.6-2.4,15.3-2.4c0,0,15.3,5.6,20.1,4.5c0,0,10.3,0,11.9-0.8c0,0,2-6.7-5.6-7.5
	c0,0-10.6-5.4-19.1-5.4c0,0-13.9-1.2-15.4,0c0,0,36,4.7,39.7,2.7c0,0,11.1-0.4,11.1-4.9c0,0,4.8-4.8-4-8c0,0-11.2-3.7-18.6-0.9
	c0,0-11.4,1.2-15.9,0.7c0,0-11.1-1.4-7.6-1.7c0,0,12.7,0.8,16.3,0c0,0,27.2,1.3,30-3.4c0,0,4.7-2.7,6.2-5.2c0,0,3.9-4.7-6.7-6
	c0,0-7.1-2.1-14.3-2c0,0,12.3-1.6,14.3-5.2c0,0,6.2-3.7,5.4-6.2c0,0,2.9-2.5-8.7-2.5c0,0-9,0.1-15.7,1.7c0,0,13.6-2.1,16.9-4.8
	c0,0,9.5-6.6,11.1-11c0,0,4.8-8.4-3.5-8.4c0,0-4.4,4.1-10.6,7.9c0,0-8.6,5.4-13.2,8.8c0,0,16.7-13.9,19.3-16.7c0,0,5.8-2.8,5.8-8.4
	c0,0,4-7.4-4.4-6.8c0,0-4.5-3.3-7.6,4.1c0,0-2.1,4.3-5.8,8c0,0-2.9,7.9-7,10.8c0,0-5.1,8.4-7.2,8.4c0,0-5.1,0.4-1.2-3.5
	c0,0,7.6-10.5,9.5-10.4c0,0,9.9-11.4,9.9-13.2c0,0,6-7.2,4.9-10.2c0,0-2.7-7.8-7.9-2.1c0,0-8.2,7-9.2,12.2c0,0-7.2,11.1-7.2,17.4
	c0,0-1.5,9.1-3.6,6.4c0,0-3.3-3.5,0-10.5c0,0,3.5-18,0.9-21.6c0,0-1.1-12.2-8.4-7.1c0,0-7,9.5-6.4,12.7c0,0-1.2,25.2,2.5,31.3
	c0,0-1.3-30.8-3.9-33.6c0,0-2.9-12.6-6.8-12.6c0,0-5.2,0.8-5.5,9c0,0-1.7,13.4,1.5,20.1c0,0,4,17.7,6.4,21c0,0-7.5-33.8-11.1-34.9
	c0,0-6-4.7-9.1,5.6c0,0-0.8,43.6,4,46.3c0,0-11.8-13.8-15.5-13.6c0,0-4.1-5.2-4.3,1.3c0,0,5.8,19.3,9.6,24.1c0,0-7.8-14-9.5-11.1
	c0,0-2.8,0.5-1.9,11.5L0.8,602.6z"/>
<linearGradient id="SVGID_33_" gradientUnits="userSpaceOnUse" x1="3.9" y1="439.4" x2="58.8" y2="439.4" gradientTransform="matrix(1 0 0 1 0 32)">
	<stop  offset="0" style="stop-color:#89C6B7"/>
	<stop  offset="0.9949" style="stop-color:#FFFFFF"/>
</linearGradient>
<path style="fill:url(#SVGID_33_);" d="M5.8,498.2c0,0,18.4-33.1,25.9-40.2c0,0,22.3-27.6,27.1-29c0,0-37.2,45.7-39.5,51.7
	c0,0-12.6,26.9-15.4,33.1L5.8,498.2z"/>
</svg>
