<svg xmlns="http://www.w3.org/2000/svg" width="18" height="18" viewBox="0 0 18 18"><defs><style>.cls-1{fill:red;}</style></defs><title>print</title><g id="Calque_2" data-name="Calque 2"><g id="Calque_2-2" data-name="Calque 2"><rect class="cls-1" x="6" y="3.7" width="6" height="1.5"/><rect class="cls-1" x="6" y="7" width="6" height="1.5"/><path class="cls-1" d="M15.4,10.5h-.1l-.3.3V2.2A2.2,2.2,0,0,0,12.7,0H5.2A2.2,2.2,0,0,0,3,2.2v8.6l-.3-.3a3.2,3.2,0,0,0-1.5.6A4,4,0,0,0,0,13.8v1.8A2.6,2.6,0,0,0,2.6,18H15.5A2.4,2.4,0,0,0,18,15.6V13.8C18,12.2,16.7,10.5,15.4,10.5Zm-.2,4.3a1,1,0,0,1-.8.6H14a1,1,0,0,1-.6-.8.8.8,0,0,1,.6-.8h.8a1,1,0,0,1,.6.8Zm-4.4.6h-.4l-.5-.5c0-.1-.1-.2-.1-.4a.9.9,0,0,1,.9-.9h.4l.3.2.2.3c0,.1.1.2.1.4A1,1,0,0,1,10.8,15.4ZM4.5,2.2a.7.7,0,0,1,.8-.7h7.5a.8.8,0,0,1,.8.7v8.6h-9V2.2Z"/></g></g></svg>