<svg xmlns="http://www.w3.org/2000/svg" xmlns:xlink="http://www.w3.org/1999/xlink" width="468.6" height="344.9" viewBox="0 0 468.6 344.9"><defs><style>.cls-1{font-size:8px;font-family:Roboto-Light, Roboto;letter-spacing:0.01em;}.cls-1,.cls-19,.cls-5{fill:red;}.cls-2{letter-spacing:0em;}.cls-10,.cls-11,.cls-13,.cls-14,.cls-15,.cls-16,.cls-17,.cls-18,.cls-3,.cls-4{stroke:red;}.cls-10,.cls-11,.cls-13,.cls-14,.cls-15,.cls-16,.cls-17,.cls-18,.cls-20,.cls-3,.cls-4{stroke-miterlimit:10;}.cls-10,.cls-13,.cls-14,.cls-15,.cls-16,.cls-17,.cls-3{stroke-width:0.25px;}.cls-3{stroke-dasharray:4 6;fill:url(#Dégradé_sans_nom_8);}.cls-4{stroke-width:0.5px;fill:url(#Dégradé_sans_nom_17);}.cls-18,.cls-4{opacity:0.7;}.cls-5{font-size:10px;font-family:Roboto-Regular, Roboto;}.cls-6{letter-spacing:-0.01em;}.cls-7{letter-spacing:-0.02em;}.cls-8{letter-spacing:-0.01em;}.cls-9{letter-spacing:0.01em;}.cls-10,.cls-11,.cls-13,.cls-14,.cls-15,.cls-16,.cls-17,.cls-21{fill:none;}.cls-12{fill:url(#Dégradé_sans_nom_8-2);}.cls-13{stroke-dasharray:3.95 5.93;}.cls-14{stroke-dasharray:4.11 6.17;}.cls-15{stroke-dasharray:3.98 5.97;}.cls-16{stroke-dasharray:3.83 5.74;}.cls-17{stroke-dasharray:3.97 5.96;}.cls-18{stroke-width:0.75px;fill:url(#Dégradé_sans_nom_9);}.cls-20{fill:#fff;stroke:#ed1c24;}</style><linearGradient id="Dégradé_sans_nom_8" x1="0.25" y1="317.79" x2="11.98" y2="317.79" gradientUnits="userSpaceOnUse"><stop offset="0" stop-color="red" stop-opacity="0.2"/><stop offset="0.99" stop-color="#fff"/></linearGradient><linearGradient id="Dégradé_sans_nom_17" x1="0.25" y1="338.76" x2="11.98" y2="338.76" gradientUnits="userSpaceOnUse"><stop offset="0" stop-color="#89c6b7"/><stop offset="0.99" stop-color="#fff"/></linearGradient><linearGradient id="Dégradé_sans_nom_8-2" x1="179.03" y1="119.37" x2="377.36" y2="119.37" xlink:href="#Dégradé_sans_nom_8"/><linearGradient id="Dégradé_sans_nom_9" x1="216.5" y1="125.31" x2="364.87" y2="125.31" gradientUnits="userSpaceOnUse"><stop offset="0" stop-color="#89c6b7"/><stop offset="0.18" stop-color="#98cdc0"/><stop offset="0.52" stop-color="#bfe0d8"/><stop offset="0.98" stop-color="#fdfefe"/><stop offset="0.99" stop-color="#fff"/></linearGradient></defs><title>Fichier 3</title><g id="Calque_2" data-name="Calque 2"><g id="Calque_2-2" data-name="Calque 2"><text class="cls-1" transform="translate(19.9 320.8)">Mon g<tspan class="cls-2" x="22.6" y="0">r</tspan><tspan x="25.4" y="0">oupe de pairs</tspan></text><circle class="cls-3" cx="6.1" cy="317.8" r="5.9"/><circle class="cls-4" cx="6.1" cy="338.8" r="5.9"/><text class="cls-1" transform="translate(20.7 341.8)">Mes Compétences</text><text class="cls-5" transform="translate(108.9 260.9)">Acco<tspan class="cls-6" x="22.8" y="0">r</tspan><tspan x="26.1" y="0">der le nom </tspan><tspan x="24.1" y="12">et l</tspan><tspan class="cls-7" x="37.8" y="12">’</tspan><tspan x="39.6" y="12">adjectif</tspan></text><text class="cls-5" transform="translate(37.1 97.5)">Choisir la bonne forme</text><text class="cls-5" transform="translate(221.6 8.6)">S<tspan class="cls-8" x="6.2" y="0">av</tspan><tspan x="16.6" y="0">oir conjuguer</tspan></text><text class="cls-5" transform="translate(380.8 97.5)">Distinguer à et a</text><text class="cls-5" transform="translate(331.7 260.1)">Acco<tspan class="cls-6" x="22.8" y="0">r</tspan><tspan x="26.1" y="0">der le sujet </tspan><tspan x="0" y="12">et le pa</tspan><tspan class="cls-9" x="32.7" y="12">r</tspan><tspan x="36.2" y="12">ticipe passé</tspan></text><polygon class="cls-10" points="259.4 31 154.1 107.7 194.5 231.4 324 231.4 364.9 108.1 259.4 31"/><polygon class="cls-10" points="259.4 42.9 166.5 110.5 202.2 219.6 316.4 219.6 352.4 110.9 259.4 42.9"/><polygon class="cls-10" points="259.4 54.8 179 113.3 209.9 207.7 308.7 207.7 339.9 113.6 259.4 54.8"/><polygon class="cls-10" points="259.4 66.7 191.5 116.1 217.6 195.8 301.1 195.8 327.4 116.3 259.4 66.7"/><polygon class="cls-11" points="259.4 78.5 204 118.9 225.3 184 293.4 184 314.9 119.1 259.4 78.5"/><polygon class="cls-10" points="259.4 90.4 216.5 121.7 233 172.1 285.8 172.1 302.4 121.8 259.4 90.4"/><polygon class="cls-10" points="259.4 102.3 229 124.4 240.7 160.2 278.1 160.2 289.9 124.6 259.4 102.3"/><polygon class="cls-10" points="259.5 114.2 241.5 127.2 248.4 148.3 270.5 148.3 277.4 127.3 259.5 114.2"/><polygon class="cls-10" points="259.5 126 254 130 256.1 136.5 262.8 136.5 265 130 259.5 126"/><polyline class="cls-10" points="141.6 104.9 259.5 131.2 259.4 19.2"/><polyline class="cls-10" points="186.8 243.3 259.5 131.2 377.4 105.4"/><line class="cls-10" x1="331.7" y1="243.3" x2="259.5" y2="131.2"/><polygon class="cls-12" points="209.9 207.7 308.7 207.7 377.4 105.4 259.4 31 179 113.3 209.9 207.7"/><polyline class="cls-10" points="209.2 205.8 209.9 207.7 211.9 207.7"/><line class="cls-13" x1="217.8" y1="207.7" x2="303.8" y2="207.7"/><polyline class="cls-10" points="306.7 207.7 308.7 207.7 309.9 206"/><line class="cls-14" x1="313.3" y1="200.9" x2="374.5" y2="109.6"/><polyline class="cls-10" points="376.2 107 377.4 105.4 375.7 104.3"/><line class="cls-15" x1="370.6" y1="101.1" x2="263.6" y2="33.7"/><polyline class="cls-10" points="261.1 32.1 259.4 31 258 32.5"/><line class="cls-16" x1="254" y1="36.6" x2="182.4" y2="109.8"/><polyline class="cls-10" points="180.4 111.9 179 113.3 179.7 115.2"/><line class="cls-17" x1="181.5" y1="120.8" x2="208.3" y2="203"/><polygon class="cls-18" points="364.9 108.1 259.4 54.8 216.5 121.7 233 172.1 301.1 195.8 364.9 108.1"/><circle class="cls-19" cx="259.5" cy="54.8" r="3.9"/><circle class="cls-20" cx="216.5" cy="121.9" r="3.9"/><circle class="cls-20" cx="232.8" cy="172.1" r="3.9"/><circle class="cls-19" cx="300.9" cy="195.8" r="3.9"/><circle class="cls-19" cx="364.9" cy="108.2" r="3.9"/><circle class="cls-21" cx="259.5" cy="31" r="2.8"/><circle class="cls-21" cx="179.5" cy="113.5" r="2.8"/><circle class="cls-21" cx="209.9" cy="207.7" r="2.8"/><circle class="cls-21" cx="308.8" cy="207.7" r="2.8"/><circle class="cls-21" cx="377.4" cy="105.4" r="2.8"/><polygon class="cls-11" points="259.4 19.2 141.6 104.9 186.8 243.3 331.7 243.3 377.4 105.4 259.4 19.2"/></g></g></svg>